<?xml version="1.0" encoding="utf-8"?>
<!-- Generator: Adobe Illustrator 27.5.0, SVG Export Plug-In . SVG Version: 6.00 Build 0)  -->
<svg version="1.1" xmlns="http://www.w3.org/2000/svg" xmlns:xlink="http://www.w3.org/1999/xlink" x="0px" y="0px"
	 viewBox="0 0 1200 1200" style="enable-background:new 0 0 1200 1200;" xml:space="preserve">

<g id="graphic_elements">
	<g>
		<g style="opacity:0.19;">
			<linearGradient id="SVGID_1_" gradientUnits="userSpaceOnUse" x1="648.0091" y1="688.5826" x2="910.4804" y2="688.5826">
				<stop  offset="0" style="stop-color:#FFFFFF"/>
				<stop  offset="1" style="stop-color:#000000"/>
			</linearGradient>
			<path style="fill:url(#SVGID_1_);" d="M818.964,384.627c4.014-6.993,2.915-16.089-3.189-21.874
				c-7.156-6.782-18.497-6.478-25.278,0.678c-6.782,7.155-6.478,18.496,0.678,25.278c6.105,5.786,15.247,6.395,22.014,2.012
				l88.896,84.251v92.279l-66.726,126.786l-173.668,75.349v214.678c-7.836,1.897-13.682,8.952-13.682,17.362
				c0,9.859,8.022,17.881,17.881,17.881c9.859,0,17.881-8.022,17.881-17.881c0-8.411-5.846-15.466-13.683-17.362v-209.17
				l171.325-74.333l68.584-130.319l0.484-0.918v-97.963L818.964,384.627z"/>
			
				<linearGradient id="SVGID_00000146461570937782737930000006708434026005669005_" gradientUnits="userSpaceOnUse" x1="814.1057" y1="362.2292" x2="816.3384" y2="362.2292">
				<stop  offset="0" style="stop-color:#FFFFFF"/>
				<stop  offset="1" style="stop-color:#000000"/>
			</linearGradient>
			<path style="fill:url(#SVGID_00000146461570937782737930000006708434026005669005_);" d="M814.106,361.171
				c0.321,0.304,0.848,0.804,1.669,1.581c0.207,0.196,0.392,0.371,0.564,0.535C815.537,362.527,814.618,361.656,814.106,361.171z"/>
			
				<linearGradient id="SVGID_00000054960229826659875210000003648368720200050571_" gradientUnits="userSpaceOnUse" x1="813.8594" y1="361.0545" x2="814.1057" y2="361.0545">
				<stop  offset="0" style="stop-color:#FFFFFF"/>
				<stop  offset="1" style="stop-color:#000000"/>
			</linearGradient>
			<path style="fill:url(#SVGID_00000054960229826659875210000003648368720200050571_);" d="M814.106,361.171
				c-0.102-0.096-0.186-0.176-0.246-0.233C813.923,360.999,814.008,361.078,814.106,361.171z"/>
			
				<linearGradient id="SVGID_00000026152918371817713500000012612882130174989973_" gradientUnits="userSpaceOnUse" x1="816.3384" y1="363.3604" x2="816.4928" y2="363.3604">
				<stop  offset="0" style="stop-color:#FFFFFF"/>
				<stop  offset="1" style="stop-color:#000000"/>
			</linearGradient>
			<path style="fill:url(#SVGID_00000026152918371817713500000012612882130174989973_);" d="M816.338,363.287
				c0.052,0.049,0.104,0.098,0.154,0.146C816.441,363.384,816.393,363.34,816.338,363.287z"/>
			
				<linearGradient id="SVGID_00000159456071851688992530000010875047391702878596_" gradientUnits="userSpaceOnUse" x1="813.7134" y1="360.8687" x2="813.8594" y2="360.8687">
				<stop  offset="0" style="stop-color:#FFFFFF"/>
				<stop  offset="1" style="stop-color:#000000"/>
			</linearGradient>
			<path style="fill:url(#SVGID_00000159456071851688992530000010875047391702878596_);" d="M813.859,360.938
				C813.678,360.766,813.652,360.741,813.859,360.938L813.859,360.938z"/>
			
				<linearGradient id="SVGID_00000030453912684728683540000002029161366314842558_" gradientUnits="userSpaceOnUse" x1="816.4928" y1="364.0612" x2="817.8171" y2="364.0612">
				<stop  offset="0" style="stop-color:#FFFFFF"/>
				<stop  offset="1" style="stop-color:#000000"/>
			</linearGradient>
			<path style="fill:url(#SVGID_00000030453912684728683540000002029161366314842558_);" d="M816.493,363.434
				c0.831,0.788,1.232,1.168,1.324,1.255C817.722,364.598,817.169,364.075,816.493,363.434z"/>
			
				<linearGradient id="SVGID_00000017514693049775432520000008158454167209500573_" gradientUnits="userSpaceOnUse" x1="817.8171" y1="364.6975" x2="817.8354" y2="364.6975">
				<stop  offset="0" style="stop-color:#FFFFFF"/>
				<stop  offset="1" style="stop-color:#000000"/>
			</linearGradient>
			<path style="fill:url(#SVGID_00000017514693049775432520000008158454167209500573_);" d="M817.817,364.689
				C817.838,364.709,817.845,364.715,817.817,364.689L817.817,364.689z"/>
			
				<linearGradient id="SVGID_00000101792257258294989250000005021898609260400831_" gradientUnits="userSpaceOnUse" x1="697.9637" y1="870.881" x2="733.7251" y2="870.881">
				<stop  offset="0" style="stop-color:#FFFFFF"/>
				<stop  offset="1" style="stop-color:#000000"/>
			</linearGradient>
			<path style="fill:url(#SVGID_00000101792257258294989250000005021898609260400831_);" d="M715.844,795.768
				c-9.859,0-17.881,8.022-17.881,17.881c0,8.41,5.846,15.465,13.682,17.362v79.741c-7.836,1.897-13.682,8.952-13.682,17.362
				c0,9.859,8.022,17.881,17.881,17.881c9.858,0,17.881-8.022,17.881-17.881c0-8.41-5.846-15.466-13.683-17.362v-79.74
				c7.837-1.896,13.683-8.951,13.683-17.362C733.725,803.79,725.703,795.768,715.844,795.768z"/>
			
				<linearGradient id="SVGID_00000054255689169065682010000002595883458528959644_" gradientUnits="userSpaceOnUse" x1="885.2798" y1="388.748" x2="885.2866" y2="388.748">
				<stop  offset="0" style="stop-color:#FFFFFF"/>
				<stop  offset="1" style="stop-color:#000000"/>
			</linearGradient>
			<path style="fill:url(#SVGID_00000054255689169065682010000002595883458528959644_);" d="M885.28,388.704
				c0.002,0.031,0.005,0.061,0.007,0.088C885.285,388.767,885.282,388.733,885.28,388.704z"/>
			
				<linearGradient id="SVGID_00000085245025285017373000000018284153771901968270_" gradientUnits="userSpaceOnUse" x1="885.2591" y1="388.5698" x2="885.2798" y2="388.5698">
				<stop  offset="0" style="stop-color:#FFFFFF"/>
				<stop  offset="1" style="stop-color:#000000"/>
			</linearGradient>
			<path style="fill:url(#SVGID_00000085245025285017373000000018284153771901968270_);" d="M885.259,388.436
				c0.008,0.106,0.015,0.196,0.021,0.269C885.274,388.628,885.267,388.538,885.259,388.436z"/>
			
				<linearGradient id="SVGID_00000041271175407480680000000009947351776679533702_" gradientUnits="userSpaceOnUse" x1="884.9265" y1="384.2634" x2="884.9453" y2="384.2634">
				<stop  offset="0" style="stop-color:#FFFFFF"/>
				<stop  offset="1" style="stop-color:#000000"/>
			</linearGradient>
			<path style="fill:url(#SVGID_00000041271175407480680000000009947351776679533702_);" d="M884.945,384.383
				c-0.007-0.085-0.013-0.165-0.019-0.24C884.932,384.218,884.938,384.294,884.945,384.383z"/>
			
				<linearGradient id="SVGID_00000107574769810327081400000000484789097854848164_" gradientUnits="userSpaceOnUse" x1="885.2866" y1="388.8866" x2="885.3013" y2="388.8866">
				<stop  offset="0" style="stop-color:#FFFFFF"/>
				<stop  offset="1" style="stop-color:#000000"/>
			</linearGradient>
			<path style="fill:url(#SVGID_00000107574769810327081400000000484789097854848164_);" d="M885.287,388.792
				C885.308,389.062,885.305,389.027,885.287,388.792L885.287,388.792z"/>
			
				<linearGradient id="SVGID_00000044867601319112299720000011679506145387210373_" gradientUnits="userSpaceOnUse" x1="885.2286" y1="388.2385" x2="885.2591" y2="388.2385">
				<stop  offset="0" style="stop-color:#FFFFFF"/>
				<stop  offset="1" style="stop-color:#000000"/>
			</linearGradient>
			<path style="fill:url(#SVGID_00000044867601319112299720000011679506145387210373_);" d="M885.229,388.041
				c0.011,0.145,0.021,0.277,0.031,0.394C885.25,388.324,885.24,388.193,885.229,388.041z"/>
			
				<linearGradient id="SVGID_00000077325725866117113830000017323932993160224955_" gradientUnits="userSpaceOnUse" x1="884.8788" y1="383.6322" x2="884.8952" y2="383.6322">
				<stop  offset="0" style="stop-color:#FFFFFF"/>
				<stop  offset="1" style="stop-color:#000000"/>
			</linearGradient>
			<path style="fill:url(#SVGID_00000077325725866117113830000017323932993160224955_);" d="M884.895,383.738
				C884.872,383.437,884.875,383.474,884.895,383.738L884.895,383.738z"/>
			
				<linearGradient id="SVGID_00000106841601323986510280000001997991247258600860_" gradientUnits="userSpaceOnUse" x1="884.8957" y1="383.9451" x2="884.9265" y2="383.9451">
				<stop  offset="0" style="stop-color:#FFFFFF"/>
				<stop  offset="1" style="stop-color:#000000"/>
			</linearGradient>
			<path style="fill:url(#SVGID_00000106841601323986510280000001997991247258600860_);" d="M884.927,384.143
				c-0.013-0.167-0.023-0.301-0.031-0.397C884.904,383.848,884.914,383.987,884.927,384.143z"/>
			
				<linearGradient id="SVGID_00000086685801545451495410000016166015683623707779_" gradientUnits="userSpaceOnUse" x1="884.8952" y1="383.7426" x2="884.8957" y2="383.7426">
				<stop  offset="0" style="stop-color:#FFFFFF"/>
				<stop  offset="1" style="stop-color:#000000"/>
			</linearGradient>
			<path style="fill:url(#SVGID_00000086685801545451495410000016166015683623707779_);" d="M884.896,383.747
				c0-0.003,0-0.006,0-0.008C884.895,383.741,884.896,383.744,884.896,383.747z"/>
			
				<linearGradient id="SVGID_00000177465268305466102660000005413275032990969740_" gradientUnits="userSpaceOnUse" x1="885.1665" y1="387.6403" x2="885.2286" y2="387.6403">
				<stop  offset="0" style="stop-color:#FFFFFF"/>
				<stop  offset="1" style="stop-color:#000000"/>
			</linearGradient>
			<path style="fill:url(#SVGID_00000177465268305466102660000005413275032990969740_);" d="M885.167,387.239
				c0.024,0.315,0.045,0.58,0.062,0.802C885.21,387.801,885.189,387.53,885.167,387.239z"/>
			
				<linearGradient id="SVGID_00000060004734671915150530000016017794838390256795_" gradientUnits="userSpaceOnUse" x1="632.3309" y1="329.4514" x2="885.1665" y2="329.4514">
				<stop  offset="0" style="stop-color:#FFFFFF"/>
				<stop  offset="1" style="stop-color:#000000"/>
			</linearGradient>
			<path style="fill:url(#SVGID_00000060004734671915150530000016017794838390256795_);" d="M649.56,288.547
				c8.104,0,14.902-5.633,16.73-13.184h107.225l85.327,47.476l3.747,48.378c-7.388,2.405-12.479,9.618-11.854,17.698
				c0.734,9.471,9.037,16.581,18.508,15.847c9.471-0.733,16.58-9.037,15.847-18.508c0.026,0.336,0.052,0.669,0.076,0.985
				c-0.023-0.291-0.047-0.608-0.076-0.985c-0.065-0.835-0.112-1.438-0.145-1.871c0.039,0.512,0.092,1.188,0.145,1.871
				c-0.626-8.08-6.767-14.423-14.437-15.661l-4.083-52.709l-90.958-50.61H666.29c-1.827-7.551-8.625-13.184-16.73-13.184
				c-9.5,0-17.229,7.73-17.229,17.229C632.331,280.817,640.06,288.547,649.56,288.547z"/>
			
				<linearGradient id="SVGID_00000101788007362592952400000001206461079790396067_" gradientUnits="userSpaceOnUse" x1="251.4297" y1="350.7211" x2="252.0834" y2="350.7211">
				<stop  offset="0" style="stop-color:#FFFFFF"/>
				<stop  offset="1" style="stop-color:#000000"/>
			</linearGradient>
			<path style="fill:url(#SVGID_00000101788007362592952400000001206461079790396067_);" d="M252.083,350.489
				c-0.242,0.172-0.46,0.327-0.654,0.464C251.639,350.805,251.858,350.649,252.083,350.489z"/>
			
				<linearGradient id="SVGID_00000030469345060689511040000010496910018488014254_" gradientUnits="userSpaceOnUse" x1="250.4971" y1="351.5388" x2="250.7114" y2="351.5388">
				<stop  offset="0" style="stop-color:#FFFFFF"/>
				<stop  offset="1" style="stop-color:#000000"/>
			</linearGradient>
			<path style="fill:url(#SVGID_00000030469345060689511040000010496910018488014254_);" d="M250.711,351.463
				c-0.084,0.06-0.148,0.105-0.214,0.152C250.564,351.568,250.634,351.518,250.711,351.463z"/>
			
				<linearGradient id="SVGID_00000173120650273435787650000008949013457026284437_" gradientUnits="userSpaceOnUse" x1="252.8724" y1="349.5116" x2="254.0497" y2="349.5116">
				<stop  offset="0" style="stop-color:#FFFFFF"/>
				<stop  offset="1" style="stop-color:#000000"/>
			</linearGradient>
			<path style="fill:url(#SVGID_00000173120650273435787650000008949013457026284437_);" d="M252.872,349.929
				c0.44-0.313,0.855-0.607,1.177-0.836C253.769,349.293,253.375,349.572,252.872,349.929z"/>
			
				<linearGradient id="SVGID_00000008118441547297148150000006053304748476967310_" gradientUnits="userSpaceOnUse" x1="250.7114" y1="351.2079" x2="251.4297" y2="351.2079">
				<stop  offset="0" style="stop-color:#FFFFFF"/>
				<stop  offset="1" style="stop-color:#000000"/>
			</linearGradient>
			<path style="fill:url(#SVGID_00000008118441547297148150000006053304748476967310_);" d="M251.43,350.953
				c-0.265,0.188-0.51,0.362-0.718,0.51C250.9,351.329,251.148,351.153,251.43,350.953z"/>
			
				<linearGradient id="SVGID_00000046340567588549555070000012517801953560541103_" gradientUnits="userSpaceOnUse" x1="250.0581" y1="351.7707" x2="250.4971" y2="351.7707">
				<stop  offset="0" style="stop-color:#FFFFFF"/>
				<stop  offset="1" style="stop-color:#000000"/>
			</linearGradient>
			<path style="fill:url(#SVGID_00000046340567588549555070000012517801953560541103_);" d="M250.497,351.615
				C249.983,351.98,249.845,352.078,250.497,351.615L250.497,351.615z"/>
			
				<linearGradient id="SVGID_00000153686341255343353690000002734368500990195353_" gradientUnits="userSpaceOnUse" x1="252.0834" y1="350.2093" x2="252.8724" y2="350.2093">
				<stop  offset="0" style="stop-color:#FFFFFF"/>
				<stop  offset="1" style="stop-color:#000000"/>
			</linearGradient>
			<path style="fill:url(#SVGID_00000153686341255343353690000002734368500990195353_);" d="M252.083,350.489
				c0.097-0.069,0.181-0.128,0.286-0.203c0.184-0.131,0.343-0.243,0.503-0.357C252.613,350.113,252.347,350.302,252.083,350.489z"/>
			
				<linearGradient id="SVGID_00000132052597138602043080000008597693256365641906_" gradientUnits="userSpaceOnUse" x1="254.6326" y1="348.6615" x2="254.6855" y2="348.6615">
				<stop  offset="0" style="stop-color:#FFFFFF"/>
				<stop  offset="1" style="stop-color:#000000"/>
			</linearGradient>
			<path style="fill:url(#SVGID_00000132052597138602043080000008597693256365641906_);" d="M254.633,348.68
				C254.703,348.63,254.703,348.63,254.633,348.68L254.633,348.68z"/>
			
				<linearGradient id="SVGID_00000016797421305317233350000007221933212830600865_" gradientUnits="userSpaceOnUse" x1="254.0497" y1="348.9217" x2="254.5348" y2="348.9217">
				<stop  offset="0" style="stop-color:#FFFFFF"/>
				<stop  offset="1" style="stop-color:#000000"/>
			</linearGradient>
			<path style="fill:url(#SVGID_00000016797421305317233350000007221933212830600865_);" d="M254.05,349.094
				c0.225-0.159,0.382-0.271,0.485-0.344C254.423,348.829,254.258,348.946,254.05,349.094z"/>
			
				<linearGradient id="SVGID_00000131332006565902890940000003581735795198542226_" gradientUnits="userSpaceOnUse" x1="254.5348" y1="348.715" x2="254.6326" y2="348.715">
				<stop  offset="0" style="stop-color:#FFFFFF"/>
				<stop  offset="1" style="stop-color:#000000"/>
			</linearGradient>
			<path style="fill:url(#SVGID_00000131332006565902890940000003581735795198542226_);" d="M254.535,348.75
				c0.037-0.027,0.074-0.052,0.098-0.069C254.608,348.698,254.579,348.718,254.535,348.75z"/>
			
				<linearGradient id="SVGID_00000148626885417417098520000002273514784597221033_" gradientUnits="userSpaceOnUse" x1="590.8297" y1="867.5751" x2="590.8346" y2="867.5751">
				<stop  offset="0" style="stop-color:#FFFFFF"/>
				<stop  offset="1" style="stop-color:#000000"/>
			</linearGradient>
			<path style="fill:url(#SVGID_00000148626885417417098520000002273514784597221033_);" d="M590.835,867.738
				c-0.002-0.111-0.003-0.219-0.005-0.326C590.831,867.516,590.833,867.624,590.835,867.738z"/>
			
				<linearGradient id="SVGID_00000170966605331587866610000008038731897485818532_" gradientUnits="userSpaceOnUse" x1="590.8027" y1="865.8843" x2="590.8117" y2="865.8843">
				<stop  offset="0" style="stop-color:#FFFFFF"/>
				<stop  offset="1" style="stop-color:#000000"/>
			</linearGradient>
			<path style="fill:url(#SVGID_00000170966605331587866610000008038731897485818532_);" d="M590.812,866.187
				C590.798,865.281,590.801,865.484,590.812,866.187L590.812,866.187z"/>
			
				<linearGradient id="SVGID_00000027603494814373839530000018187072974931477639_" gradientUnits="userSpaceOnUse" x1="590.8188" y1="867.0409" x2="590.8297" y2="867.0409">
				<stop  offset="0" style="stop-color:#FFFFFF"/>
				<stop  offset="1" style="stop-color:#000000"/>
			</linearGradient>
			<path style="fill:url(#SVGID_00000027603494814373839530000018187072974931477639_);" d="M590.83,867.412
				c-0.004-0.286-0.008-0.53-0.011-0.742C590.822,866.896,590.826,867.148,590.83,867.412z"/>
			
				<linearGradient id="SVGID_00000121256412292937989560000013943442178449388418_" gradientUnits="userSpaceOnUse" x1="590.8117" y1="866.4285" x2="590.8188" y2="866.4285">
				<stop  offset="0" style="stop-color:#FFFFFF"/>
				<stop  offset="1" style="stop-color:#000000"/>
			</linearGradient>
			<path style="fill:url(#SVGID_00000121256412292937989560000013943442178449388418_);" d="M590.819,866.67
				c-0.003-0.18-0.005-0.339-0.007-0.483C590.814,866.322,590.816,866.483,590.819,866.67z"/>
			
				<linearGradient id="SVGID_00000160165480405295974360000012455617608501518499_" gradientUnits="userSpaceOnUse" x1="166.5004" y1="616.5129" x2="626.6042" y2="616.5129">
				<stop  offset="0" style="stop-color:#FFFFFF"/>
				<stop  offset="1" style="stop-color:#000000"/>
			</linearGradient>
			<path style="fill:url(#SVGID_00000160165480405295974360000012455617608501518499_);" d="M612.664,850.729l-2.719-184.734
				l-105.989-1.733l-78.973-72.408H225.952l-50.278-32.244l-0.754-127.295l76.067-53.977c6.082,5.294,15.219,5.979,22.078,1.111
				c8.04-5.705,9.94-16.89,4.235-24.93c-5.705-8.04-16.89-9.94-24.93-4.234c-6.859,4.867-9.229,13.718-6.241,21.206L166.5,427.997
				l0.806,136.22l56.186,36.032h198.225l78.914,72.355l101.04,1.652l2.599,176.597c-7.808,2.011-13.55,9.152-13.426,17.562
				c0.145,9.858,8.284,17.761,18.142,17.616c9.857-0.145,17.761-8.284,17.616-18.142
				C626.478,859.478,620.529,852.51,612.664,850.729z"/>
			
				<linearGradient id="SVGID_00000000182127520276011250000013214321393121222801_" gradientUnits="userSpaceOnUse" x1="590.8346" y1="869.3779" x2="590.8828" y2="869.3779">
				<stop  offset="0" style="stop-color:#FFFFFF"/>
				<stop  offset="1" style="stop-color:#000000"/>
			</linearGradient>
			<path style="fill:url(#SVGID_00000000182127520276011250000013214321393121222801_);" d="M590.883,871.018
				c-0.005-0.36-0.017-1.156-0.038-2.603c-0.004-0.248-0.007-0.465-0.01-0.676C590.853,869.003,590.875,870.453,590.883,871.018z"/>
			
				<linearGradient id="SVGID_00000147195796244532940320000009638183370387465109_" gradientUnits="userSpaceOnUse" x1="590.8828" y1="871.1348" x2="590.8862" y2="871.1348">
				<stop  offset="0" style="stop-color:#FFFFFF"/>
				<stop  offset="1" style="stop-color:#000000"/>
			</linearGradient>
			<path style="fill:url(#SVGID_00000147195796244532940320000009638183370387465109_);" d="M590.883,871.018
				C590.888,871.351,590.887,871.309,590.883,871.018L590.883,871.018z"/>
			
				<linearGradient id="SVGID_00000138542906347995847990000009118400239858540969_" gradientUnits="userSpaceOnUse" x1="268.0166" y1="523.0494" x2="268.046" y2="523.0494">
				<stop  offset="0" style="stop-color:#FFFFFF"/>
				<stop  offset="1" style="stop-color:#000000"/>
			</linearGradient>
			<path style="fill:url(#SVGID_00000138542906347995847990000009118400239858540969_);" d="M268.046,523.049
				C268.011,523.049,268.003,523.049,268.046,523.049L268.046,523.049z"/>
			
				<linearGradient id="SVGID_00000085960334788840376410000010266556659169402757_" gradientUnits="userSpaceOnUse" x1="273.0849" y1="523.0048" x2="273.6653" y2="523.0048">
				<stop  offset="0" style="stop-color:#FFFFFF"/>
				<stop  offset="1" style="stop-color:#000000"/>
			</linearGradient>
			<path style="fill:url(#SVGID_00000085960334788840376410000010266556659169402757_);" d="M273.085,523.007
				c0.317-0.003,0.511-0.004,0.58-0.005C273.596,523.003,273.388,523.005,273.085,523.007z"/>
			
				<linearGradient id="SVGID_00000144315182565787922390000008947333715033681554_" gradientUnits="userSpaceOnUse" x1="270.8789" y1="523.0164" x2="273.0849" y2="523.0164">
				<stop  offset="0" style="stop-color:#FFFFFF"/>
				<stop  offset="1" style="stop-color:#000000"/>
			</linearGradient>
			<path style="fill:url(#SVGID_00000144315182565787922390000008947333715033681554_);" d="M270.879,523.026
				c0.837-0.007,1.664-0.014,2.206-0.018C272.64,523.011,271.939,523.017,270.879,523.026z"/>
			
				<linearGradient id="SVGID_00000057852165704358912870000015017927073569625989_" gradientUnits="userSpaceOnUse" x1="273.6653" y1="523.0023" x2="273.6942" y2="523.0023">
				<stop  offset="0" style="stop-color:#FFFFFF"/>
				<stop  offset="1" style="stop-color:#000000"/>
			</linearGradient>
			<path style="fill:url(#SVGID_00000057852165704358912870000015017927073569625989_);" d="M273.665,523.002
				C273.7,523.002,273.708,523.002,273.665,523.002L273.665,523.002z"/>
			
				<linearGradient id="SVGID_00000022556997985995608470000004652586871437866396_" gradientUnits="userSpaceOnUse" x1="252.8253" y1="544.6338" x2="554.6314" y2="544.6338">
				<stop  offset="0" style="stop-color:#FFFFFF"/>
				<stop  offset="1" style="stop-color:#000000"/>
			</linearGradient>
			<path style="fill:url(#SVGID_00000022556997985995608470000004652586871437866396_);" d="M270.557,487.266
				c-9.858,0.082-17.813,8.171-17.731,18.029c0.082,9.858,8.171,17.813,18.03,17.731c-0.85,0.007-1.694,0.014-2.24,0.018
				c0.448-0.004,1.157-0.01,2.24-0.018c0.009,0,0.015,0,0.023,0c-0.008,0-0.016,0-0.023,0c8.41-0.07,15.416-5.975,17.247-13.828
				l174.663-1.458l59.288,66.251c-4.575,6.639-4.227,15.795,1.382,22.063c-0.139-0.155-0.276-0.309-0.412-0.461
				c0.131,0.146,0.261,0.292,0.412,0.461c0.077,0.086,0.138,0.154,0.209,0.234c-0.07-0.078-0.139-0.155-0.209-0.233
				c6.574,7.346,17.902,7.975,25.249,1.4c7.346-6.574,7.975-17.902,1.4-25.248c-5.608-6.268-14.67-7.626-21.775-3.813
				l-61.819-69.079l-178.457,1.49C286.071,492.983,278.967,487.195,270.557,487.266z"/>
			
				<linearGradient id="SVGID_00000059270594223107162340000000839546607687731369_" gradientUnits="userSpaceOnUse" x1="268.046" y1="523.0468" x2="268.6153" y2="523.0468">
				<stop  offset="0" style="stop-color:#FFFFFF"/>
				<stop  offset="1" style="stop-color:#000000"/>
			</linearGradient>
			<path style="fill:url(#SVGID_00000059270594223107162340000000839546607687731369_);" d="M268.615,523.044
				c-0.31,0.003-0.5,0.004-0.569,0.005C268.115,523.049,268.318,523.047,268.615,523.044z"/>
			
				<linearGradient id="SVGID_00000146478434123744151290000003834535401371141507_" gradientUnits="userSpaceOnUse" x1="521.5859" y1="594.1236" x2="521.8281" y2="594.1236">
				<stop  offset="0" style="stop-color:#FFFFFF"/>
				<stop  offset="1" style="stop-color:#000000"/>
			</linearGradient>
			<path style="fill:url(#SVGID_00000146478434123744151290000003834535401371141507_);" d="M521.828,594.259
				c-0.109-0.122-0.194-0.216-0.242-0.271C521.63,594.037,521.704,594.121,521.828,594.259z"/>
			
				<linearGradient id="SVGID_00000163787908508112728060000012921721085046790578_" gradientUnits="userSpaceOnUse" x1="521.5414" y1="593.9634" x2="521.5859" y2="593.9634">
				<stop  offset="0" style="stop-color:#FFFFFF"/>
				<stop  offset="1" style="stop-color:#000000"/>
			</linearGradient>
			<path style="fill:url(#SVGID_00000163787908508112728060000012921721085046790578_);" d="M521.586,593.988
				C521.527,593.922,521.526,593.922,521.586,593.988L521.586,593.988z"/>
			
				<linearGradient id="SVGID_00000155830829981919913930000015049094477802139540_" gradientUnits="userSpaceOnUse" x1="521.8281" y1="594.9263" x2="523.0224" y2="594.9263">
				<stop  offset="0" style="stop-color:#FFFFFF"/>
				<stop  offset="1" style="stop-color:#000000"/>
			</linearGradient>
			<path style="fill:url(#SVGID_00000155830829981919913930000015049094477802139540_);" d="M523.022,595.594
				c-0.572-0.639-0.963-1.076-1.194-1.335C522.103,594.566,522.544,595.059,523.022,595.594z"/>
			
				<linearGradient id="SVGID_00000016039479481982884350000016096277682361697664_" gradientUnits="userSpaceOnUse" x1="525.0871" y1="598.0035" x2="525.2709" y2="598.0035">
				<stop  offset="0" style="stop-color:#FFFFFF"/>
				<stop  offset="1" style="stop-color:#000000"/>
			</linearGradient>
			<path style="fill:url(#SVGID_00000016039479481982884350000016096277682361697664_);" d="M525.087,597.901
				c0.078,0.087,0.143,0.159,0.184,0.205C525.232,598.063,525.173,597.997,525.087,597.901z"/>
			
				<linearGradient id="SVGID_00000094593564954547039390000009068334894834955173_" gradientUnits="userSpaceOnUse" x1="523.8467" y1="596.6659" x2="524.1174" y2="596.6659">
				<stop  offset="0" style="stop-color:#FFFFFF"/>
				<stop  offset="1" style="stop-color:#000000"/>
			</linearGradient>
			<path style="fill:url(#SVGID_00000094593564954547039390000009068334894834955173_);" d="M523.847,596.515
				c0.095,0.107,0.186,0.208,0.271,0.303C524.029,596.718,523.939,596.618,523.847,596.515z"/>
			
				<linearGradient id="SVGID_00000106836242142014178710000013451749349302829231_" gradientUnits="userSpaceOnUse" x1="524.6559" y1="597.6599" x2="525.0871" y2="597.6599">
				<stop  offset="0" style="stop-color:#FFFFFF"/>
				<stop  offset="1" style="stop-color:#000000"/>
			</linearGradient>
			<path style="fill:url(#SVGID_00000106836242142014178710000013451749349302829231_);" d="M524.656,597.419
				c0.182,0.203,0.327,0.366,0.431,0.482C524.974,597.774,524.828,597.611,524.656,597.419z"/>
			
				<linearGradient id="SVGID_00000034800826979768542360000001209315336718461610_" gradientUnits="userSpaceOnUse" x1="524.1174" y1="597.118" x2="524.6559" y2="597.118">
				<stop  offset="0" style="stop-color:#FFFFFF"/>
				<stop  offset="1" style="stop-color:#000000"/>
			</linearGradient>
			<path style="fill:url(#SVGID_00000034800826979768542360000001209315336718461610_);" d="M524.117,596.817
				c0.194,0.217,0.376,0.42,0.539,0.602C524.505,597.251,524.328,597.052,524.117,596.817z"/>
			
				<linearGradient id="SVGID_00000054235930913865255060000016305617995644975293_" gradientUnits="userSpaceOnUse" x1="525.2709" y1="598.1167" x2="525.2897" y2="598.1167">
				<stop  offset="0" style="stop-color:#FFFFFF"/>
				<stop  offset="1" style="stop-color:#000000"/>
			</linearGradient>
			<path style="fill:url(#SVGID_00000054235930913865255060000016305617995644975293_);" d="M525.271,598.106
				c0.006,0.007,0.014,0.016,0.019,0.021C525.284,598.121,525.278,598.114,525.271,598.106z"/>
			
				<linearGradient id="SVGID_00000133507977660046183420000013909754325970876067_" gradientUnits="userSpaceOnUse" x1="525.2897" y1="598.1483" x2="525.3275" y2="598.1483">
				<stop  offset="0" style="stop-color:#FFFFFF"/>
				<stop  offset="1" style="stop-color:#000000"/>
			</linearGradient>
			<path style="fill:url(#SVGID_00000133507977660046183420000013909754325970876067_);" d="M525.29,598.127
				C525.339,598.183,525.341,598.184,525.29,598.127L525.29,598.127z"/>
			
				<linearGradient id="SVGID_00000042695483803572693360000010477450392519534243_" gradientUnits="userSpaceOnUse" x1="523.644" y1="596.4013" x2="523.8467" y2="596.4013">
				<stop  offset="0" style="stop-color:#FFFFFF"/>
				<stop  offset="1" style="stop-color:#000000"/>
			</linearGradient>
			<path style="fill:url(#SVGID_00000042695483803572693360000010477450392519534243_);" d="M523.644,596.288
				c0.068,0.076,0.135,0.151,0.203,0.227C523.782,596.443,523.713,596.365,523.644,596.288z"/>
			
				<linearGradient id="SVGID_00000054964655160338383230000015436628637836843446_" gradientUnits="userSpaceOnUse" x1="394.9846" y1="527.8415" x2="653.3097" y2="527.8415">
				<stop  offset="0" style="stop-color:#FFFFFF"/>
				<stop  offset="1" style="stop-color:#000000"/>
			</linearGradient>
			<path style="fill:url(#SVGID_00000054964655160338383230000015436628637836843446_);" d="M653.31,634.177
				c0-8.411-5.846-15.466-13.683-17.362v-74.182l-90.29-125.324H430.228c-1.897-7.837-8.952-13.683-17.362-13.683
				c-9.859,0-17.881,8.022-17.881,17.881c0,9.859,8.022,17.881,17.881,17.881c8.411,0,15.466-5.847,17.362-13.684h114.809
				l86.193,119.639v71.473c-7.836,1.897-13.682,8.952-13.682,17.362c0,9.859,8.022,17.881,17.881,17.881
				C645.287,652.058,653.31,644.036,653.31,634.177z"/>
			
				<linearGradient id="SVGID_00000147940034857964942210000013642939065839427246_" gradientUnits="userSpaceOnUse" x1="323.5125" y1="413.6209" x2="323.5552" y2="413.6209">
				<stop  offset="0" style="stop-color:#FFFFFF"/>
				<stop  offset="1" style="stop-color:#000000"/>
			</linearGradient>
			<path style="fill:url(#SVGID_00000147940034857964942210000013642939065839427246_);" d="M323.555,413.602
				C323.498,413.654,323.499,413.652,323.555,413.602L323.555,413.602z"/>
			
				<linearGradient id="SVGID_00000080893462670880493650000004024621584991404450_" gradientUnits="userSpaceOnUse" x1="323.5552" y1="413.5961" x2="323.5675" y2="413.5961">
				<stop  offset="0" style="stop-color:#FFFFFF"/>
				<stop  offset="1" style="stop-color:#000000"/>
			</linearGradient>
			<path style="fill:url(#SVGID_00000080893462670880493650000004024621584991404450_);" d="M323.568,413.591
				c-0.005,0.005-0.008,0.007-0.012,0.011C323.559,413.599,323.564,413.594,323.568,413.591z"/>
			
				<linearGradient id="SVGID_00000182490425995459229830000001266636036050698145_" gradientUnits="userSpaceOnUse" x1="295.7494" y1="414.2112" x2="709.3419" y2="414.2112">
				<stop  offset="0" style="stop-color:#FFFFFF"/>
				<stop  offset="1" style="stop-color:#000000"/>
			</linearGradient>
			<path style="fill:url(#SVGID_00000182490425995459229830000001266636036050698145_);" d="M325.617,411.736
				c6.237-5.642,7.547-14.711,3.696-21.795l71.65-64.819l161.621,2.491l115.155,154.831c-5.157,6.198-5.638,15.349-0.618,22.098
				c5.883,7.911,17.108,9.56,25.018,3.677c7.911-5.883,9.56-17.108,3.677-25.019c-5.02-6.749-13.921-8.921-21.342-5.766
				L566.851,319.283l-169.066-2.605l-74.103,67.038c-6.664-4.539-15.818-4.141-22.055,1.501c-7.311,6.614-7.878,17.945-1.264,25.255
				C306.975,417.783,318.306,418.35,325.617,411.736z"/>
			
				<linearGradient id="SVGID_00000049204022822160252480000011150860117259073928_" gradientUnits="userSpaceOnUse" x1="324.3628" y1="411.8517" x2="326.6162" y2="411.8517">
				<stop  offset="0" style="stop-color:#FFFFFF"/>
				<stop  offset="1" style="stop-color:#000000"/>
			</linearGradient>
			<path style="fill:url(#SVGID_00000049204022822160252480000011150860117259073928_);" d="M326.616,410.832
				c-0.276,0.25-0.599,0.542-0.999,0.904c-0.533,0.482-0.938,0.848-1.255,1.135C325.013,412.283,325.91,411.471,326.616,410.832z"/>
			
				<linearGradient id="SVGID_00000016074128300987399840000006082858726380891062_" gradientUnits="userSpaceOnUse" x1="324.1792" y1="412.954" x2="324.3628" y2="412.954">
				<stop  offset="0" style="stop-color:#FFFFFF"/>
				<stop  offset="1" style="stop-color:#000000"/>
			</linearGradient>
			<path style="fill:url(#SVGID_00000016074128300987399840000006082858726380891062_);" d="M324.363,412.871
				c-0.065,0.059-0.124,0.112-0.184,0.166C324.235,412.986,324.299,412.929,324.363,412.871z"/>
			
				<linearGradient id="SVGID_00000175282516063984046530000002723748919912409510_" gradientUnits="userSpaceOnUse" x1="323.5675" y1="413.3139" x2="324.1792" y2="413.3139">
				<stop  offset="0" style="stop-color:#FFFFFF"/>
				<stop  offset="1" style="stop-color:#000000"/>
			</linearGradient>
			<path style="fill:url(#SVGID_00000175282516063984046530000002723748919912409510_);" d="M324.179,413.037
				c-0.334,0.302-0.527,0.477-0.612,0.553C323.667,413.5,323.89,413.299,324.179,413.037z"/>
			
				<linearGradient id="SVGID_00000079478443268857122840000008957641047019886004_" gradientUnits="userSpaceOnUse" x1="327.6946" y1="409.8447" x2="327.7216" y2="409.8447">
				<stop  offset="0" style="stop-color:#FFFFFF"/>
				<stop  offset="1" style="stop-color:#000000"/>
			</linearGradient>
			<path style="fill:url(#SVGID_00000079478443268857122840000008957641047019886004_);" d="M327.695,409.857
				C327.733,409.822,327.728,409.827,327.695,409.857L327.695,409.857z"/>
			
				<linearGradient id="SVGID_00000074440527788120718350000012828212546370321036_" gradientUnits="userSpaceOnUse" x1="326.6162" y1="410.6059" x2="327.1171" y2="410.6059">
				<stop  offset="0" style="stop-color:#FFFFFF"/>
				<stop  offset="1" style="stop-color:#000000"/>
			</linearGradient>
			<path style="fill:url(#SVGID_00000074440527788120718350000012828212546370321036_);" d="M326.616,410.832
				c0.191-0.173,0.363-0.329,0.501-0.453C326.968,410.514,326.8,410.666,326.616,410.832z"/>
			
				<linearGradient id="SVGID_00000025427866287825221030000012393925332895611791_" gradientUnits="userSpaceOnUse" x1="327.1171" y1="410.2737" x2="327.3506" y2="410.2737">
				<stop  offset="0" style="stop-color:#FFFFFF"/>
				<stop  offset="1" style="stop-color:#000000"/>
			</linearGradient>
			<path style="fill:url(#SVGID_00000025427866287825221030000012393925332895611791_);" d="M327.117,410.379
				c0.085-0.077,0.164-0.148,0.233-0.211C327.281,410.231,327.208,410.297,327.117,410.379z"/>
			
				<linearGradient id="SVGID_00000169516415272357677230000000085102162625001622_" gradientUnits="userSpaceOnUse" x1="327.395" y1="409.9924" x2="327.6946" y2="409.9924">
				<stop  offset="0" style="stop-color:#FFFFFF"/>
				<stop  offset="1" style="stop-color:#000000"/>
			</linearGradient>
			<path style="fill:url(#SVGID_00000169516415272357677230000000085102162625001622_);" d="M327.395,410.128
				c0.152-0.138,0.254-0.229,0.3-0.271C327.65,409.897,327.554,409.984,327.395,410.128z"/>
			
				<linearGradient id="SVGID_00000165233532299100672530000010363159275319773365_" gradientUnits="userSpaceOnUse" x1="327.3506" y1="410.1479" x2="327.395" y2="410.1479">
				<stop  offset="0" style="stop-color:#FFFFFF"/>
				<stop  offset="1" style="stop-color:#000000"/>
			</linearGradient>
			<path style="fill:url(#SVGID_00000165233532299100672530000010363159275319773365_);" d="M327.351,410.168
				c0.013-0.012,0.032-0.029,0.044-0.04C327.381,410.141,327.365,410.155,327.351,410.168z"/>
			
				<linearGradient id="SVGID_00000139287426931655709410000000417337194278653106_" gradientUnits="userSpaceOnUse" x1="675.4285" y1="502.3112" x2="675.494" y2="502.3112">
				<stop  offset="0" style="stop-color:#FFFFFF"/>
				<stop  offset="1" style="stop-color:#000000"/>
			</linearGradient>
			<path style="fill:url(#SVGID_00000139287426931655709410000000417337194278653106_);" d="M675.494,502.355
				C675.411,502.243,675.403,502.233,675.494,502.355L675.494,502.355z"/>
			
				<linearGradient id="SVGID_00000007409583364971148470000015440314305393841575_" gradientUnits="userSpaceOnUse" x1="675.8442" y1="502.9264" x2="675.9932" y2="502.9264">
				<stop  offset="0" style="stop-color:#FFFFFF"/>
				<stop  offset="1" style="stop-color:#000000"/>
			</linearGradient>
			<path style="fill:url(#SVGID_00000007409583364971148470000015440314305393841575_);" d="M675.993,503.026
				c-0.052-0.07-0.102-0.138-0.149-0.2C675.89,502.887,675.94,502.955,675.993,503.026z"/>
			
				<linearGradient id="SVGID_00000070826060518738687420000015090036488882994816_" gradientUnits="userSpaceOnUse" x1="675.494" y1="502.5909" x2="675.8442" y2="502.5909">
				<stop  offset="0" style="stop-color:#FFFFFF"/>
				<stop  offset="1" style="stop-color:#000000"/>
			</linearGradient>
			<path style="fill:url(#SVGID_00000070826060518738687420000015090036488882994816_);" d="M675.844,502.826
				c-0.173-0.232-0.286-0.385-0.35-0.471C675.565,502.451,675.686,502.613,675.844,502.826z"/>
			
				<linearGradient id="SVGID_00000032638028974813440670000005475472234050969020_" gradientUnits="userSpaceOnUse" x1="678.6391" y1="506.6565" x2="678.7467" y2="506.6565">
				<stop  offset="0" style="stop-color:#FFFFFF"/>
				<stop  offset="1" style="stop-color:#000000"/>
			</linearGradient>
			<path style="fill:url(#SVGID_00000032638028974813440670000005475472234050969020_);" d="M678.639,506.584
				c0.044,0.06,0.081,0.109,0.108,0.145C678.719,506.691,678.683,506.643,678.639,506.584z"/>
			
				<linearGradient id="SVGID_00000056415934465697767870000004468636314302510780_" gradientUnits="userSpaceOnUse" x1="678.7467" y1="506.773" x2="678.8124" y2="506.773">
				<stop  offset="0" style="stop-color:#FFFFFF"/>
				<stop  offset="1" style="stop-color:#000000"/>
			</linearGradient>
			<path style="fill:url(#SVGID_00000056415934465697767870000004468636314302510780_);" d="M678.747,506.729
				C678.83,506.841,678.838,506.852,678.747,506.729L678.747,506.729z"/>
			
				<linearGradient id="SVGID_00000001645669216487521200000010362466445506598322_" gradientUnits="userSpaceOnUse" x1="675.9932" y1="504.8052" x2="678.6391" y2="504.8052">
				<stop  offset="0" style="stop-color:#FFFFFF"/>
				<stop  offset="1" style="stop-color:#000000"/>
			</linearGradient>
			<path style="fill:url(#SVGID_00000001645669216487521200000010362466445506598322_);" d="M678.639,506.584
				c-0.229-0.309-0.698-0.938-1.518-2.042c-0.498-0.67-0.861-1.157-1.127-1.516C676.78,504.085,678.153,505.931,678.639,506.584z"/>
			
				<linearGradient id="SVGID_00000067954454012244822420000016414346187103250312_" gradientUnits="userSpaceOnUse" x1="692.9059" y1="532.05" x2="792.4994" y2="532.05">
				<stop  offset="0" style="stop-color:#FFFFFF"/>
				<stop  offset="1" style="stop-color:#000000"/>
			</linearGradient>
			<path style="fill:url(#SVGID_00000067954454012244822420000016414346187103250312_);" d="M792.499,444.103l-28.802-23.694
				c3.514-7.257,1.78-16.254-4.715-21.597c-7.614-6.263-18.905-5.165-25.169,2.449c-6.263,7.613-5.164,18.904,2.448,25.168
				c-0.111-0.091-0.222-0.182-0.331-0.273c0.11,0.091,0.211,0.173,0.333,0.273c0.563,0.463,0.988,0.813,1.319,1.085
				c-0.383-0.315-0.85-0.7-1.319-1.085c6.495,5.342,15.657,5.31,22.1,0.463l25.718,21.156l-0.896,158.295l-59.277,33.016
				c-5.47-5.923-14.478-7.598-21.826-3.505c0.707-0.394,1.409-0.785,1.887-1.051c-0.395,0.22-0.997,0.555-1.888,1.051
				c-0.142,0.079-0.259,0.144-0.388,0.216c0.128-0.071,0.258-0.144,0.388-0.216c-8.613,4.797-11.717,15.709-6.92,24.321
				c4.797,8.613,15.709,11.718,24.322,6.92c7.348-4.093,10.667-12.633,8.51-20.402l63.559-35.402L792.499,444.103z"/>
			
				<linearGradient id="SVGID_00000112619902028855154010000013427223232978022580_" gradientUnits="userSpaceOnUse" x1="735.5239" y1="425.9879" x2="735.9306" y2="425.9879">
				<stop  offset="0" style="stop-color:#FFFFFF"/>
				<stop  offset="1" style="stop-color:#000000"/>
			</linearGradient>
			<path style="fill:url(#SVGID_00000112619902028855154010000013427223232978022580_);" d="M735.931,426.155
				c-0.143-0.117-0.283-0.233-0.407-0.335C735.656,425.93,735.792,426.042,735.931,426.155z"/>
			
				<linearGradient id="SVGID_00000059989620184437321120000004162103753637156523_" gradientUnits="userSpaceOnUse" x1="734.6223" y1="425.4499" x2="735.5239" y2="425.4499">
				<stop  offset="0" style="stop-color:#FFFFFF"/>
				<stop  offset="1" style="stop-color:#000000"/>
			</linearGradient>
			<path style="fill:url(#SVGID_00000059989620184437321120000004162103753637156523_);" d="M735.524,425.821
				c-0.341-0.28-0.653-0.537-0.902-0.741C734.845,425.262,735.141,425.506,735.524,425.821z"/>
			
				<linearGradient id="SVGID_00000144301562789858226330000013530574503713778821_" gradientUnits="userSpaceOnUse" x1="738.0728" y1="428.0087" x2="738.2943" y2="428.0087">
				<stop  offset="0" style="stop-color:#FFFFFF"/>
				<stop  offset="1" style="stop-color:#000000"/>
			</linearGradient>
			<path style="fill:url(#SVGID_00000144301562789858226330000013530574503713778821_);" d="M738.073,427.918
				c0.091,0.074,0.164,0.135,0.221,0.182C738.234,428.051,738.16,427.989,738.073,427.918z"/>
			
				<linearGradient id="SVGID_00000064312418613902364930000013888530390332474770_" gradientUnits="userSpaceOnUse" x1="737.5825" y1="427.7159" x2="738.0728" y2="427.7159">
				<stop  offset="0" style="stop-color:#FFFFFF"/>
				<stop  offset="1" style="stop-color:#000000"/>
			</linearGradient>
			<path style="fill:url(#SVGID_00000064312418613902364930000013888530390332474770_);" d="M737.583,427.514
				c0.188,0.154,0.353,0.291,0.49,0.403C737.946,427.814,737.781,427.678,737.583,427.514z"/>
			
				<linearGradient id="SVGID_00000114757914853256950220000001210624678730498439_" gradientUnits="userSpaceOnUse" x1="734.1042" y1="424.866" x2="734.6223" y2="424.866">
				<stop  offset="0" style="stop-color:#FFFFFF"/>
				<stop  offset="1" style="stop-color:#000000"/>
			</linearGradient>
			<path style="fill:url(#SVGID_00000114757914853256950220000001210624678730498439_);" d="M734.622,425.079
				c-0.286-0.236-0.453-0.373-0.518-0.426C734.176,424.712,734.36,424.863,734.622,425.079z"/>
			
				<linearGradient id="SVGID_00000070086665022049391340000004938160125656446390_" gradientUnits="userSpaceOnUse" x1="738.2943" y1="428.1661" x2="738.4554" y2="428.1661">
				<stop  offset="0" style="stop-color:#FFFFFF"/>
				<stop  offset="1" style="stop-color:#000000"/>
			</linearGradient>
			<path style="fill:url(#SVGID_00000070086665022049391340000004938160125656446390_);" d="M738.294,428.1
				C738.495,428.265,738.523,428.288,738.294,428.1L738.294,428.1z"/>
			
				<linearGradient id="SVGID_00000159430082076415233360000013372619403867156666_" gradientUnits="userSpaceOnUse" x1="734.0717" y1="424.6395" x2="734.1042" y2="424.6395">
				<stop  offset="0" style="stop-color:#FFFFFF"/>
				<stop  offset="1" style="stop-color:#000000"/>
			</linearGradient>
			<path style="fill:url(#SVGID_00000159430082076415233360000013372619403867156666_);" d="M734.104,424.653
				C734.063,424.619,734.059,424.616,734.104,424.653L734.104,424.653z"/>
			
				<linearGradient id="SVGID_00000041291258734919536340000009624054198706012588_" gradientUnits="userSpaceOnUse" x1="704.2595" y1="634.5898" x2="704.4464" y2="634.5898">
				<stop  offset="0" style="stop-color:#FFFFFF"/>
				<stop  offset="1" style="stop-color:#000000"/>
			</linearGradient>
			<path style="fill:url(#SVGID_00000041291258734919536340000009624054198706012588_);" d="M704.26,634.642
				c0.076-0.042,0.138-0.077,0.187-0.104C704.4,634.563,704.336,634.599,704.26,634.642z"/>
			
				<linearGradient id="SVGID_00000114035963393239627480000015297746667938090942_" gradientUnits="userSpaceOnUse" x1="703.9702" y1="634.7224" x2="704.2595" y2="634.7224">
				<stop  offset="0" style="stop-color:#FFFFFF"/>
				<stop  offset="1" style="stop-color:#000000"/>
			</linearGradient>
			<path style="fill:url(#SVGID_00000114035963393239627480000015297746667938090942_);" d="M703.97,634.803
				c0.113-0.063,0.211-0.117,0.289-0.161C704.176,634.688,704.081,634.741,703.97,634.803z"/>
			
				<linearGradient id="SVGID_00000075856774188005227570000012720227754482482354_" gradientUnits="userSpaceOnUse" x1="704.4464" y1="634.5058" x2="704.561" y2="634.5058">
				<stop  offset="0" style="stop-color:#FFFFFF"/>
				<stop  offset="1" style="stop-color:#000000"/>
			</linearGradient>
			<path style="fill:url(#SVGID_00000075856774188005227570000012720227754482482354_);" d="M704.446,634.538
				C704.608,634.447,704.59,634.458,704.446,634.538L704.446,634.538z"/>
			
				<linearGradient id="SVGID_00000054944370824897637640000007388902666883982475_" gradientUnits="userSpaceOnUse" x1="699.6827" y1="637.0839" x2="700.067" y2="637.0839">
				<stop  offset="0" style="stop-color:#FFFFFF"/>
				<stop  offset="1" style="stop-color:#000000"/>
			</linearGradient>
			<path style="fill:url(#SVGID_00000054944370824897637640000007388902666883982475_);" d="M700.067,636.977
				c-0.188,0.105-0.313,0.174-0.384,0.214C699.762,637.147,699.894,637.073,700.067,636.977z"/>
			
				<linearGradient id="SVGID_00000129894594336745814940000007665424963218326438_" gradientUnits="userSpaceOnUse" x1="699.6052" y1="637.2124" x2="699.6827" y2="637.2124">
				<stop  offset="0" style="stop-color:#FFFFFF"/>
				<stop  offset="1" style="stop-color:#000000"/>
			</linearGradient>
			<path style="fill:url(#SVGID_00000129894594336745814940000007665424963218326438_);" d="M699.683,637.191
				C699.582,637.247,699.577,637.25,699.683,637.191L699.683,637.191z"/>
			
				<linearGradient id="SVGID_00000106108131655958018610000003207395009625867153_" gradientUnits="userSpaceOnUse" x1="700.067" y1="636.5237" x2="701.6948" y2="636.5237">
				<stop  offset="0" style="stop-color:#FFFFFF"/>
				<stop  offset="1" style="stop-color:#000000"/>
			</linearGradient>
			<path style="fill:url(#SVGID_00000106108131655958018610000003207395009625867153_);" d="M701.695,636.07
				c-0.637,0.354-1.233,0.687-1.628,0.907C700.397,636.793,700.927,636.498,701.695,636.07z"/>
			
				<linearGradient id="SVGID_00000096741955536265417230000009683778679267876770_" gradientUnits="userSpaceOnUse" x1="367.3287" y1="303.64" x2="367.5973" y2="303.64">
				<stop  offset="0" style="stop-color:#FFFFFF"/>
				<stop  offset="1" style="stop-color:#000000"/>
			</linearGradient>
			<path style="fill:url(#SVGID_00000096741955536265417230000009683778679267876770_);" d="M367.329,303.722
				C367.655,303.523,367.717,303.485,367.329,303.722L367.329,303.722z"/>
			
				<linearGradient id="SVGID_00000183941102995827113390000006040141851134128014_" gradientUnits="userSpaceOnUse" x1="363.3862" y1="305.4093" x2="365.7227" y2="305.4093">
				<stop  offset="0" style="stop-color:#FFFFFF"/>
				<stop  offset="1" style="stop-color:#000000"/>
			</linearGradient>
			<path style="fill:url(#SVGID_00000183941102995827113390000006040141851134128014_);" d="M365.723,304.699
				c-0.173,0.105-0.346,0.211-0.547,0.333c-0.826,0.502-1.402,0.853-1.79,1.089C363.981,305.758,364.896,305.202,365.723,304.699z"
				/>
			
				<linearGradient id="SVGID_00000115493153370455273090000004453369467100643978_" gradientUnits="userSpaceOnUse" x1="362.7535" y1="306.4801" x2="362.8349" y2="306.4801">
				<stop  offset="0" style="stop-color:#FFFFFF"/>
				<stop  offset="1" style="stop-color:#000000"/>
			</linearGradient>
			<path style="fill:url(#SVGID_00000115493153370455273090000004453369467100643978_);" d="M362.835,306.455
				C362.73,306.519,362.723,306.523,362.835,306.455L362.835,306.455z"/>
			
				<linearGradient id="SVGID_00000134210192687121083230000014252573518508620719_" gradientUnits="userSpaceOnUse" x1="363.018" y1="306.232" x2="363.3862" y2="306.232">
				<stop  offset="0" style="stop-color:#FFFFFF"/>
				<stop  offset="1" style="stop-color:#000000"/>
			</linearGradient>
			<path style="fill:url(#SVGID_00000134210192687121083230000014252573518508620719_);" d="M363.386,306.12
				c-0.147,0.089-0.267,0.162-0.368,0.224C363.113,306.286,363.231,306.214,363.386,306.12z"/>
			
				<linearGradient id="SVGID_00000003787295328863792140000001406070024256783288_" gradientUnits="userSpaceOnUse" x1="338.007" y1="274.5603" x2="609.2209" y2="274.5603">
				<stop  offset="0" style="stop-color:#FFFFFF"/>
				<stop  offset="1" style="stop-color:#000000"/>
			</linearGradient>
			<path style="fill:url(#SVGID_00000003787295328863792140000001406070024256783288_);" d="M365.176,305.031
				c7.186-4.371,10.175-13.033,7.722-20.714l56.483-34.359l96.832,3.019l47.872,26.04c-2.079,7.79,1.325,16.298,8.714,20.316
				c8.661,4.711,19.541,1.497,24.252-7.163c4.711-8.66,1.497-19.541-7.164-24.251c-7.388-4.019-16.379-2.254-21.79,3.724
				l-49.626-26.994L427.15,241.49l-58.615,35.656c-5.693-5.71-14.759-7.038-21.945-2.667c-8.423,5.124-11.107,16.147-5.984,24.569
				C345.73,307.47,356.753,310.155,365.176,305.031z"/>
			
				<linearGradient id="SVGID_00000085959677893762190840000002927391809956412596_" gradientUnits="userSpaceOnUse" x1="362.8349" y1="306.3996" x2="363.018" y2="306.3996">
				<stop  offset="0" style="stop-color:#FFFFFF"/>
				<stop  offset="1" style="stop-color:#000000"/>
			</linearGradient>
			<path style="fill:url(#SVGID_00000085959677893762190840000002927391809956412596_);" d="M363.018,306.344
				c-0.08,0.049-0.141,0.086-0.183,0.111C362.88,306.428,362.942,306.39,363.018,306.344z"/>
			
				<linearGradient id="SVGID_00000150806661536606696590000009599501132217945279_" gradientUnits="userSpaceOnUse" x1="366.8539" y1="303.8661" x2="367.3287" y2="303.8661">
				<stop  offset="0" style="stop-color:#FFFFFF"/>
				<stop  offset="1" style="stop-color:#000000"/>
			</linearGradient>
			<path style="fill:url(#SVGID_00000150806661536606696590000009599501132217945279_);" d="M366.854,304.01
				c0.205-0.124,0.358-0.218,0.475-0.289C367.204,303.798,367.043,303.895,366.854,304.01z"/>
			
				<linearGradient id="SVGID_00000047030426866849545850000015743121534965591982_" gradientUnits="userSpaceOnUse" x1="365.7227" y1="304.5723" x2="366.1381" y2="304.5723">
				<stop  offset="0" style="stop-color:#FFFFFF"/>
				<stop  offset="1" style="stop-color:#000000"/>
			</linearGradient>
			<path style="fill:url(#SVGID_00000047030426866849545850000015743121534965591982_);" d="M365.723,304.699
				c0.15-0.091,0.286-0.174,0.415-0.253C366.003,304.528,365.865,304.612,365.723,304.699z"/>
			
				<linearGradient id="SVGID_00000129921146700914112480000016587604319506905277_" gradientUnits="userSpaceOnUse" x1="366.1381" y1="304.2281" x2="366.8539" y2="304.2281">
				<stop  offset="0" style="stop-color:#FFFFFF"/>
				<stop  offset="1" style="stop-color:#000000"/>
			</linearGradient>
			<path style="fill:url(#SVGID_00000129921146700914112480000016587604319506905277_);" d="M366.138,304.446
				c0.262-0.16,0.505-0.307,0.716-0.436C366.661,304.128,366.418,304.276,366.138,304.446z"/>
			
				<linearGradient id="SVGID_00000016045392247447504810000001650578329022389376_" gradientUnits="userSpaceOnUse" x1="580.3069" y1="297.9891" x2="580.3476" y2="297.9891">
				<stop  offset="0" style="stop-color:#FFFFFF"/>
				<stop  offset="1" style="stop-color:#000000"/>
			</linearGradient>
			<path style="fill:url(#SVGID_00000016045392247447504810000001650578329022389376_);" d="M580.348,298
				C580.291,297.97,580.295,297.972,580.348,298L580.348,298z"/>
			
				<linearGradient id="SVGID_00000003087893613999782700000005452982365943643559_" gradientUnits="userSpaceOnUse" x1="584.8122" y1="300.5584" x2="585.2895" y2="300.5584">
				<stop  offset="0" style="stop-color:#FFFFFF"/>
				<stop  offset="1" style="stop-color:#000000"/>
			</linearGradient>
			<path style="fill:url(#SVGID_00000003087893613999782700000005452982365943643559_);" d="M584.812,300.429
				C585.522,300.815,585.371,300.733,584.812,300.429L584.812,300.429z"/>
			
				<linearGradient id="SVGID_00000137110412922908678420000000814874808200753597_" gradientUnits="userSpaceOnUse" x1="580.5525" y1="299.2701" x2="584.8122" y2="299.2701">
				<stop  offset="0" style="stop-color:#FFFFFF"/>
				<stop  offset="1" style="stop-color:#000000"/>
			</linearGradient>
			<path style="fill:url(#SVGID_00000137110412922908678420000000814874808200753597_);" d="M584.812,300.429
				c-0.389-0.212-1.025-0.558-2.013-1.095c-1.222-0.665-1.913-1.041-2.247-1.222C581.337,298.538,583.768,299.861,584.812,300.429z"
				/>
			
				<linearGradient id="SVGID_00000007410142699520131250000002572681009156688804_" gradientUnits="userSpaceOnUse" x1="580.3476" y1="298.0559" x2="580.5525" y2="298.0559">
				<stop  offset="0" style="stop-color:#FFFFFF"/>
				<stop  offset="1" style="stop-color:#000000"/>
			</linearGradient>
			<path style="fill:url(#SVGID_00000007410142699520131250000002572681009156688804_);" d="M580.552,298.112
				c-0.095-0.052-0.164-0.089-0.205-0.111C580.385,298.021,580.457,298.06,580.552,298.112z"/>
			
				<linearGradient id="SVGID_00000148634189898532145610000012326774295691507871_" gradientUnits="userSpaceOnUse" x1="829.3998" y1="530.1352" x2="865.1612" y2="530.1352">
				<stop  offset="0" style="stop-color:#FFFFFF"/>
				<stop  offset="1" style="stop-color:#000000"/>
			</linearGradient>
			<path style="fill:url(#SVGID_00000148634189898532145610000012326774295691507871_);" d="M847.281,593.22
				c9.859,0,17.881-8.022,17.881-17.881c0-8.411-5.846-15.466-13.683-17.362v-55.684c7.836-1.897,13.683-8.952,13.683-17.362
				c0-9.859-8.022-17.881-17.881-17.881c-9.859,0-17.881,8.022-17.881,17.881c0,8.411,5.846,15.466,13.683,17.362v55.683
				c-7.837,1.897-13.683,8.952-13.683,17.362C829.4,585.198,837.422,593.22,847.281,593.22z"/>
		</g>
		<g>
			<path style="fill:#3ecf8e;" d="M814.964,388.627c4.014-6.993,2.915-16.089-3.189-21.874c-7.156-6.782-18.497-6.478-25.278,0.678
				c-6.782,7.155-6.478,18.496,0.678,25.278c6.105,5.786,15.247,6.395,22.014,2.012l88.896,84.251v92.279l-66.726,126.786
				l-173.668,75.349v214.678c-7.836,1.897-13.682,8.952-13.682,17.362c0,9.859,8.022,17.881,17.881,17.881
				c9.859,0,17.881-8.022,17.881-17.881c0-8.411-5.846-15.466-13.683-17.362v-209.17l171.325-74.333l68.584-130.319l0.484-0.918
				v-97.963L814.964,388.627z"/>
			<path style="fill:#FFFFFF;" d="M810.106,365.171c0.321,0.304,0.848,0.804,1.669,1.581c0.207,0.196,0.392,0.371,0.564,0.535
				C811.537,366.527,810.618,365.656,810.106,365.171z"/>
			<path style="fill:#FFFFFF;" d="M810.106,365.171c-0.102-0.096-0.186-0.176-0.246-0.233
				C809.923,364.999,810.008,365.078,810.106,365.171z"/>
			<path style="fill:#FFFFFF;" d="M812.338,367.287c0.052,0.049,0.104,0.098,0.154,0.146
				C812.441,367.384,812.393,367.34,812.338,367.287z"/>
			<path style="fill:#FFFFFF;" d="M809.859,364.938C809.678,364.766,809.652,364.741,809.859,364.938L809.859,364.938z"/>
			<path style="fill:#FFFFFF;" d="M812.493,367.434c0.831,0.788,1.232,1.168,1.324,1.255
				C813.722,368.598,813.169,368.075,812.493,367.434z"/>
			<path style="fill:#FFFFFF;" d="M813.817,368.689C813.838,368.709,813.845,368.715,813.817,368.689L813.817,368.689z"/>
			<path style="fill:#FFFFFF;" d="M711.844,799.768c-9.859,0-17.881,8.022-17.881,17.881c0,8.41,5.846,15.465,13.682,17.362v79.741
				c-7.836,1.897-13.682,8.952-13.682,17.362c0,9.859,8.022,17.881,17.881,17.881c9.858,0,17.881-8.022,17.881-17.881
				c0-8.41-5.846-15.466-13.683-17.362v-79.74c7.837-1.896,13.683-8.951,13.683-17.362
				C729.725,807.79,721.703,799.768,711.844,799.768z"/>
			<path style="fill:#FFFFFF;" d="M881.28,392.704c0.002,0.031,0.005,0.061,0.007,0.088
				C881.285,392.767,881.282,392.733,881.28,392.704z"/>
			<path style="fill:#FFFFFF;" d="M881.259,392.436c0.008,0.106,0.015,0.196,0.021,0.269
				C881.274,392.628,881.267,392.538,881.259,392.436z"/>
			<path style="fill:#FFFFFF;" d="M880.945,388.383c-0.007-0.085-0.013-0.165-0.019-0.24
				C880.932,388.218,880.938,388.294,880.945,388.383z"/>
			<path style="fill:#FFFFFF;" d="M881.287,392.792C881.308,393.062,881.305,393.027,881.287,392.792L881.287,392.792z"/>
			<path style="fill:#FFFFFF;" d="M881.229,392.041c0.011,0.145,0.021,0.277,0.031,0.394
				C881.25,392.324,881.24,392.193,881.229,392.041z"/>
			<path style="fill:#FFFFFF;" d="M880.895,387.738C880.872,387.437,880.875,387.474,880.895,387.738L880.895,387.738z"/>
			<path style="fill:#FFFFFF;" d="M880.927,388.143c-0.013-0.167-0.023-0.301-0.031-0.397
				C880.904,387.848,880.914,387.987,880.927,388.143z"/>
			<path style="fill:#FFFFFF;" d="M880.896,387.747c0-0.003,0-0.006,0-0.008C880.895,387.741,880.896,387.744,880.896,387.747z"/>
			<path style="fill:#FFFFFF;" d="M881.167,391.239c0.024,0.315,0.045,0.58,0.062,0.802
				C881.21,391.801,881.189,391.53,881.167,391.239z"/>
			<path style="fill:#FFFFFF;" d="M645.56,292.547c8.104,0,14.902-5.633,16.73-13.184h107.225l85.327,47.476l3.747,48.378
				c-7.388,2.405-12.479,9.618-11.854,17.698c0.734,9.471,9.037,16.581,18.508,15.847c9.471-0.733,16.58-9.037,15.847-18.508
				c0.026,0.336,0.052,0.669,0.076,0.985c-0.023-0.291-0.047-0.608-0.076-0.985c-0.065-0.835-0.112-1.438-0.145-1.871
				c0.039,0.512,0.092,1.188,0.145,1.871c-0.626-8.08-6.767-14.423-14.437-15.661l-4.083-52.709l-90.958-50.61H662.29
				c-1.827-7.551-8.625-13.184-16.73-13.184c-9.5,0-17.229,7.73-17.229,17.229C628.331,284.817,636.06,292.547,645.56,292.547z"/>
			<path style="fill:#FFFFFF;" d="M248.083,354.489c-0.242,0.172-0.46,0.327-0.654,0.464
				C247.639,354.805,247.858,354.649,248.083,354.489z"/>
			<path style="fill:#FFFFFF;" d="M246.711,355.463c-0.084,0.06-0.148,0.105-0.214,0.152
				C246.564,355.568,246.634,355.518,246.711,355.463z"/>
			<path style="fill:#FFFFFF;" d="M248.872,353.929c0.44-0.313,0.855-0.607,1.177-0.836
				C249.769,353.293,249.375,353.572,248.872,353.929z"/>
			<path style="fill:#FFFFFF;" d="M247.43,354.953c-0.265,0.188-0.51,0.362-0.718,0.51
				C246.9,355.329,247.148,355.153,247.43,354.953z"/>
			<path style="fill:#FFFFFF;" d="M246.497,355.615C245.983,355.98,245.845,356.078,246.497,355.615L246.497,355.615z"/>
			<path style="fill:#FFFFFF;" d="M248.083,354.489c0.097-0.069,0.181-0.128,0.286-0.203c0.184-0.131,0.343-0.243,0.503-0.357
				C248.613,354.113,248.347,354.302,248.083,354.489z"/>
			<path style="fill:#FFFFFF;" d="M250.633,352.68C250.703,352.63,250.703,352.63,250.633,352.68L250.633,352.68z"/>
			<path style="fill:#FFFFFF;" d="M250.05,353.094c0.225-0.159,0.382-0.271,0.485-0.344
				C250.423,352.829,250.258,352.946,250.05,353.094z"/>
			<path style="fill:#FFFFFF;" d="M250.535,352.75c0.037-0.027,0.074-0.052,0.098-0.069
				C250.608,352.698,250.579,352.718,250.535,352.75z"/>
			<path style="fill:#FFFFFF;" d="M586.835,871.738c-0.002-0.111-0.003-0.219-0.005-0.326
				C586.831,871.516,586.833,871.624,586.835,871.738z"/>
			<path style="fill:#FFFFFF;" d="M586.812,870.187C586.798,869.281,586.801,869.484,586.812,870.187L586.812,870.187z"/>
			<path style="fill:#FFFFFF;" d="M586.83,871.412c-0.004-0.286-0.008-0.53-0.011-0.742
				C586.822,870.896,586.826,871.148,586.83,871.412z"/>
			<path style="fill:#FFFFFF;" d="M586.819,870.67c-0.003-0.18-0.005-0.339-0.007-0.483
				C586.814,870.322,586.816,870.483,586.819,870.67z"/>
			<path style="fill:#FFFFFF;" d="M608.664,854.729l-2.719-184.734l-105.989-1.733l-78.973-72.408H221.952l-50.278-32.244
				l-0.754-127.295l76.067-53.977c6.082,5.294,15.219,5.979,22.078,1.111c8.04-5.705,9.94-16.89,4.235-24.93
				c-5.705-8.04-16.89-9.94-24.93-4.234c-6.859,4.867-9.229,13.718-6.241,21.206L162.5,431.997l0.806,136.22l56.186,36.032h198.225
				l78.914,72.355l101.04,1.652l2.599,176.597c-7.808,2.011-13.55,9.152-13.426,17.562c0.145,9.858,8.284,17.761,18.142,17.616
				c9.857-0.145,17.761-8.284,17.616-18.142C622.478,863.478,616.529,856.51,608.664,854.729z"/>
			<path style="fill:#FFFFFF;" d="M586.883,875.018c-0.005-0.36-0.017-1.156-0.038-2.603c-0.004-0.248-0.007-0.465-0.01-0.676
				C586.853,873.003,586.875,874.453,586.883,875.018z"/>
			<path style="fill:#FFFFFF;" d="M586.883,875.018C586.888,875.351,586.887,875.309,586.883,875.018L586.883,875.018z"/>
			<path style="fill:#FFFFFF;" d="M264.046,527.049C264.011,527.049,264.003,527.049,264.046,527.049L264.046,527.049z"/>
			<path style="fill:#FFFFFF;" d="M269.085,527.007c0.317-0.003,0.511-0.004,0.58-0.005
				C269.596,527.003,269.388,527.005,269.085,527.007z"/>
			<path style="fill:#FFFFFF;" d="M266.879,527.026c0.837-0.007,1.664-0.014,2.206-0.018
				C268.64,527.011,267.939,527.017,266.879,527.026z"/>
			<path style="fill:#FFFFFF;" d="M269.665,527.002C269.7,527.002,269.708,527.002,269.665,527.002L269.665,527.002z"/>
			<path style="fill:#FFFFFF;" d="M266.557,491.266c-9.858,0.082-17.813,8.171-17.731,18.029c0.082,9.858,8.171,17.813,18.03,17.731
				c-0.85,0.007-1.694,0.014-2.24,0.018c0.448-0.004,1.157-0.01,2.24-0.018c0.009,0,0.015,0,0.023,0c-0.008,0-0.016,0-0.023,0
				c8.41-0.07,15.416-5.975,17.247-13.828l174.663-1.458l59.288,66.251c-4.575,6.639-4.227,15.795,1.382,22.063
				c-0.139-0.155-0.276-0.309-0.412-0.461c0.131,0.146,0.261,0.292,0.412,0.461c0.077,0.086,0.138,0.154,0.209,0.234
				c-0.07-0.078-0.139-0.155-0.209-0.233c6.574,7.346,17.902,7.975,25.249,1.4c7.346-6.574,7.975-17.902,1.4-25.248
				c-5.608-6.268-14.67-7.626-21.775-3.813l-61.819-69.079l-178.457,1.49C282.071,496.983,274.967,491.195,266.557,491.266z"/>
			<path style="fill:#FFFFFF;" d="M264.615,527.044c-0.31,0.003-0.5,0.004-0.569,0.005
				C264.115,527.049,264.318,527.047,264.615,527.044z"/>
			<path style="fill:#FFFFFF;" d="M517.828,598.259c-0.109-0.122-0.194-0.216-0.242-0.271
				C517.63,598.037,517.704,598.121,517.828,598.259z"/>
			<path style="fill:#FFFFFF;" d="M517.586,597.988C517.527,597.922,517.526,597.922,517.586,597.988L517.586,597.988z"/>
			<path style="fill:#FFFFFF;" d="M519.022,599.594c-0.572-0.639-0.963-1.076-1.194-1.335
				C518.103,598.566,518.544,599.059,519.022,599.594z"/>
			<path style="fill:#FFFFFF;" d="M521.087,601.901c0.078,0.087,0.143,0.159,0.184,0.205
				C521.232,602.063,521.173,601.997,521.087,601.901z"/>
			<path style="fill:#FFFFFF;" d="M519.847,600.515c0.095,0.107,0.186,0.208,0.271,0.303
				C520.029,600.718,519.939,600.618,519.847,600.515z"/>
			<path style="fill:#FFFFFF;" d="M520.656,601.419c0.182,0.203,0.327,0.366,0.431,0.482
				C520.974,601.774,520.828,601.611,520.656,601.419z"/>
			<path style="fill:#FFFFFF;" d="M520.117,600.817c0.194,0.217,0.376,0.42,0.539,0.602
				C520.505,601.251,520.328,601.052,520.117,600.817z"/>
			<path style="fill:#FFFFFF;" d="M521.271,602.106c0.006,0.007,0.014,0.016,0.019,0.021
				C521.284,602.121,521.278,602.114,521.271,602.106z"/>
			<path style="fill:#FFFFFF;" d="M521.29,602.127C521.339,602.183,521.341,602.184,521.29,602.127L521.29,602.127z"/>
			<path style="fill:#FFFFFF;" d="M519.644,600.288c0.068,0.076,0.135,0.151,0.203,0.227
				C519.782,600.443,519.713,600.365,519.644,600.288z"/>
			<path style="fill:#FFFFFF;" d="M649.31,638.177c0-8.411-5.846-15.466-13.683-17.362v-74.182l-90.29-125.324H426.228
				c-1.897-7.837-8.952-13.683-17.362-13.683c-9.859,0-17.881,8.022-17.881,17.881c0,9.859,8.022,17.881,17.881,17.881
				c8.411,0,15.466-5.847,17.362-13.684h114.809l86.193,119.639v71.473c-7.836,1.897-13.682,8.952-13.682,17.362
				c0,9.859,8.022,17.881,17.881,17.881C641.287,656.058,649.31,648.036,649.31,638.177z"/>
			<path style="fill:#FFFFFF;" d="M319.555,417.602C319.498,417.654,319.499,417.652,319.555,417.602L319.555,417.602z"/>
			<path style="fill:#FFFFFF;" d="M319.568,417.591c-0.005,0.005-0.008,0.007-0.012,0.011
				C319.559,417.599,319.564,417.594,319.568,417.591z"/>
			<path style="fill:#FFFFFF;" d="M321.617,415.736c6.237-5.642,7.547-14.711,3.696-21.795l71.65-64.819l161.621,2.491
				l115.155,154.831c-5.157,6.198-5.638,15.349-0.618,22.098c5.883,7.911,17.108,9.56,25.018,3.677
				c7.911-5.883,9.56-17.108,3.677-25.019c-5.02-6.749-13.921-8.921-21.342-5.766L562.851,323.283l-169.066-2.605l-74.103,67.038
				c-6.664-4.539-15.818-4.141-22.055,1.501c-7.311,6.614-7.878,17.945-1.264,25.255
				C302.975,421.783,314.306,422.35,321.617,415.736z"/>
			<path style="fill:#FFFFFF;" d="M322.616,414.832c-0.276,0.25-0.599,0.542-0.999,0.904c-0.533,0.482-0.938,0.848-1.255,1.135
				C321.013,416.283,321.91,415.471,322.616,414.832z"/>
			<path style="fill:#FFFFFF;" d="M320.363,416.871c-0.065,0.059-0.124,0.112-0.184,0.166
				C320.235,416.986,320.299,416.929,320.363,416.871z"/>
			<path style="fill:#FFFFFF;" d="M320.179,417.037c-0.334,0.302-0.527,0.477-0.612,0.553
				C319.667,417.5,319.89,417.299,320.179,417.037z"/>
			<path style="fill:#FFFFFF;" d="M323.695,413.857C323.733,413.822,323.728,413.827,323.695,413.857L323.695,413.857z"/>
			<path style="fill:#FFFFFF;" d="M322.616,414.832c0.191-0.173,0.363-0.329,0.501-0.453
				C322.968,414.514,322.8,414.666,322.616,414.832z"/>
			<path style="fill:#FFFFFF;" d="M323.117,414.379c0.085-0.077,0.164-0.148,0.233-0.211
				C323.281,414.231,323.208,414.297,323.117,414.379z"/>
			<path style="fill:#FFFFFF;" d="M323.395,414.128c0.152-0.138,0.254-0.229,0.3-0.271
				C323.65,413.897,323.554,413.984,323.395,414.128z"/>
			<path style="fill:#FFFFFF;" d="M323.351,414.168c0.013-0.012,0.032-0.029,0.044-0.04
				C323.381,414.141,323.365,414.155,323.351,414.168z"/>
			<path style="fill:#FFFFFF;" d="M671.494,506.355C671.411,506.243,671.403,506.233,671.494,506.355L671.494,506.355z"/>
			<path style="fill:#FFFFFF;" d="M671.993,507.026c-0.052-0.07-0.102-0.138-0.149-0.2
				C671.89,506.887,671.94,506.955,671.993,507.026z"/>
			<path style="fill:#FFFFFF;" d="M671.844,506.826c-0.173-0.232-0.286-0.385-0.35-0.471
				C671.565,506.451,671.686,506.613,671.844,506.826z"/>
			<path style="fill:#FFFFFF;" d="M674.639,510.584c0.044,0.06,0.081,0.109,0.108,0.145
				C674.719,510.691,674.683,510.643,674.639,510.584z"/>
			<path style="fill:#FFFFFF;" d="M674.747,510.729C674.83,510.841,674.838,510.852,674.747,510.729L674.747,510.729z"/>
			<path style="fill:#FFFFFF;" d="M674.639,510.584c-0.229-0.309-0.698-0.938-1.518-2.042c-0.498-0.67-0.861-1.157-1.127-1.516
				C672.78,508.085,674.153,509.931,674.639,510.584z"/>
			<path style="fill:#FFFFFF;" d="M788.499,448.103l-28.802-23.694c3.514-7.257,1.78-16.254-4.715-21.597
				c-7.614-6.263-18.905-5.165-25.169,2.449c-6.263,7.613-5.164,18.904,2.448,25.168c-0.111-0.091-0.222-0.182-0.331-0.273
				c0.11,0.091,0.211,0.173,0.333,0.273c0.563,0.463,0.988,0.813,1.319,1.085c-0.383-0.315-0.85-0.7-1.319-1.085
				c6.495,5.342,15.657,5.31,22.1,0.463l25.718,21.156l-0.896,158.295l-59.277,33.016c-5.47-5.923-14.478-7.598-21.826-3.505
				c0.707-0.394,1.409-0.785,1.887-1.051c-0.395,0.22-0.997,0.555-1.888,1.051c-0.142,0.079-0.259,0.144-0.388,0.216
				c0.128-0.071,0.258-0.144,0.388-0.216c-8.613,4.797-11.717,15.709-6.92,24.321c4.797,8.613,15.709,11.718,24.322,6.92
				c7.348-4.093,10.667-12.633,8.51-20.402l63.559-35.402L788.499,448.103z"/>
			<path style="fill:#FFFFFF;" d="M731.931,430.155c-0.143-0.117-0.283-0.233-0.407-0.335
				C731.656,429.93,731.792,430.042,731.931,430.155z"/>
			<path style="fill:#FFFFFF;" d="M731.524,429.821c-0.341-0.28-0.653-0.537-0.902-0.741
				C730.845,429.262,731.141,429.506,731.524,429.821z"/>
			<path style="fill:#FFFFFF;" d="M734.073,431.918c0.091,0.074,0.164,0.135,0.221,0.182
				C734.234,432.051,734.16,431.989,734.073,431.918z"/>
			<path style="fill:#FFFFFF;" d="M733.583,431.514c0.188,0.154,0.353,0.291,0.49,0.403
				C733.946,431.814,733.781,431.678,733.583,431.514z"/>
			<path style="fill:#FFFFFF;" d="M730.622,429.079c-0.286-0.236-0.453-0.373-0.518-0.426
				C730.176,428.712,730.36,428.863,730.622,429.079z"/>
			<path style="fill:#FFFFFF;" d="M734.294,432.1C734.495,432.265,734.523,432.288,734.294,432.1L734.294,432.1z"/>
			<path style="fill:#FFFFFF;" d="M730.104,428.653C730.063,428.619,730.059,428.616,730.104,428.653L730.104,428.653z"/>
			<path style="fill:#FFFFFF;" d="M700.26,638.642c0.076-0.042,0.138-0.077,0.187-0.104
				C700.4,638.563,700.336,638.599,700.26,638.642z"/>
			<path style="fill:#FFFFFF;" d="M699.97,638.803c0.113-0.063,0.211-0.117,0.289-0.161
				C700.176,638.688,700.081,638.741,699.97,638.803z"/>
			<path style="fill:#FFFFFF;" d="M700.446,638.538C700.608,638.447,700.59,638.458,700.446,638.538L700.446,638.538z"/>
			<path style="fill:#FFFFFF;" d="M696.067,640.977c-0.188,0.105-0.313,0.174-0.384,0.214
				C695.762,641.147,695.894,641.073,696.067,640.977z"/>
			<path style="fill:#FFFFFF;" d="M695.683,641.191C695.582,641.247,695.577,641.25,695.683,641.191L695.683,641.191z"/>
			<path style="fill:#FFFFFF;" d="M697.695,640.07c-0.637,0.354-1.233,0.687-1.628,0.907
				C696.397,640.793,696.927,640.498,697.695,640.07z"/>
			<path style="fill:#FFFFFF;" d="M363.329,307.722C363.655,307.523,363.717,307.485,363.329,307.722L363.329,307.722z"/>
			<path style="fill:#FFFFFF;" d="M361.723,308.699c-0.173,0.105-0.346,0.211-0.547,0.333c-0.826,0.502-1.402,0.853-1.79,1.089
				C359.981,309.758,360.896,309.202,361.723,308.699z"/>
			<path style="fill:#FFFFFF;" d="M358.835,310.455C358.73,310.519,358.723,310.523,358.835,310.455L358.835,310.455z"/>
			<path style="fill:#FFFFFF;" d="M359.386,310.12c-0.147,0.089-0.267,0.162-0.368,0.224
				C359.113,310.286,359.231,310.214,359.386,310.12z"/>
			<path style="fill:#FFFFFF;" d="M361.176,309.031c7.186-4.371,10.175-13.033,7.722-20.714l56.483-34.359l96.832,3.019
				l47.872,26.04c-2.079,7.79,1.325,16.298,8.714,20.316c8.661,4.711,19.541,1.497,24.252-7.163
				c4.711-8.66,1.497-19.541-7.164-24.251c-7.388-4.019-16.379-2.254-21.79,3.724l-49.626-26.994L423.15,245.49l-58.615,35.656
				c-5.693-5.71-14.759-7.038-21.945-2.667c-8.423,5.124-11.107,16.147-5.984,24.569C341.73,311.47,352.753,314.155,361.176,309.031
				z"/>
			<path style="fill:#FFFFFF;" d="M359.018,310.344c-0.08,0.049-0.141,0.086-0.183,0.111
				C358.88,310.428,358.942,310.39,359.018,310.344z"/>
			<path style="fill:#FFFFFF;" d="M362.854,308.01c0.205-0.124,0.358-0.218,0.475-0.289
				C363.204,307.798,363.043,307.895,362.854,308.01z"/>
			<path style="fill:#FFFFFF;" d="M361.723,308.699c0.15-0.091,0.286-0.174,0.415-0.253
				C362.003,308.528,361.865,308.612,361.723,308.699z"/>
			<path style="fill:#FFFFFF;" d="M362.138,308.446c0.262-0.16,0.505-0.307,0.716-0.436
				C362.661,308.128,362.418,308.276,362.138,308.446z"/>
			<path style="fill:#FFFFFF;" d="M576.348,302C576.291,301.97,576.295,301.972,576.348,302L576.348,302z"/>
			<path style="fill:#FFFFFF;" d="M580.812,304.429C581.522,304.815,581.371,304.733,580.812,304.429L580.812,304.429z"/>
			<path style="fill:#FFFFFF;" d="M580.812,304.429c-0.389-0.212-1.025-0.558-2.013-1.095c-1.222-0.665-1.913-1.041-2.247-1.222
				C577.337,302.538,579.768,303.861,580.812,304.429z"/>
			<path style="fill:#FFFFFF;" d="M576.552,302.112c-0.095-0.052-0.164-0.089-0.205-0.111
				C576.385,302.021,576.457,302.06,576.552,302.112z"/>
			<path style="fill:#FFFFFF;" d="M843.281,597.22c9.859,0,17.881-8.022,17.881-17.881c0-8.411-5.846-15.466-13.683-17.362v-55.684
				c7.836-1.897,13.683-8.952,13.683-17.362c0-9.859-8.022-17.881-17.881-17.881c-9.859,0-17.881,8.022-17.881,17.881
				c0,8.411,5.846,15.466,13.683,17.362v55.683c-7.837,1.897-13.683,8.952-13.683,17.362
				C825.4,589.198,833.422,597.22,843.281,597.22z"/>
		</g>
	</g>
</g>
</svg>
