<svg xmlns="http://www.w3.org/2000/svg" xmlns:xml="http://www.w3.org/XML/1998/namespace" xml:space="preserve" baseProfile="tiny" font-size="0" preserveAspectRatio="xMidYMid" viewBox="0 0 1000 337.4"><g xml:space="preserve"><path xml:space="preserve" fill="#00539f" d="m264.9 180.4-99.2.1-81.2 79.8c92.5 33.6 160.8-25.8 180.4-79.9zM14.6 196C-19.9 122.4 16.9 66.4 38 45.4 50.7 33.6 109.6-21 195.8 18.3L14.6 196zm53.2 56C51 241.8 35 228.9 22.1 209l98.3-96.5 90-.2L67.8 252z"/><path xml:space="preserve" d="m295.9 265.3 28.4-150.9h86.6c-1 2.2-2.2 5.6-3.7 10 0 2.2-.1 5.2-.3 9.1-15.1-1.9-29.8-2.9-44-2.9h-7.5l-8.9 47.3h29.4c8.9 0 16.3-.7 22.1-2-.7 2.2-1.3 4.2-1.9 6-.6 1.7-1 3.2-1.4 4.4 0 2.9-.1 5.9-.4 9.1-6.9-1.5-15.9-2.2-26.9-2.2h-23.7l-10.6 56.1c17.8 0 35.5-1 53-3.1-1.6 4.1-2.9 7.6-3.8 10.4.1 2.5 0 5.4-.2 8.7h-86.2zm132.1.8c1.9-.1 4.6-.3 8.1-.4 3.5-.1 6.1-.3 7.9-.4 2 .1 4.9.3 8.7.4 3.8.1 6.7.3 8.7.4l25.6-136c8.4 0 21.8 1.1 40 3.4.1-2.2.2-5.1.3-8.7 1.2-3.5 2.3-7 3.3-10.4H414.2c-.2 1.4-.4 3.2-.7 5.5-.2 2.3-.4 3.9-.6 4.9-.2.8-.5 2.2-1.1 4-.5 1.8-.9 3.4-1.3 4.7 13.4-2.2 27.7-3.4 42.9-3.4l-25.4 136zm86.8-.8 28.4-150.9h86.6c-1 2.2-2.2 5.6-3.7 10 0 2.2-.1 5.2-.3 9.1-15.1-1.9-29.8-2.9-44-2.9h-7.5l-8.9 47.3h29.4c8.9 0 16.3-.7 22.1-2-.7 2.2-1.3 4.2-1.9 6-.6 1.7-1 3.2-1.4 4.4 0 2.9-.1 5.9-.4 9.1-6.9-1.5-15.9-2.2-26.9-2.2h-23.7L552 249.3c17.8 0 35.5-1 53-3.1-1.6 4.1-2.9 7.6-3.8 10.4.1 2.5 0 5.4-.2 8.7h-86.2zm104.2-70c-1.8 9.8-1.7 19.1.5 28.1s6.3 16.9 12.4 23.8c6.1 6.9 14.1 12.3 24 16.2 9.9 3.9 21.4 5.9 34.5 5.9 18.3 0 33.9-3.2 46.6-9.5l8.8-19.1-3-1.3c-5.9 5-13 9-21.1 12-8.1 2.9-15.5 4.4-22 4.4-11.7 0-21.2-2.8-28.4-8.3-7.2-5.5-11.9-13.1-14.1-22.7-2.3-9.6-2.3-20.6.1-33 2.6-13.9 7.2-26 13.8-36.3 6.5-10.3 14.4-18.1 23.5-23.5 9.1-5.4 18.7-8.1 28.7-8.1 7 0 13.4 1.7 19.3 5.1 5.9 3.4 10.7 8.5 14.4 15.2h2.9c3.7-9.2 6.9-16.8 9.7-22.8-3.3-2.5-9.1-4.9-17.2-7.3-8.2-2.4-17.8-3.6-28.9-3.6-12.3 0-25.5 2.3-39.5 6.8-14.1 4.5-27.3 13.1-39.6 25.7-12.6 12.7-21 30.2-25.4 52.3zm144.4 36.3h4.5c.4 7 2.8 12.8 7.1 17.2 4.3 4.4 10.9 6.7 19.8 6.9 7.4 0 14-2.1 19.7-6.3 5.8-4.2 9.3-9.7 10.6-16.5 1.2-6.2-.1-11.5-3.6-16-3.6-4.5-10.4-9-20.5-13.4-7.7-3.6-13.9-7.3-18.5-11.4-4.6-4-7.9-8.8-9.7-14.5-1.8-5.7-2-12.5-.5-20.4 1.6-8.4 4.9-16.1 10-23.2 5.1-7.1 12.1-12.8 20.8-17 8.8-4.3 19.1-6.4 30.8-6.4 6.6 0 12.9 1 19.1 2.9 6.2 2 10.8 4.5 14 7.5-1.8 3.4-3.7 7-5.7 10.8-2 3.8-3.9 7.5-5.7 11.1h-3.4c-.7-5.3-3-9.8-6.7-13.5-3.7-3.7-8.9-5.5-15.5-5.5-16.7 0-26.4 7.4-29.2 22.1-1.6 8.4 3.7 15.8 15.7 22.1l15.2 8.2c11.4 5.9 18.6 12.7 21.7 20.3 3.1 7.7 3.8 16 2.1 25-1.7 7.7-4.8 14.5-9.3 20.4-4.5 5.9-10 10.9-16.6 15-6.6 4.1-13.6 7.1-21.2 9.1-7.5 2-15 3-22.5 3-14.1-.4-25.5-3.6-34.4-9.5 4.9-9.7 8.9-19 11.9-28zm83.8 34.5c1.1-.1 2.8-.2 5.1-.4 2.3-.1 3.8-.3 4.8-.4 1.4.1 3.3.3 5.7.4 2.4.1 4.2.3 5.5.4 1.9-4.2 4-8.5 6.4-12.8 2.3-4.3 5.6-10.3 9.9-18 4.3-7.7 7.1-12.7 8.4-15h52.9c3 15.3 5.4 30.6 7.2 45.7 2.1-.1 5.2-.2 9.3-.4 4.1-.1 7.1-.3 9.1-.4 2.4.1 5.7.3 10.1.4 4.3.1 7.8.3 10.3.4l-34.1-153.8c-.8.1-3.8.4-8.9.7l-4.2-.3c-1.4-.1-2.8-.2-4-.4l-93.5 153.9zm96-59.7h-41.6l30.9-51.4 10.7 51.4z"/><g xml:space="preserve"><path xml:space="preserve" d="M3.7 332.4 9 304.2h15c-.1.2-.1.4-.2.7-.1.3-.2.5-.2.7v1.1c-1.8-.4-4.3-.6-7.5-.6h-3.7l-2 10.4H18c.5 0 .9-.1 1.3-.1s.9-.1 1.5-.1c-.1.2-.2.4-.2.6-.1.2-.1.4-.2.5v1.1c-1.9-.1-3.1-.2-3.7-.3h-6.6l-2.3 12.1c.3 0 .6 0 1 .1.7 0 1.6-.1 2.6-.1s2-.1 3.1-.1c1.1-.1 2-.1 2.9-.2.9-.1 1.6-.2 2.2-.3 0 .1-.1.3-.2.6-.1.2-.1.4-.2.6v1.4l-15.5.1zm19.2.2c.2 0 .4-.1.7-.1.3 0 .5 0 .7-.1.2 0 .4.1.8.1.3 0 .6.1.8.1.3-1.6.7-3.2 1.2-4.9.4-1.7.9-3.3 1.4-5 .5-1.7 1.2-3.8 2-6.6.8-2.7 1.4-4.4 1.5-5 .5 1.5 1.3 3.7 2.2 6.6 1 2.8 1.8 5.4 2.6 7.6.7 2.3 1.5 4.5 2.1 6.8h.4c1.5-2.4 3.1-4.7 4.7-6.9s3.2-4.4 4.7-6.5c1.5-2 3.4-4.6 5.7-7.6-.1 1.7-.2 3.4-.4 5.1-.1 1.7-.3 3.2-.4 4.4-.1 1.2-.3 3.1-.5 5.6-.2 2.5-.4 4.6-.6 6.3.2 0 .8-.1 1.8-.2.2 0 .6.1 1 .1.5 0 .8 0 1.1.1.1-1.6.2-3.8.4-6.6.1-2.8.3-5.4.5-7.7s.3-4.4.4-6.1c.1-1.7.3-4.4.6-8.1h-.9c-1.8 2.4-3.1 4.2-4.1 5.5-.9 1.2-2.1 2.8-3.4 4.5-1.3 1.8-2.9 3.9-4.7 6.3-1.8 2.4-3.2 4.2-4.1 5.5-.7-1.6-1.4-3.3-2.1-5.1-.7-1.8-1.4-3.6-2-5.6-.7-1.9-1.4-4.1-2.2-6.6-.8-2.4-1.3-4-1.5-4.6h-1.1c-.8 2.5-1.5 4.9-2.3 7.2-.8 2.3-1.4 4.4-2.1 6.3-.6 1.9-1.4 4.2-2.3 6.9-.8 3-1.7 5.7-2.6 8.3zm45.3-13-2.5 13c-.2 0-.5-.1-.9-.1s-.7 0-.9-.1c-.2 0-.6.1-1 .1s-.7.1-1 .1l4-21.2 1.4-7.2h9.4c2.2 0 4 .3 5.2.8 1.2.5 2 1.2 2.4 2.2.4 1 .5 2.3.2 3.8-.3 1.7-.9 3-1.8 4.1-.9 1.1-2 2-3.5 2.7-1.4.7-3.2 1.2-5.4 1.7-.4 0-.8.1-1.4.1-.6.1-1 .1-1.2.1-1.6-.1-2.6-.1-3-.1zm2.6-13.8-2.3 12.1c.8 0 1.4 0 1.9.1.5-.1 1.2-.1 2.3-.1 2.1-.2 3.9-.9 5.3-2.1 1.4-1.2 2.3-2.7 2.6-4.6.3-1.5.1-2.7-.5-3.7s-1.7-1.5-3.3-1.6c-.7-.1-2-.1-3.9-.1h-2.1zM86 332.6l5.3-28.4h9.3c3.2 0 5.4.5 6.7 1.6 1.2 1 1.7 2.6 1.3 4.8-.3 1.7-1.1 3.1-2.2 4.2-1.2 1.1-2.5 1.9-3.9 2.5-1.4.6-2.8.9-4.1 1.1.8 1.3 1.6 2.6 2.3 3.7.7 1.1 1.6 2.5 2.6 4.2 1.1 1.7 1.7 2.8 2 3.3.3.5.9 1.5 1.9 3.1-.4 0-.8-.1-1.5-.1-.6 0-1.1 0-1.4-.1-.2 0-.5.1-1 .1-.4 0-.8.1-1 .1-3.5-6.3-6.2-11-8.4-13.9h-1.6l-2.6 13.9c-.2 0-.5-.1-.9-.1s-.7 0-.9-.1c-.2 0-.5.1-.9.1-.5-.1-.8 0-1 0zm6.6-15.4c.5.1 1.2.1 2.1.1 2.3 0 4.2-.3 5.6-1 1.4-.7 2.5-1.5 3.1-2.4.7-.9 1.1-1.9 1.3-2.8.4-1.9-.1-3.3-1.4-4.1-1.3-.8-3-1.2-5.1-1.2H94.8l-2.2 11.4zm19.3 15.2 5.3-28.2h15c-.1.2-.1.4-.2.7-.1.3-.2.5-.2.7v1.1c-1.8-.4-4.3-.6-7.5-.6h-3.7l-2 10.4h7.6c.5 0 .9-.1 1.3-.1s.9-.1 1.5-.1c-.1.2-.2.4-.2.6-.1.2-.1.4-.2.5v1.1c-1.9-.1-3.1-.2-3.7-.3h-6.6l-2.3 12.1c.3 0 .6 0 1 .1.7 0 1.6-.1 2.6-.1s2-.1 3.1-.1c1.1-.1 2-.1 2.9-.2.9-.1 1.6-.2 2.2-.3 0 .1-.1.3-.2.6-.1.2-.1.4-.2.6v1.4l-15.5.1zm23.9-21.1c-.2.9-.2 1.7-.2 2.5.1.8.4 1.6.9 2.4.6.8 1.5 1.5 2.8 2l3.9 1.7c2.5 1.1 3.6 3 3.1 5.4-.2 1-.6 1.9-1.3 2.9-.7.9-1.6 1.7-2.6 2.2-1.1.6-2.2.8-3.3.8-1.2-.1-2.3-.4-3.2-1-.9-.5-1.8-1.7-2.5-3.4h-.4c-.4 1.4-.9 2.6-1.5 3.7.6.7 1.4 1.2 2.6 1.7 1.1.4 2.4.7 3.7.8 2.2 0 4.2-.4 6-1.3 1.8-.9 3.2-2 4.3-3.4 1.1-1.4 1.8-2.8 2.1-4.3.3-1.8.2-3.3-.4-4.3-.6-1.1-1.7-1.9-3.2-2.6l-4.1-1.8c-2.4-1.1-3.4-2.9-2.9-5.3.2-.9.5-1.7 1.1-2.4.6-.7 1.3-1.3 2.2-1.7.9-.4 1.8-.6 2.8-.6 1.5 0 2.5.4 3.3 1.1.7.8 1.2 1.6 1.4 2.5h.4c1-1.9 1.6-3.1 1.8-3.4-.5-.6-1.3-1.1-2.3-1.4-1-.4-2.2-.6-3.4-.6-1.5 0-3 .3-4.5.8s-2.8 1.3-3.9 2.5c-1.5 1.2-2.3 2.7-2.7 4.5zm15.2 21.3 18.7-29h1l7.2 29c-.3 0-1.2-.1-2.4-.2-.2 0-.6.1-1 .1s-.8.1-1 .1c-.6-3.7-1.4-7.5-2.4-11.3h-10.7c-.9 1.6-1.8 3-2.5 4.3-.8 1.3-1.5 2.5-2.1 3.7-.6 1.2-1.2 2.3-1.7 3.3-.2 0-.4-.1-.8-.1-.3 0-.6 0-.8-.1-.2 0-.4 0-.8.1-.3 0-.6.1-.7.1zm10.5-13h9.3L168 309l-6.5 10.6zm36.8-15.4h13.4c3.5 0 6.1.8 7.7 2.3 1.6 1.5 2.6 3.2 2.9 5.2.3 1.9.3 3.7 0 5.4-.3 1.7-.9 3.4-1.7 5.1-.8 1.7-1.9 3.4-3.4 4.9-1.5 1.6-3.3 2.8-5.6 3.8s-5 1.5-8.1 1.5H193l5.3-28.2zm3.4 1.7-4.6 24.7c2.7.2 4.9.2 6.8.2 2.5-.1 4.7-.6 6.7-1.7 1.9-1 3.5-2.5 4.8-4.5 1.2-1.9 2.1-4.3 2.6-7 .5-2.8.6-5.1.1-6.7-.5-1.6-1.3-2.8-2.4-3.5-1.1-.7-2.5-1.2-4.2-1.6-.5-.1-1.2-.1-2.3-.2-1 0-1.7-.1-2-.1h-.9c-.4 0-1.2 0-2.2.1-1.1.2-1.9.3-2.4.3zm23.7 26.5 5.3-28.2h15c-.1.2-.1.4-.2.7-.1.3-.2.5-.2.7v1.1c-1.8-.4-4.3-.6-7.5-.6h-3.7l-2 10.4h7.6c.5 0 .9-.1 1.3-.1s.9-.1 1.5-.1c-.1.2-.2.4-.2.6-.1.2-.1.4-.2.5v1.1c-1.9-.1-3.1-.2-3.7-.3h-6.6l-2.3 12.1c.3 0 .6 0 1 .1.7 0 1.6-.1 2.6-.1s2-.1 3.1-.1c1.1-.1 2-.1 2.9-.2.9-.1 1.6-.2 2.2-.3 0 .1-.1.3-.2.6-.1.2-.1.4-.2.6v1.4l-15.5.1zm39.1.3 5-26.4h-1.1c-2.4 0-5.2.2-8.2.5l.3-1.2c.1-.5.2-.9.2-1.3h21.9c-.1.2-.2.5-.2.7-.1.2-.1.4-.2.6v1.2c-2.6-.3-5.6-.5-8.8-.5l-5 26.4c-.2 0-.5-.1-.9-.1s-.7-.1-.9-.1c-.2 0-.5.1-.9.1-.6 0-1 .1-1.2.1zm17.3-.3h15.3V331c.1-.2.1-.4.2-.6.1-.2.1-.4.2-.6-.6.1-1.3.2-2.2.3-.9.1-1.8.1-2.9.2-1.1.1-2.1.1-3.1.1s-1.8.1-2.6.1c-.3-.1-.6-.1-1-.1l2.3-12.1h6.6c.6 0 1.8.1 3.7.3v-1.1c.1-.1.1-.3.2-.5s.1-.4.2-.6c-.6.1-1.1.1-1.5.1-.4 0-.8.1-1.3.1h-7.6l2-10.4h3.7c3.2 0 5.7.2 7.5.6v-1.1c.1-.2.1-.4.2-.7.1-.3.2-.5.2-.7h-15l-5.1 28.1zm21.2 0 5.3-28.2c.2 0 .5.1.8.1.3 0 .6.1.7.1.2 0 .6-.1 1.1-.1.5 0 .8-.1 1.1-.1l-4.9 26.3c.5 0 .9 0 1.3.1 1.6-.1 3.4-.1 5.5-.3 2.1-.1 3.7-.3 4.9-.4-.1.2-.1.4-.2.7-.1.3-.2.6-.2.7 0 .6 0 1-.1 1.1H303zm21.1 0 5.3-28.2h15c-.1.2-.1.4-.2.7-.1.3-.2.5-.2.7v1.1c-1.8-.4-4.3-.6-7.5-.6h-3.7l-2 10.4h7.6c.5 0 .9-.1 1.3-.1s.9-.1 1.5-.1c-.1.2-.2.4-.2.6-.1.2-.1.4-.2.5v1.1c-1.9-.1-3.1-.2-3.7-.3h-6.6l-2.3 12.1c.3 0 .6 0 1 .1.7 0 1.6-.1 2.6-.1s2-.1 3.1-.1c1.1-.1 2-.1 2.9-.2.9-.1 1.6-.2 2.2-.3 0 .1-.1.3-.2.6-.1.2-.1.4-.2.6v1.4l-15.5.1zm21.7-14.2c.4-2.2 1.2-4.1 2.2-5.9 1.1-1.8 2.5-3.4 4.1-4.7 1.7-1.3 3.5-2.3 5.6-3 2.1-.7 4.3-1 6.7-1 3 0 5.9.7 8.7 2-.4.7-1 1.7-1.5 3.1l-.3.1c-.5-.8-1.2-1.4-2-1.9s-1.6-.9-2.6-1.2c-.9-.3-1.8-.4-2.8-.4-1.7 0-3.4.3-4.9.9-1.6.6-2.9 1.5-4.2 2.7-1.2 1.2-2.3 2.6-3.2 4.2-.9 1.6-1.5 3.5-1.9 5.5-.5 2.8-.4 5.2.3 7.2s1.8 3.4 3.4 4.4c1.5 1 3.3 1.4 5.2 1.4 1.6 0 3.2-.3 4.9-.9 1.7-.6 3.3-1.4 4.7-2.5l-.7 2.6c-3.1 1.6-6.3 2.4-9.7 2.4-2.3 0-4.3-.3-6-1-1.7-.7-3.1-1.7-4.2-2.9-1.1-1.3-1.8-2.9-2.1-4.7-.2-2-.1-4.1.3-6.4zm28.4.2c.5-2.6 1.6-5 3.2-7.3 1.7-2.3 3.8-4.1 6.3-5.5 2.6-1.4 5.4-2.1 8.5-2.1h.3c2.7.1 5 .5 6.9 1.3 1.9.8 3.4 1.9 4.4 3.2 1.1 1.3 1.7 2.8 2.1 4.5.3 1.7.3 3.4-.1 5.3-.4 2.4-1.3 4.5-2.4 6.4-1.2 1.9-2.6 3.5-4.3 4.9-1.7 1.3-3.6 2.3-5.7 3-2.1.7-4.2 1-6.4 1h-.2c-2.7 0-5.1-.5-7.2-1.5-2.1-1-3.7-2.6-4.8-4.7-1-2.2-1.2-5-.6-8.5zm4.1.2c-.5 2.8-.5 5.1.1 7.1s1.7 3.4 3.2 4.4c1.6 1 3.5 1.5 5.8 1.6 2 0 4-.5 6-1.6s3.7-2.6 5.1-4.6c1.4-2 2.5-4.2 3-6.7 0-.1.1-.3.1-.5.1-.2.1-.4.1-.5.5-2.6.4-4.9-.2-6.8-.6-1.9-1.7-3.3-3.2-4.3-1.6-1-3.5-1.5-5.7-1.6-2.6 0-5 .6-7 1.9-2 1.3-3.7 3-4.9 5-1.1 2-2 4.2-2.4 6.6zm28.5 14c.9-2.6 1.8-5.3 2.7-8l2.3-6.9c.6-1.9 1.3-4 2.1-6.3s1.5-4.7 2.3-7.2h1.1c.2.6.7 2.2 1.5 4.6.8 2.4 1.6 4.6 2.2 6.6.7 1.9 1.3 3.8 2 5.6.7 1.8 1.4 3.5 2.1 5.1.9-1.2 2.3-3 4.1-5.5 1.8-2.4 3.4-4.5 4.7-6.3 1.3-1.8 2.5-3.3 3.4-4.5.9-1.2 2.3-3.1 4.1-5.5h.9c-.3 3.7-.5 6.3-.6 8.1-.1 1.7-.3 3.7-.4 6.1-.2 2.3-.3 4.9-.5 7.7s-.3 5-.4 6.6c-.3 0-.6 0-1.1-.1-.5 0-.8-.1-1-.1-1 .1-1.7.2-1.8.2.2-1.6.4-3.7.6-6.3.2-2.5.4-4.4.5-5.6.1-1.2.2-2.7.4-4.4.1-1.7.3-3.4.4-5.1-2.3 3-4.2 5.5-5.7 7.6-1.5 2-3.1 4.2-4.7 6.5s-3.2 4.6-4.7 6.9h-.4c-.7-2.3-1.4-4.5-2.1-6.8-.7-2.3-1.6-4.8-2.6-7.6s-1.7-5-2.2-6.6c-.2.6-.7 2.2-1.5 5-.8 2.7-1.5 4.9-2 6.6-.5 1.7-1 3.3-1.4 5-.5 1.7-.8 3.3-1.2 4.9-.2 0-.4-.1-.8-.1-.3 0-.6 0-.8-.1-.2 0-.4.1-.7.1-.4-.3-.6-.2-.8-.2zm41.7-11 3.3-17.4c.2 0 .5.1.8.1.4 0 .6.1.8.1 1-.1 1.7-.2 2.1-.2l-3.3 17.4c-.3 1.6-.4 3.1-.2 4.5s.9 2.6 2.1 3.6c1.2 1 3.1 1.5 5.6 1.5 1.8 0 3.3-.3 4.6-.9 1.3-.6 2.4-1.4 3.3-2.5.9-1 1.6-2.1 2.1-3.3.5-1.2.9-2.5 1.1-3.8l3.1-16.4c.1 0 .3 0 .5.1.3 0 .5.1.6.1.2 0 .4-.1.7-.1.3 0 .5-.1.6-.1l-3.2 16.9c-.5 2.5-1.4 4.7-2.7 6.5-1.3 1.8-3 3.2-5.1 4.1-2 .9-4.4 1.4-7 1.4-3 0-5.3-.5-6.9-1.5-1.6-1-2.6-2.4-3.1-4.1-.2-1.8-.2-3.7.2-6zm31.1 11 5.3-28.4h1.6c1.8 2.4 3.8 5.1 6.2 8.2 2.3 3.1 4 5.3 4.9 6.5 1 1.3 2.6 3.5 5 6.6h.4l4-21.4c.1 0 .3.1.6.1s.4.1.5.1c.2 0 .4-.1.6-.1.3 0 .5 0 .6-.1l-5.3 28.4h-1.4c-1-1.5-2.2-3.2-3.6-5.1-1.4-1.9-2.7-3.8-4-5.5-1.2-1.7-2.5-3.5-3.9-5.3-1.4-1.9-2.9-4-4.8-6.5h-.4l-4.2 22.4c-.1 0-.3-.1-.6-.1s-.5 0-.7-.1c-.1 0-.3 0-.5.1 0 .1-.2.2-.3.2zm38-28.4c.2 0 .4.1.8.1s.7.1.9.1c.2 0 .6-.1 1-.1.5 0 .8 0 1-.1l-5.3 28.4c-.2 0-.5-.1-.9-.1s-.8 0-1-.1c-.2 0-.5.1-.9.1s-.7.1-.9.1l5.3-28.4zm6.7 14c.4-2.2 1.2-4.1 2.2-5.9 1.1-1.8 2.5-3.4 4.1-4.7 1.7-1.3 3.5-2.3 5.6-3 2.1-.7 4.3-1 6.7-1 3 0 5.9.7 8.7 2-.4.7-1 1.7-1.5 3.1l-.3.1c-.5-.8-1.2-1.4-2-1.9s-1.6-.9-2.6-1.2c-.9-.3-1.8-.4-2.8-.4-1.7 0-3.4.3-4.9.9-1.6.6-2.9 1.5-4.2 2.7-1.2 1.2-2.3 2.6-3.2 4.2-.9 1.6-1.5 3.5-1.9 5.5-.5 2.8-.4 5.2.3 7.2s1.8 3.4 3.4 4.4c1.5 1 3.3 1.4 5.2 1.4 1.6 0 3.2-.3 4.9-.9 1.7-.6 3.3-1.4 4.7-2.5l-.7 2.6c-3.1 1.6-6.3 2.4-9.7 2.4-2.3 0-4.3-.3-5.9-1-1.7-.7-3.1-1.7-4.2-2.9-1.1-1.3-1.8-2.9-2.1-4.7-.3-2-.3-4.1.2-6.4zm24.6 14.4c.1 0 .4-.1.7-.1.4 0 .6-.1.8-.1.2 0 .4.1.8.1.3 0 .6.1.8.1.5-1 1.1-2.1 1.7-3.3.7-1.2 1.4-2.4 2.1-3.7.8-1.3 1.6-2.7 2.5-4.3H569c1 3.8 1.8 7.5 2.4 11.3.2 0 .6-.1 1-.1s.8 0 1-.1c1.3.1 2.1.2 2.4.2l-7.2-29h-1l-18.7 29zm10.5-13 6.5-10.6 2.8 10.6h-9.3zm21.4-1.4c.4-2.2 1.2-4.1 2.2-5.9 1.1-1.8 2.5-3.4 4.1-4.7 1.7-1.3 3.5-2.3 5.6-3 2.1-.7 4.3-1 6.7-1 3 0 5.9.7 8.7 2-.4.7-1 1.7-1.5 3.1l-.3.1c-.5-.8-1.2-1.4-2-1.9s-1.6-.9-2.6-1.2c-.9-.3-1.8-.4-2.8-.4-1.7 0-3.4.3-4.9.9-1.6.6-2.9 1.5-4.2 2.7-1.2 1.2-2.3 2.6-3.2 4.2-.9 1.6-1.5 3.5-1.9 5.5-.5 2.8-.4 5.2.3 7.2s1.8 3.4 3.4 4.4c1.5 1 3.3 1.4 5.2 1.4 1.6 0 3.2-.3 4.9-.9 1.7-.6 3.3-1.4 4.7-2.5l-.7 2.6c-3.1 1.6-6.3 2.4-9.7 2.4-2.3 0-4.3-.3-6-1-1.7-.7-3.1-1.7-4.2-2.9-1.1-1.3-1.8-2.9-2.1-4.7-.2-2-.1-4.1.3-6.4zm33.3-14c.2 0 .4.1.8.1s.7.1.9.1c.2 0 .6-.1 1-.1.5 0 .8 0 1-.1l-5.3 28.4c-.2 0-.5-.1-.9-.1s-.8 0-1-.1c-.2 0-.5.1-.9.1s-.7.1-.9.1l5.3-28.4zM620.9 318.4c.5-2.6 1.6-5 3.2-7.3 1.7-2.3 3.8-4.1 6.3-5.5 2.6-1.4 5.4-2.1 8.5-2.1h.3c2.7.1 5 .5 6.9 1.3 1.9.8 3.4 1.9 4.4 3.2 1.1 1.3 1.7 2.8 2.1 4.5.3 1.7.3 3.4-.1 5.3-.4 2.4-1.3 4.5-2.4 6.4-1.2 1.9-2.6 3.5-4.3 4.9-1.7 1.3-3.6 2.3-5.7 3-2.1.7-4.2 1-6.4 1h-.2c-2.7 0-5.1-.5-7.2-1.5-2.1-1-3.7-2.6-4.8-4.7-.9-2.2-1.2-5-.6-8.5zm4.1.2c-.5 2.8-.5 5.1.1 7.1s1.7 3.4 3.2 4.4c1.6 1 3.5 1.5 5.8 1.6 2 0 4-.5 6-1.6s3.7-2.6 5.1-4.6c1.4-2 2.5-4.2 3-6.7 0-.1.1-.3.1-.5.1-.2.1-.4.1-.5.5-2.6.4-4.9-.2-6.8-.6-1.9-1.7-3.3-3.2-4.3-1.6-1-3.5-1.5-5.7-1.6-2.6 0-5 .6-7 1.9-2 1.3-3.7 3-4.9 5-1.1 2-2 4.2-2.4 6.6zm30.8 14 5.3-28.4h1.6c1.8 2.4 3.8 5.1 6.1 8.2 2.3 3.1 4 5.3 4.9 6.5 1 1.3 2.6 3.5 5 6.6h.4l4-21.4c.1 0 .3.1.6.1s.4.1.5.1c.2 0 .4-.1.6-.1.3 0 .5 0 .6-.1l-5.3 28.4h-1.4c-1-1.5-2.2-3.2-3.6-5.1-1.4-1.9-2.7-3.8-3.9-5.5-1.2-1.7-2.5-3.5-3.9-5.3-1.4-1.9-3-4-4.8-6.5h-.4l-4.2 22.4c-.1 0-.3-.1-.6-.1s-.5 0-.6-.1c-.1 0-.3 0-.5.1-.1.1-.3.2-.4.2zm32.5-.2 5.3-28.2h15c-.1.2-.1.4-.2.7-.1.3-.2.5-.2.7v1.1c-1.8-.4-4.3-.6-7.5-.6H697l-2 10.4h7.6c.5 0 .9-.1 1.3-.1s.9-.1 1.5-.1c-.1.2-.2.4-.2.6-.1.2-.1.4-.2.5v1.1c-1.9-.1-3.1-.2-3.7-.3h-6.6l-2.3 12.1c.3 0 .6 0 1 .1.7 0 1.6-.1 2.6-.1s2-.1 3.1-.1c1.1-.1 2-.1 2.9-.2.9-.1 1.6-.2 2.2-.3 0 .1-.1.3-.2.6-.1.2-.1.4-.2.6v1.4l-15.5.1zm24-21.1c-.2.9-.2 1.7-.2 2.5.1.8.4 1.6.9 2.4.6.8 1.5 1.5 2.8 2l3.9 1.7c2.5 1.1 3.6 3 3.1 5.4-.2 1-.6 1.9-1.3 2.9-.7.9-1.6 1.7-2.6 2.2-1.1.6-2.2.8-3.3.8-1.2-.1-2.3-.4-3.2-1-.9-.5-1.8-1.7-2.5-3.4h-.4c-.4 1.4-.9 2.6-1.5 3.7.6.7 1.4 1.2 2.6 1.7 1.1.4 2.4.7 3.7.8 2.2 0 4.2-.4 6-1.3 1.8-.9 3.2-2 4.3-3.4 1.1-1.4 1.8-2.8 2.1-4.3.3-1.8.2-3.3-.4-4.3-.6-1.1-1.7-1.9-3.2-2.6l-4.1-1.8c-2.4-1.1-3.4-2.9-2.9-5.3.2-.9.5-1.7 1.1-2.4.6-.7 1.3-1.3 2.2-1.7.9-.4 1.8-.6 2.8-.6 1.5 0 2.5.4 3.3 1.1.7.8 1.2 1.6 1.4 2.5h.4c1-1.9 1.6-3.1 1.8-3.4-.5-.6-1.3-1.1-2.3-1.4-1-.4-2.2-.6-3.4-.6-1.5 0-3 .3-4.5.8s-2.8 1.3-3.9 2.5c-1.5 1.2-2.3 2.7-2.7 4.5zm35.7-7.1h13.4c3.5 0 6.1.8 7.7 2.3 1.6 1.5 2.6 3.2 2.9 5.2.3 1.9.3 3.7 0 5.4-.3 1.7-.9 3.4-1.7 5.1-.8 1.7-1.9 3.4-3.4 4.9-1.5 1.6-3.3 2.8-5.6 3.8s-5 1.5-8.1 1.5h-10.6l5.4-28.2zm3.4 1.7-4.6 24.7c2.7.2 4.9.2 6.8.2 2.5-.1 4.7-.6 6.7-1.7 1.9-1 3.5-2.5 4.8-4.5 1.2-1.9 2.1-4.3 2.6-7 .5-2.8.6-5.1.1-6.7-.5-1.6-1.3-2.8-2.4-3.5-1.1-.7-2.5-1.2-4.2-1.6-.5-.1-1.2-.1-2.3-.2-1 0-1.7-.1-2-.1h-.9c-.4 0-1.2 0-2.2.1-1.1.2-1.9.3-2.4.3zm23.8 26.5 5.3-28.2h15c-.1.2-.1.4-.2.7-.1.3-.2.5-.2.7v1.1c-1.8-.4-4.3-.6-7.5-.6h-3.7l-2 10.4h7.6c.5 0 .9-.1 1.3-.1s.9-.1 1.5-.1c-.1.2-.2.4-.2.6-.1.2-.1.4-.2.5v1.1c-1.9-.1-3.1-.2-3.7-.3h-6.6l-2.3 12.1c.3 0 .6 0 1 .1.7 0 1.6-.1 2.6-.1s2-.1 3.1-.1c1.1-.1 2-.1 2.9-.2.9-.1 1.6-.2 2.2-.3 0 .1-.1.3-.2.6-.1.2-.1.4-.2.6v1.4l-15.5.1zm33.4-14.2c.4-2.2 1.2-4.1 2.2-5.9 1.1-1.8 2.5-3.4 4.1-4.7 1.7-1.3 3.5-2.3 5.6-3 2.1-.7 4.3-1 6.7-1 3 0 5.9.7 8.7 2-.4.7-1 1.7-1.5 3.1l-.3.1c-.5-.8-1.2-1.4-2-1.9s-1.7-.9-2.6-1.2c-.9-.3-1.8-.4-2.8-.4-1.7 0-3.4.3-4.9.9-1.6.6-2.9 1.5-4.2 2.7-1.2 1.2-2.3 2.6-3.2 4.2-.9 1.6-1.5 3.5-1.9 5.5-.5 2.8-.4 5.2.3 7.2s1.8 3.4 3.4 4.4c1.5 1 3.3 1.4 5.2 1.4 1.6 0 3.2-.3 4.9-.9 1.7-.6 3.3-1.4 4.7-2.5l-.7 2.6c-3.1 1.6-6.3 2.4-9.7 2.4-2.3 0-4.3-.3-6-1-1.7-.7-3.1-1.7-4.2-2.9-1.1-1.3-1.8-2.9-2.1-4.7-.2-2-.2-4.1.3-6.4zm29.9 3.4 3.3-17.4c.2 0 .5.1.8.1.4 0 .6.1.8.1 1-.1 1.7-.2 2.1-.2l-3.3 17.4c-.3 1.6-.4 3.1-.2 4.5s.9 2.6 2.1 3.6c1.2 1 3.1 1.5 5.6 1.5 1.8 0 3.3-.3 4.6-.9 1.3-.6 2.4-1.4 3.3-2.5.9-1 1.6-2.1 2.1-3.3.5-1.2.9-2.5 1.1-3.8l3.1-16.4c.1 0 .3 0 .5.1.3 0 .5.1.6.1.2 0 .4-.1.7-.1.3 0 .5-.1.6-.1l-3.2 16.9c-.5 2.5-1.4 4.7-2.7 6.5-1.3 1.8-3 3.2-5.1 4.1-2 .9-4.4 1.4-7 1.4-3 0-5.3-.5-6.9-1.5-1.6-1-2.6-2.4-3.1-4.1-.2-1.8-.2-3.7.2-6zm30.9 10.8 5.3-28.2h8.6c1.5 0 2.9.1 4.2.4 1.3.2 2.3.8 3.1 1.6.8.8 1 2.1.7 3.8-.2 1.3-.8 2.4-1.5 3.4-.8 1-1.8 1.8-2.9 2.5-1.1.6-2.3 1.1-3.6 1.4 2.1.2 3.8.8 5.1 1.9 1.3 1 1.7 2.6 1.3 4.7-.3 1.7-1 3.2-2.2 4.5-1.1 1.3-2.5 2.3-4.2 3-1.7.7-3.5 1.1-5.4 1.1h-8.5v-.1zm6.7-15.7h2.5c2.4 0 4.3-.5 5.9-1.5 1.6-1 2.6-2.4 3-4.3.4-1.9 0-3.3-1.1-4-1.1-.7-2.8-1.1-4.9-1.2h-3.3l-2.1 11zm-2.7 14.2h4.2c1.2 0 2.4-.3 3.6-.8 1.2-.5 2.2-1.3 3-2.2.8-1 1.4-2.1 1.6-3.4.5-2.5 0-4.2-1.5-5-1.5-.9-3.4-1.3-5.9-1.3h-2.5l-2.5 12.7zm18.4 1.7 18.7-29h1l7.2 29c-.3 0-1.2-.1-2.4-.2-.2 0-.6.1-1 .1s-.8.1-1 .1c-.6-3.7-1.4-7.5-2.4-11.3h-10.7c-.9 1.6-1.8 3-2.5 4.3-.8 1.3-1.5 2.5-2.1 3.7-.6 1.2-1.2 2.3-1.7 3.3-.2 0-.4-.1-.8-.1-.3 0-.6 0-.8-.1-.2 0-.4 0-.8.1-.3 0-.5.1-.7.1zm10.6-13h9.3l-2.8-10.6-6.5 10.6zm33.8-8.3c.4-1.8 1.2-3.3 2.3-4.5 1.2-1.2 2.5-2 3.9-2.5 1.5-.5 3-.8 4.5-.8 1.2 0 2.4.2 3.4.6 1 .4 1.8.9 2.3 1.4-.2.3-.8 1.4-1.8 3.4h-.4c-.2-.9-.6-1.8-1.4-2.5-.7-.8-1.8-1.1-3.3-1.1-1 0-1.9.2-2.8.6-.9.4-1.6 1-2.2 1.7-.6.7-1 1.5-1.1 2.4-.4 2.4.5 4.1 2.9 5.3l4.1 1.8c1.5.6 2.6 1.5 3.2 2.6.6 1.1.8 2.5.4 4.3-.3 1.5-1 2.9-2.1 4.3s-2.6 2.5-4.3 3.4c-1.8.9-3.8 1.3-6 1.3-1.3-.1-2.5-.3-3.7-.8-1.1-.5-2-1-2.6-1.7.6-1.1 1.1-2.3 1.5-3.7h.4c.7 1.7 1.6 2.9 2.5 3.4.9.5 2 .8 3.2 1 1.1 0 2.2-.3 3.3-.8 1.1-.6 1.9-1.3 2.6-2.2.7-.9 1.2-1.9 1.3-2.9.5-2.5-.6-4.3-3.1-5.4l-3.9-1.7c-1.3-.5-2.2-1.2-2.8-2-.6-.8-.9-1.6-.9-2.4.4-.8.5-1.6.6-2.5zm21.3 16.6c.7 0 1.3.2 1.7.7.4.5.5 1.1.4 1.8-.1.7-.5 1.3-1.1 1.8-.6.5-1.2.8-1.9.8s-1.3-.2-1.7-.8c-.4-.5-.6-1.1-.4-1.8.1-.7.5-1.3 1.1-1.8.5-.4 1.1-.7 1.9-.7zm5.6 4.7 18.7-29h1l7.2 29c-.3 0-1.2-.1-2.4-.2-.2 0-.6.1-1 .1s-.8.1-1 .1c-.6-3.7-1.4-7.5-2.4-11.3h-10.7c-.9 1.6-1.8 3-2.5 4.3-.8 1.3-1.5 2.5-2.1 3.7-.6 1.2-1.2 2.3-1.7 3.3-.2 0-.4-.1-.8-.1-.3 0-.6 0-.8-.1-.2 0-.4 0-.8.1-.3 0-.5.1-.7.1zm10.5-13h9.3l-2.8-10.6-6.5 10.6zm23.8 8.3c.7 0 1.3.2 1.7.7.4.5.5 1.1.4 1.8-.1.7-.5 1.3-1.1 1.8-.6.5-1.2.8-1.9.8s-1.3-.2-1.7-.8c-.4-.5-.6-1.1-.4-1.8.1-.7.5-1.3 1.1-1.8.6-.4 1.2-.7 1.9-.7z"/></g></g></svg>