<?xml version="1.0" standalone="no"?>
<!DOCTYPE svg PUBLIC "-//W3C//DTD SVG 20010904//EN"
 "http://www.w3.org/TR/2001/REC-SVG-20010904/DTD/svg10.dtd">
<svg version="1.0" xmlns="http://www.w3.org/2000/svg"
 width="500.000000pt" height="330.000000pt" viewBox="0 0 500.000000 330.000000"
 preserveAspectRatio="xMidYMid meet">

<g transform="translate(0.000000,330.000000) scale(0.100000,-0.100000)"
fill="#000000" stroke="none">
<path d="M1034 2145 c-71 -15 -128 -43 -199 -95 -264 -195 -293 -592 -61 -824
66 -66 191 -139 229 -134 20 3 22 10 25 64 l3 61 -48 -4 c-66 -6 -109 19 -148
84 -16 28 -41 60 -55 71 -22 18 -23 21 -8 27 18 7 67 -15 88 -40 12 -14 12
-18 -1 -27 -12 -8 -12 -9 1 -5 8 2 28 -7 43 -19 19 -16 41 -24 65 -24 45 0 53
5 74 53 14 28 15 37 5 37 -37 0 -122 35 -154 63 -85 74 -106 237 -43 327 12
17 16 37 12 63 -2 20 -1 53 2 72 6 30 11 35 34 35 16 0 51 -11 78 -25 47 -23
56 -24 134 -17 47 5 107 4 137 -1 47 -8 58 -6 105 17 28 14 64 26 80 26 23 0
28 -5 34 -36 3 -19 4 -51 1 -69 -4 -26 1 -47 20 -82 30 -52 35 -133 14 -211
-22 -79 -96 -139 -195 -158 -35 -6 -35 -6 -21 -35 11 -19 15 -60 15 -134 0
-120 5 -128 69 -105 55 19 166 96 207 143 90 104 135 228 136 367 0 154 -52
280 -163 391 -132 133 -322 186 -515 144z"/>
<path d="M2062 1947 c-54 -20 -103 -67 -129 -123 -50 -109 -48 -310 3 -404 62
-114 217 -159 378 -110 l66 21 0 175 0 175 -112 -3 -113 -3 0 -60 0 -60 45 -5
45 -5 0 -60 0 -60 -47 -3 c-111 -7 -161 57 -160 205 0 63 5 93 21 127 32 64
70 80 183 74 100 -6 102 -5 110 73 3 31 0 35 -32 46 -45 15 -215 15 -258 0z"/>
<path d="M2995 1927 c-3 -7 -4 -149 -3 -317 l3 -305 65 0 65 0 3 138 3 138 91
-3 91 -3 1 -135 1 -135 65 0 65 0 3 318 2 317 -64 0 c-49 0 -65 -4 -70 -16 -3
-9 -6 -63 -6 -120 l0 -104 -90 0 -90 0 0 120 0 120 -65 0 c-44 0 -67 -4 -70
-13z"/>
<path d="M3972 1623 l3 -318 41 -3 c26 -2 45 2 53 11 10 13 18 12 61 -4 59
-22 109 -24 153 -5 72 30 100 95 100 227 0 71 -4 95 -24 135 -32 66 -73 87
-154 81 -33 -3 -68 -8 -77 -12 -17 -7 -18 2 -18 99 l0 106 -70 0 -70 0 2 -317z
m238 7 c23 -12 40 -61 40 -116 0 -88 -34 -122 -104 -103 l-36 10 0 100 c0 94
1 100 23 109 30 12 55 12 77 0z"/>
<path d="M2490 1917 c-14 -7 -31 -25 -38 -40 -16 -34 0 -74 39 -96 54 -30 122
32 100 92 -17 44 -62 64 -101 44z"/>
<path d="M2700 1796 l0 -64 -36 -6 c-35 -7 -35 -7 -32 -54 3 -45 5 -47 34 -50
l32 -3 4 -117 c5 -128 15 -160 59 -186 37 -22 116 -31 152 -17 26 10 28 14 25
58 -3 47 -4 48 -38 51 -55 6 -60 14 -60 118 l0 93 48 3 47 3 0 55 0 55 -47 3
-48 3 0 60 0 59 -70 0 -70 0 0 -64z"/>
<path d="M2457 1734 c-4 -4 -7 -101 -7 -215 l0 -207 61 -4 c34 -1 65 0 70 3 5
3 8 95 7 215 l-3 209 -60 3 c-34 2 -64 0 -68 -4z"/>
<path d="M3510 1568 c0 -194 9 -231 65 -257 50 -24 124 -25 182 -3 44 17 53
17 57 5 4 -10 18 -13 48 -11 l43 3 3 218 2 218 -67 -3 -68 -3 -3 -157 -3 -157
-35 -10 c-22 -6 -45 -6 -60 -1 -23 9 -24 11 -26 167 l-3 158 -67 3 -68 3 0
-173z"/>
<path d="M880 1290 c0 -5 5 -10 10 -10 6 0 10 5 10 10 0 6 -4 10 -10 10 -5 0
-10 -4 -10 -10z"/>
<path d="M920 1270 c0 -5 5 -10 11 -10 5 0 7 5 4 10 -3 6 -8 10 -11 10 -2 0
-4 -4 -4 -10z"/>
<path d="M1005 1270 c-3 -5 -1 -10 4 -10 6 0 11 5 11 10 0 6 -2 10 -4 10 -3 0
-8 -4 -11 -10z"/>
</g>
</svg>
