<?xml version="1.0" encoding="UTF-8"?>
<!-- Generator: https://ezgif.com/png-to-svg -->
<svg version="1.1" xmlns="http://www.w3.org/2000/svg" width="2794" height="1129">
<path d="M0 0 C46.2 0 92.4 0 140 0 C140.02 15.22 140.02 15.22 140.04 30.75 C140.09 63.3 140.16 95.84 140.23 128.39 C140.24 133.45 140.25 138.51 140.26 143.57 C140.27 145.08 140.27 145.08 140.27 146.63 C140.3 162.9 140.33 179.18 140.35 195.46 C140.37 212.18 140.41 228.91 140.45 245.63 C140.48 255.94 140.49 266.24 140.5 276.55 C140.5 283.63 140.52 290.72 140.55 297.8 C140.56 301.88 140.57 305.95 140.57 310.03 C140.55 331.26 140.67 352.75 146.69 373.31 C146.94 374.21 147.19 375.1 147.46 376.02 C153.75 397.28 165.45 424.46 185.31 435.91 C208.9 448.07 239.08 449.68 264.22 441.71 C277.09 437.33 287.3 430.53 297 421 C297.72 420.3 298.45 419.6 299.19 418.88 C327.34 389.72 325.13 331.37 325.2 293.84 C325.21 289.88 325.22 285.93 325.24 281.98 C325.26 275.15 325.28 268.32 325.29 261.49 C325.31 251.62 325.34 241.74 325.37 231.87 C325.42 215.84 325.46 199.82 325.5 183.79 C325.54 168.24 325.58 152.68 325.63 137.12 C325.63 135.68 325.63 135.68 325.64 134.21 C325.65 129.39 325.66 124.57 325.68 119.75 C325.79 79.83 325.9 39.92 326 0 C371.87 0 417.74 0 465 0 C465.07 43.19 465.12 86.37 465.15 129.56 C465.16 134.67 465.16 139.78 465.16 144.9 C465.17 145.92 465.17 146.93 465.17 147.98 C465.18 164.4 465.2 180.82 465.23 197.24 C465.26 214.13 465.28 231.01 465.28 247.9 C465.29 258.29 465.3 268.69 465.32 279.08 C465.34 286.24 465.34 293.4 465.34 300.55 C465.34 304.66 465.34 308.77 465.36 312.88 C465.61 379.21 454.08 447.9 406.65 497.46 C377.44 525.31 335.69 538.14 296.88 544.75 C295.71 544.95 294.54 545.15 293.34 545.35 C273.41 548.56 253.67 549.37 233.5 549.31 C232.27 549.31 231.03 549.31 229.76 549.31 C211.65 549.27 193.93 548.78 176 546 C175.02 545.86 174.04 545.72 173.03 545.58 C132.62 539.79 90.45 526.2 60 498 C59.46 497.5 58.91 497 58.36 496.49 C25.27 465.74 10.45 420.31 3.81 376.69 C3.66 375.68 3.5 374.68 3.34 373.64 C0.19 351.67 -0.29 329.71 -0.23 307.55 C-0.22 303.41 -0.23 299.27 -0.23 295.13 C-0.23 287.98 -0.22 280.83 -0.21 273.68 C-0.2 263.35 -0.19 253.01 -0.19 242.68 C-0.18 225.9 -0.17 209.13 -0.15 192.35 C-0.13 176.07 -0.12 159.8 -0.11 143.52 C-0.11 142.51 -0.11 141.51 -0.11 140.47 C-0.11 135.42 -0.1 130.37 -0.1 125.32 C-0.08 83.55 -0.04 41.77 0 0 Z " fill="#FEFEFE" transform="translate(252,533)"/>
<path d="M0 0 C5.1 0.02 10.21 0.02 15.31 0.02 C24.93 0.03 34.54 0.06 44.16 0.09 C57.19 0.13 70.22 0.14 83.24 0.16 C103.7 0.19 124.15 0.25 144.6 0.3 C144.6 33.96 144.6 67.62 144.6 102.3 C134.42 102.34 124.25 102.38 113.76 102.42 C107.27 102.45 100.77 102.48 94.28 102.51 C84 102.57 73.72 102.62 63.44 102.65 C55.95 102.67 48.45 102.71 40.96 102.75 C37.01 102.78 33.05 102.8 29.1 102.8 C-16.45 102.88 -64.25 108.63 -100.4 139.3 C-101.57 140.26 -102.74 141.22 -103.91 142.18 C-138.74 170.98 -156.42 213.43 -160.9 257.69 C-164.67 301.96 -156.23 348.09 -127.84 383.41 C-124.13 387.81 -120.35 392.11 -116.4 396.3 C-115.85 396.9 -115.3 397.51 -114.74 398.12 C-85.72 428.79 -38.38 444.09 2.92 445.41 C6.66 445.47 10.41 445.49 14.16 445.51 C15.59 445.52 17.02 445.53 18.45 445.54 C22.3 445.57 26.15 445.59 30 445.61 C34.03 445.63 38.07 445.66 42.1 445.68 C49.72 445.73 57.35 445.78 64.97 445.82 C75.29 445.88 85.6 445.95 95.92 446.01 C112.14 446.12 128.37 446.21 144.6 446.3 C144.6 483.26 144.6 520.22 144.6 558.3 C107.32 558.34 107.32 558.34 91.53 558.35 C80.69 558.36 69.85 558.37 59.01 558.38 C51.11 558.39 43.2 558.4 35.3 558.4 C31.13 558.4 26.96 558.4 22.79 558.41 C-27.22 558.5 -27.22 558.5 -50.34 556.05 C-51.57 555.92 -52.81 555.8 -54.08 555.66 C-120.29 548.35 -180.82 524.27 -229.4 478.3 C-230.08 477.67 -230.76 477.03 -231.46 476.37 C-236.59 471.42 -240.97 465.88 -245.4 460.3 C-246.17 459.36 -246.94 458.42 -247.74 457.44 C-265.72 434.95 -278.9 408.76 -287.4 381.3 C-287.66 380.49 -287.92 379.67 -288.19 378.82 C-312.74 300.84 -307.51 206.67 -270.02 133.62 C-258.89 112.84 -244.53 94.42 -228.4 77.3 C-227.71 76.57 -227.02 75.84 -226.31 75.09 C-221.06 69.67 -215.31 64.98 -209.4 60.3 C-208.4 59.5 -207.4 58.69 -206.37 57.86 C-198.13 51.3 -189.44 45.69 -180.4 40.3 C-179.77 39.92 -179.14 39.54 -178.5 39.15 C-124.57 6.61 -61.62 -0.27 0 0 Z " fill="#FEFEFE" transform="translate(1092.3987002372742,523.6958181858063)"/>
<path d="M0 0 C2.47 -0 4.95 -0.01 7.42 -0.01 C35.63 -0.06 63.72 0.99 91.77 4.06 C92.54 4.14 93.31 4.22 94.1 4.31 C155.24 10.91 217.49 24.51 272.22 53.36 C274.09 54.34 275.96 55.3 277.83 56.26 C301.22 68.35 321.97 84.22 341.02 102.31 C341.85 103.1 342.68 103.88 343.53 104.69 C379.13 139.35 400.28 189.52 406.02 238.31 C406.12 239.12 406.21 239.93 406.31 240.76 C411.66 291.87 401.12 345.5 378.02 391.31 C377.34 392.66 377.34 392.66 376.65 394.04 C372.73 401.76 368.77 409.46 364.38 416.92 C364 417.57 363.62 418.23 363.22 418.9 C362.83 419.37 362.43 419.83 362.02 420.31 C361.03 420.31 360.04 420.31 359.02 420.31 C359.6 412.82 360.88 405.6 362.4 398.25 C366.06 379.82 368.52 361.11 369.02 342.31 C369.06 341.09 369.06 341.09 369.09 339.84 C370.4 281.3 355.54 219.97 316.02 175.31 C315.38 174.56 314.74 173.81 314.07 173.03 C302.57 159.86 290.15 147.63 276.02 137.31 C274.91 136.48 273.79 135.64 272.68 134.81 C207.58 86.68 125.32 67.61 46.09 60.06 C45.21 59.98 44.34 59.89 43.44 59.81 C40.9 59.57 38.35 59.34 35.81 59.11 C35.09 59.04 34.37 58.97 33.62 58.91 C19.53 57.68 5.43 57.15 -8.71 57.11 C-10.26 57.1 -11.81 57.09 -13.36 57.09 C-18.29 57.07 -23.23 57.06 -28.16 57.06 C-29.01 57.06 -29.85 57.06 -30.72 57.06 C-58.06 57.04 -85.24 57.62 -112.49 60.09 C-114.95 60.31 -117.42 60.52 -119.89 60.73 C-222.31 69.59 -324.01 92.47 -458.98 136.31 C-459.87 136.61 -460.76 136.91 -461.69 137.22 C-501.37 150.63 -540.49 165.78 -578.98 182.31 C-579.68 182.61 -580.38 182.91 -581.1 183.22 C-614.54 197.61 -647.9 212.46 -680 229.67 C-683.9 231.75 -687.83 233.78 -691.77 235.8 C-705.18 242.67 -718.44 249.72 -731.52 257.21 C-735.99 259.76 -740.5 262.23 -745.03 264.67 C-757.76 271.52 -770.18 278.84 -782.58 286.28 C-785.91 288.27 -789.25 290.26 -792.58 292.24 C-804.36 299.27 -816.05 306.42 -827.61 313.8 C-830.05 315.36 -832.5 316.89 -834.95 318.43 C-864.37 336.9 -892.91 356.84 -920.98 377.31 C-921.77 377.89 -922.56 378.47 -923.38 379.06 C-933.17 386.2 -942.84 393.45 -952.32 400.99 C-954 402.33 -955.69 403.65 -957.39 404.98 C-969.24 414.23 -980.95 423.67 -992.39 433.43 C-995.74 436.27 -999.12 439.06 -1002.54 441.81 C-1007.61 445.94 -1012.42 450.31 -1017.21 454.76 C-1019.42 456.79 -1021.64 458.79 -1023.91 460.75 C-1029.01 465.17 -1033.94 469.78 -1038.88 474.38 C-1040.48 475.85 -1042.08 477.31 -1043.69 478.77 C-1052.4 486.71 -1060.78 494.96 -1069.1 503.3 C-1071.37 505.57 -1073.64 507.84 -1075.91 510.11 C-1077.38 511.58 -1078.85 513.04 -1080.31 514.51 C-1080.98 515.18 -1081.65 515.84 -1082.33 516.53 C-1086.17 520.39 -1089.83 524.35 -1093.38 528.48 C-1096.11 531.61 -1098.99 534.6 -1101.85 537.62 C-1106.67 542.75 -1111.26 547.96 -1115.65 553.46 C-1117.9 556.22 -1120.22 558.89 -1122.57 561.55 C-1127.89 567.59 -1132.94 573.76 -1137.79 580.19 C-1147.82 593.48 -1147.82 593.48 -1151.98 597.31 C-1152.64 597.31 -1153.3 597.31 -1153.98 597.31 C-1153.72 590.44 -1150.73 586.43 -1146.73 581 C-1146.1 580.12 -1145.47 579.25 -1144.82 578.35 C-1143.51 576.54 -1142.2 574.73 -1140.89 572.93 C-1139.12 570.51 -1137.38 568.08 -1135.65 565.63 C-1121.95 546.37 -1107.19 527.87 -1091.85 509.89 C-1089.06 506.61 -1086.35 503.29 -1083.66 499.94 C-1079.38 494.66 -1074.78 489.72 -1070.11 484.79 C-1067.25 481.76 -1064.44 478.72 -1061.72 475.57 C-1058.14 471.47 -1054.46 467.47 -1050.73 463.51 C-1049.7 462.42 -1049.7 462.42 -1048.65 461.31 C-1041.04 453.27 -1033.24 445.42 -1025.4 437.6 C-1022.95 435.16 -1020.5 432.7 -1018.05 430.25 C-1016.46 428.66 -1014.88 427.08 -1013.29 425.49 C-1012.21 424.41 -1012.21 424.41 -1011.11 423.31 C-1007.11 419.32 -1003.01 415.52 -998.73 411.83 C-996.69 410.06 -994.71 408.23 -992.76 406.37 C-991.7 405.37 -991.7 405.37 -990.62 404.35 C-989.91 403.68 -989.21 403 -988.48 402.31 C-983.08 397.18 -977.62 392.17 -971.98 387.31 C-971.42 386.83 -970.86 386.35 -970.28 385.85 C-968.66 384.46 -967.04 383.07 -965.41 381.69 C-960.99 377.91 -956.59 374.11 -952.2 370.29 C-945.56 364.5 -938.83 358.85 -931.98 353.31 C-930.72 352.28 -929.46 351.25 -928.2 350.22 C-920.92 344.26 -913.58 338.39 -906.1 332.69 C-903 330.33 -899.93 327.95 -896.85 325.56 C-885.36 316.7 -873.61 308.19 -861.85 299.69 C-861.21 299.22 -860.57 298.75 -859.91 298.28 C-857.6 296.61 -855.29 294.96 -852.98 293.31 C-852.4 292.9 -851.83 292.49 -851.24 292.07 C-839.9 283.97 -828.39 276.15 -816.79 268.44 C-815.51 267.58 -815.51 267.58 -814.2 266.71 C-759.15 230.1 -701.84 197.38 -642.98 167.31 C-641.93 166.78 -640.89 166.24 -639.81 165.69 C-623.72 157.49 -607.42 149.79 -590.98 142.31 C-590.27 141.99 -589.56 141.66 -588.83 141.33 C-500.53 101.14 -409.16 67.84 -124.98 7.31 C-123.73 7.16 -123.73 7.16 -122.47 7.01 C-110.32 5.56 -98.16 4.36 -85.98 3.31 C-85.12 3.23 -84.27 3.16 -83.39 3.08 C-55.61 0.65 -27.87 0.02 0 0 Z " fill="#FEFEFE" transform="translate(1173.9773178100586,31.689926147460938)"/>
<path d="M0 0 C46.2 0 92.4 0 140 0 C140 129.03 140 258.06 140 391 C93.8 391 47.6 391 0 391 C0 261.97 0 132.94 0 0 Z " fill="#FEFEFE" transform="translate(1330,691)"/>
<path d="M0 0 C4.16 3.3 6.54 6.92 8.9 11.64 C9.48 10.99 10.06 10.34 10.66 9.67 C17.97 1.88 26.56 -4.72 37.56 -5.56 C47.99 -5.72 55.82 -4.13 63.93 2.7 C71.83 10.51 74.64 21.21 75.02 32.07 C75.02 33.26 75.01 34.45 75.01 35.68 C75.01 36.35 75.01 37.01 75.01 37.69 C75.01 39.86 75 42.03 75 44.2 C74.99 45.72 74.99 47.23 74.99 48.75 C74.99 52.71 74.98 56.68 74.97 60.65 C74.96 64.7 74.95 68.76 74.95 72.81 C74.94 80.76 74.92 88.7 74.9 96.64 C66.65 96.64 58.4 96.64 49.9 96.64 C49.88 94.72 49.87 92.79 49.85 90.8 C49.8 84.41 49.74 78.02 49.66 71.63 C49.62 67.76 49.58 63.89 49.55 60.02 C49.53 56.28 49.49 52.54 49.44 48.8 C49.42 47.37 49.41 45.95 49.4 44.53 C49.35 34.6 49.19 26.15 41.9 18.64 C37.21 15.74 32.24 16.03 26.9 16.64 C21.82 19 18.57 22.79 15.9 27.64 C14.78 31.12 14.74 34.43 14.69 38.07 C14.67 39.37 14.65 40.67 14.63 42.01 C14.62 43.42 14.6 44.84 14.58 46.25 C14.56 47.71 14.54 49.16 14.52 50.61 C14.46 54.42 14.41 58.24 14.37 62.05 C14.32 65.95 14.26 69.84 14.21 73.73 C14.1 81.37 14 89.01 13.9 96.64 C5.65 96.64 -2.6 96.64 -11.1 96.64 C-11.12 93.72 -11.12 93.72 -11.13 90.73 C-11.17 84.25 -11.22 77.77 -11.29 71.29 C-11.32 67.37 -11.36 63.45 -11.37 59.52 C-11.39 55.73 -11.42 51.94 -11.47 48.14 C-11.48 46.7 -11.49 45.26 -11.49 43.82 C-11.5 34.46 -12.01 26.61 -18.16 19.14 C-22.53 15.76 -27.83 15.99 -33.1 16.64 C-38.13 18.35 -41.25 21.27 -43.79 25.89 C-47.01 32.67 -46.83 39.47 -46.81 46.84 C-46.82 48.28 -46.84 49.73 -46.85 51.17 C-46.89 54.93 -46.9 58.7 -46.91 62.46 C-46.92 66.32 -46.96 70.17 -46.99 74.03 C-47.05 81.57 -47.09 89.11 -47.1 96.64 C-55.35 96.64 -63.6 96.64 -72.1 96.64 C-72.43 63.64 -72.76 30.64 -73.1 -3.36 C-65.84 -3.36 -58.58 -3.36 -51.1 -3.36 C-50.44 0.93 -49.78 5.22 -49.1 9.64 C-47.64 8.08 -46.17 6.51 -44.66 4.89 C-32.72 -7.06 -14.48 -9.34 0 0 Z " fill="#FEFEFE" transform="translate(2103.1015625,985.35546875)"/>
<path d="M0 0 C46.2 0 92.4 0 140 0 C140 45.87 140 91.74 140 139 C93.8 139 47.6 139 0 139 C0 93.13 0 47.26 0 0 Z M18 17 C18 51.65 18 86.3 18 122 C52.32 122 86.64 122 122 122 C122 87.35 122 52.7 122 17 C87.68 17 53.36 17 18 17 Z " fill="#FEFEFE" transform="translate(1330,524)"/>
<path d="M0 0 C8.58 0 17.16 0 26 0 C26 48.51 26 97.02 26 147 C18.41 147 10.82 147 3 147 C3 142.38 3 137.76 3 133 C2.34 133.68 1.68 134.36 1 135.06 C0 136.04 -1 137.02 -2 138 C-2.57 138.58 -3.14 139.15 -3.73 139.75 C-12.28 147.91 -22.38 150.12 -34 150 C-45.46 149.07 -55.38 143.49 -63 135 C-73.28 121.37 -75.66 104.63 -74 88 C-71.83 73.12 -65.77 60.41 -53.55 51.14 C-42.43 44.08 -30.65 42.11 -17.65 44.66 C-10.02 46.89 -7.61 49.22 -1 55 C-0.67 36.85 -0.34 18.7 0 0 Z M-40.25 71.12 C-47.76 80.62 -48.85 92.33 -48 104 C-46.47 112.34 -43.86 119.68 -37 125 C-30.55 128.69 -24.22 130.35 -16.9 128.46 C-9.96 126.11 -5.65 122.42 -2 116 C0.45 109.48 0.37 103.09 0.38 96.19 C0.41 94.5 0.41 94.5 0.45 92.78 C0.48 84.42 -0.6 77.22 -5.96 70.56 C-6.94 69.79 -6.94 69.79 -7.94 69 C-8.91 68.2 -8.91 68.2 -9.9 67.38 C-19.84 60.86 -32.22 62.68 -40.25 71.12 Z " fill="#FEFEFE" transform="translate(2401,534)"/>
<path d="M0 0 C8.58 0 17.16 0 26 0 C26 48.51 26 97.02 26 147 C18.41 147 10.82 147 3 147 C2.67 142.38 2.34 137.76 2 133 C0.08 135.32 0.08 135.32 -1.88 137.69 C-9.09 145.66 -17.31 149.2 -28 150 C-40.64 150.12 -50.84 146.86 -60 138 C-72.23 124.4 -74.85 108.1 -74.18 90.48 C-73.18 76.65 -67.85 63.67 -57.7 54.08 C-46.51 45.47 -34.89 43.03 -21 44 C-11.89 45.75 -8.35 48.57 -1 55 C-0.67 36.85 -0.34 18.7 0 0 Z M-40.25 71.12 C-47.76 80.62 -48.85 92.33 -48 104 C-46.47 112.34 -43.86 119.68 -37 125 C-30.55 128.69 -24.22 130.35 -16.9 128.46 C-9.96 126.11 -5.65 122.42 -2 116 C0.45 109.48 0.37 103.09 0.38 96.19 C0.41 94.5 0.41 94.5 0.45 92.78 C0.48 84.42 -0.6 77.22 -5.96 70.56 C-6.94 69.79 -6.94 69.79 -7.94 69 C-8.91 68.2 -8.91 68.2 -9.9 67.38 C-19.84 60.86 -32.22 62.68 -40.25 71.12 Z " fill="#FEFEFE" transform="translate(2623,534)"/>
<path d="M0 0 C8.25 0 16.5 0 25 0 C25.02 2.6 25.04 5.21 25.06 7.89 C25.13 16.53 25.2 25.16 25.29 33.8 C25.34 39.03 25.38 44.26 25.42 49.5 C25.46 54.55 25.51 59.61 25.56 64.67 C25.58 66.59 25.59 68.51 25.6 70.43 C25.42 93.04 25.42 93.04 34.25 113.38 C40.51 119.35 47.7 121.41 56.21 121.27 C63.07 120.61 69.11 118.47 73.94 113.44 C80.66 104.83 82.13 94.47 82.21 83.9 C82.22 82.99 82.23 82.08 82.24 81.14 C82.27 78.15 82.29 75.16 82.32 72.17 C82.34 70.09 82.36 68.01 82.38 65.93 C82.43 60.47 82.48 55.01 82.53 49.55 C82.58 43.97 82.64 38.39 82.69 32.81 C82.8 21.88 82.9 10.94 83 0 C91.58 0 100.16 0 109 0 C109.05 11.36 109.08 22.72 109.1 34.09 C109.11 39.36 109.13 44.64 109.15 49.92 C109.17 55.02 109.18 60.12 109.19 65.23 C109.19 67.16 109.2 69.1 109.21 71.04 C109.32 91.27 108.45 112.4 93.97 128.22 C81.45 140.03 65.71 143.18 49 143 C35.19 142.22 22.84 138.01 13 128 C0.03 111.59 -0.3 93.08 -0.2 73.14 C-0.19 71.03 -0.19 68.92 -0.19 66.8 C-0.18 61.27 -0.16 55.74 -0.14 50.21 C-0.12 44.55 -0.11 38.89 -0.1 33.23 C-0.08 22.15 -0.04 11.08 0 0 Z " fill="#FEFEFE" transform="translate(1617,541)"/>
<path d="M0 0 C26.4 0 52.8 0 80 0 C80 26.73 80 53.46 80 81 C53.6 81 27.2 81 0 81 C0 54.27 0 27.54 0 0 Z " fill="#FEFEFE" transform="translate(1360,553)"/>
<path d="M0 0 C7.59 0 15.18 0 23 0 C23.33 44.22 23.66 88.44 24 134 C17.07 134 10.14 134 3 134 C2.01 128.06 2.01 128.06 1 122 C0.26 123.03 -0.48 124.06 -1.25 125.12 C-6 130.71 -13.75 134.76 -21 136 C-33.94 136.93 -43.47 134.93 -53.71 126.61 C-63.29 117.99 -67.04 105.53 -68 93 C-68.46 77.42 -65.18 62.48 -54.38 50.69 C-45.21 42.11 -34.82 39.61 -22.64 39.72 C-13.13 40.45 -8.28 43.76 -1 50 C-0.67 33.5 -0.34 17 0 0 Z M-36.75 64.69 C-43.3 73.43 -44.8 83.33 -44 94 C-42.49 102.06 -39.43 109.33 -32.88 114.44 C-27.06 117.6 -21.49 117.73 -15 117 C-8.4 114.44 -4.34 109.92 -1.42 103.55 C0.52 98.25 0.44 93.08 0.38 87.5 C0.39 86.51 0.4 85.51 0.41 84.49 C0.38 75.79 -1.28 68.99 -7.34 62.48 C-12.1 58.24 -17.37 57.44 -23.51 57.65 C-29.07 58.43 -32.78 60.81 -36.75 64.69 Z " fill="#FEFEFE" transform="translate(1675,747)"/>
<path d="M0 0 C10.07 8.52 15.64 18.99 17.37 32.03 C18.35 48.9 17.15 64 6.25 77.69 C-2.72 87.44 -14.99 93.71 -28.33 94.36 C-44.34 94.65 -57.66 92.04 -69.92 80.96 C-75.02 75.63 -78 69.88 -80.63 63.03 C-81.05 61.95 -81.46 60.88 -81.88 59.78 C-86.15 44.12 -84.16 26.84 -76.51 12.59 C-69.06 0.96 -58.15 -6.12 -44.76 -9.35 C-28.95 -11.84 -13 -9.74 0 0 Z M-49.88 16.09 C-56.95 25.02 -58.42 37.01 -57.63 48.03 C-55.99 58.28 -52.62 66.3 -44.38 72.84 C-39.63 76.06 -34.26 76.95 -28.63 76.03 C-21.44 73.8 -17 70.1 -13.04 63.75 C-7.25 52.55 -6.97 39.22 -10.07 27.15 C-12.56 20.01 -17.19 13.31 -24.05 9.78 C-33.78 6.94 -42.87 8.83 -49.88 16.09 Z " fill="#FDFDFD" transform="translate(1923.6328125,989.97265625)"/>
<path d="M0 0 C9.89 8.24 13.87 18.46 15.07 31.07 C15.47 36.99 15.39 42.91 15.37 48.84 C15.37 50.24 15.37 51.64 15.37 53.03 C15.36 56.68 15.35 60.33 15.34 63.97 C15.33 67.71 15.33 71.44 15.32 75.18 C15.31 82.48 15.29 89.78 15.27 97.08 C6.69 97.08 -1.89 97.08 -10.73 97.08 C-10.74 95.23 -10.76 93.37 -10.77 91.46 C-10.82 85.29 -10.89 79.12 -10.96 72.96 C-11.01 69.22 -11.05 65.49 -11.07 61.75 C-11.1 58.14 -11.14 54.53 -11.19 50.92 C-11.21 49.55 -11.22 48.18 -11.22 46.81 C-11.29 32.91 -11.29 32.91 -17.1 20.58 C-21.13 16.75 -24.09 15.97 -29.54 15.71 C-34.71 15.85 -38.61 16.9 -42.73 20.08 C-47.84 25.62 -49.83 29.9 -49.93 37.48 C-49.95 38.45 -49.95 38.45 -49.96 39.43 C-49.99 41.56 -50.02 43.69 -50.04 45.81 C-50.06 47.29 -50.08 48.76 -50.11 50.24 C-50.16 54.12 -50.21 58 -50.26 61.88 C-50.31 65.84 -50.36 69.81 -50.42 73.77 C-50.53 81.54 -50.63 89.31 -50.73 97.08 C-59.31 97.08 -67.89 97.08 -76.73 97.08 C-77.06 63.75 -77.39 30.42 -77.73 -3.92 C-70.14 -3.92 -62.55 -3.92 -54.73 -3.92 C-54.07 0.37 -53.41 4.66 -52.73 9.08 C-51.47 7.7 -50.21 6.32 -48.91 4.89 C-36.25 -7.81 -14.9 -10.48 0 0 Z " fill="#FEFEFE" transform="translate(1828.7265625,583.91796875)"/>
<path d="M0 0 C10.2 8.6 15.25 19.14 17.56 32.19 C17.56 39.12 17.56 46.05 17.56 53.19 C-4.88 53.19 -27.32 53.19 -50.44 53.19 C-47.39 65.45 -47.39 65.45 -39 73.75 C-25.98 80.56 -11.31 79.06 2.59 75.84 C5.56 75.19 5.56 75.19 8.56 75.19 C9.26 77.81 9.94 80.44 10.62 83.06 C10.82 83.81 11.02 84.56 11.23 85.32 C12.68 90.96 12.68 90.96 11.56 93.19 C-5.97 100.67 -29 101.91 -46.75 94.94 C-57.6 90.03 -66.44 82.34 -71.31 71.31 C-77.43 55.03 -77.37 36.58 -70.13 20.61 C-63.99 8.09 -55.67 0.09 -42.56 -4.91 C-28.73 -8.95 -12.08 -8.52 0 0 Z M-43.15 16.95 C-47.54 22.4 -50.44 28.08 -50.44 35.19 C-35.92 35.19 -21.4 35.19 -6.44 35.19 C-7.51 23.6 -7.51 23.6 -13.94 14.81 C-23.02 8.91 -35.31 8.86 -43.15 16.95 Z " fill="#FDFDFD" transform="translate(2089.4375,584.8125)"/>
<path d="M0 0 C7.07 7.09 11.05 17.29 11.19 27.23 C11.21 28.28 11.22 29.33 11.24 30.4 C11.25 31.53 11.27 32.66 11.28 33.82 C11.3 35 11.32 36.17 11.34 37.38 C11.4 41.15 11.45 44.92 11.5 48.69 C11.8 71.36 11.8 71.36 13 94 C9.19 94.03 5.38 94.05 1.56 94.06 C0.47 94.07 -0.61 94.08 -1.74 94.09 C-2.77 94.09 -3.81 94.09 -4.87 94.1 C-5.83 94.1 -6.79 94.11 -7.78 94.11 C-10 94 -10 94 -11 93 C-11.37 90.67 -11.7 88.34 -12 86 C-14.7 86 -15.44 87.04 -17.5 88.75 C-26.6 95.66 -36.38 97.59 -47.7 96.82 C-55.93 95.56 -63.22 91.66 -68.44 85.12 C-74.01 76.73 -75.02 69.08 -74 59 C-73.09 55.39 -71.78 52.27 -70 49 C-69.65 48.35 -69.3 47.71 -68.94 47.04 C-63.56 38.48 -53.16 33.62 -43.67 31.12 C-33.72 28.88 -24.19 27.84 -14 28 C-15.36 20.19 -15.36 20.19 -19.81 13.94 C-27.84 9.06 -35.81 8.9 -44.9 10.83 C-50.68 12.3 -56.35 14.08 -62 16 C-64.24 10.39 -65.83 4.93 -67 -1 C-46.83 -10.5 -18.85 -14.84 0 0 Z M-46 54 C-48.99 58.8 -49.38 62.49 -48.5 67.92 C-47.47 72.17 -45.99 74.3 -42.44 76.81 C-36.44 78.88 -30.62 79.05 -24.75 76.44 C-19.29 73.29 -15.89 69.3 -13.62 63.44 C-12.43 57.41 -12.85 51.12 -13 45 C-24.89 44.48 -37.32 44.78 -46 54 Z " fill="#FDFDFD" transform="translate(2519,587)"/>
<path d="M0 0 C8.67 7.33 12.43 15.53 14.03 26.72 C14.14 29.02 14.21 31.33 14.24 33.64 C14.25 34.31 14.26 34.97 14.27 35.65 C14.3 37.83 14.32 40 14.35 42.18 C14.37 43.7 14.39 45.21 14.41 46.73 C14.47 50.7 14.52 54.68 14.56 58.65 C14.61 62.72 14.67 66.78 14.72 70.84 C14.83 78.8 14.93 86.76 15.03 94.72 C7.44 94.72 -0.15 94.72 -7.97 94.72 C-8.96 89.77 -8.96 89.77 -9.97 84.72 C-10.73 85.52 -10.73 85.52 -11.52 86.33 C-20.2 94.77 -29.18 97.36 -41.17 97.19 C-50.15 96.78 -56.75 93.77 -63.28 87.66 C-70.11 79.83 -70.61 70.61 -70.15 60.69 C-69.52 53.88 -66.14 47.19 -60.97 42.72 C-46.08 31.42 -29.21 29.23 -10.97 29.72 C-12.32 21.91 -12.32 21.91 -16.78 15.66 C-25.43 10.4 -34.49 10.69 -44.16 13.03 C-49.16 14.41 -54.07 16 -58.97 17.72 C-59.64 15.64 -60.31 13.55 -60.97 11.47 C-61.34 10.31 -61.71 9.15 -62.09 7.95 C-62.97 4.72 -62.97 4.72 -62.97 0.72 C-44.46 -8 -17.83 -13.18 0 0 Z M-40.53 53.24 C-44.68 58.06 -45.27 61.06 -45.18 67.25 C-44.78 71.95 -42.81 73.96 -39.41 77.03 C-34.18 79.6 -29.34 79.73 -23.76 78.06 C-18.66 75.8 -15.06 72.33 -11.97 67.72 C-11.03 64.89 -10.85 63.19 -10.87 60.27 C-10.87 59.42 -10.88 58.57 -10.88 57.7 C-10.89 56.82 -10.9 55.94 -10.91 55.03 C-10.91 54.14 -10.92 53.25 -10.92 52.33 C-10.93 50.12 -10.95 47.92 -10.97 45.72 C-20.97 45.57 -32.93 45.82 -40.53 53.24 Z " fill="#FDFDFD" transform="translate(2577.96875,987.28125)"/>
<path d="M0 0 C8.11 6.51 12.86 16.16 14.46 26.38 C14.73 31.74 14.69 37.1 14.66 42.47 C14.65 44.03 14.65 45.58 14.65 47.14 C14.64 51.22 14.62 55.3 14.6 59.37 C14.58 63.54 14.57 67.71 14.56 71.88 C14.54 80.05 14.5 88.21 14.46 96.38 C6.21 96.38 -2.04 96.38 -10.54 96.38 C-10.55 94.52 -10.56 92.67 -10.57 90.77 C-10.6 84.61 -10.66 78.46 -10.72 72.3 C-10.76 68.58 -10.79 64.85 -10.81 61.12 C-10.83 57.52 -10.86 53.91 -10.91 50.31 C-10.92 48.94 -10.93 47.57 -10.93 46.21 C-10.94 37.5 -11.01 27.57 -17.06 20.63 C-22.06 16.33 -25.93 15.91 -32.36 15.97 C-38.15 16.71 -42.32 19.61 -45.95 24.12 C-49.36 29.6 -49.65 35.36 -49.74 41.66 C-49.76 42.88 -49.78 44.1 -49.8 45.36 C-49.82 46.66 -49.84 47.96 -49.86 49.3 C-49.88 50.66 -49.9 52.02 -49.92 53.38 C-49.97 56.94 -50.02 60.5 -50.07 64.06 C-50.12 67.7 -50.18 71.34 -50.23 74.98 C-50.34 82.11 -50.44 89.24 -50.54 96.38 C-58.79 96.38 -67.04 96.38 -75.54 96.38 C-75.87 63.38 -76.2 30.38 -76.54 -3.62 C-69.28 -3.62 -62.02 -3.62 -54.54 -3.62 C-53.54 -0.62 -53.24 1.91 -52.98 5.06 C-52.85 6.55 -52.85 6.55 -52.72 8.07 C-52.66 8.83 -52.6 9.59 -52.54 10.38 C-52.08 9.78 -51.62 9.19 -51.14 8.58 C-46.24 2.64 -41.69 -0.81 -34.54 -3.62 C-32.9 -4.27 -32.9 -4.27 -31.23 -4.94 C-20.26 -6.98 -9.55 -6.11 0 0 Z " fill="#FEFEFE" transform="translate(1745.5390625,985.625)"/>
<path d="M0 0 C7.6 7.61 11.05 18.12 11.19 28.7 C11.21 29.82 11.22 30.95 11.24 32.1 C11.25 33.31 11.27 34.51 11.28 35.75 C11.3 37.01 11.32 38.26 11.34 39.55 C11.4 43.55 11.45 47.56 11.5 51.56 C11.55 55.54 11.6 59.52 11.66 63.5 C11.7 65.98 11.73 68.45 11.76 70.93 C11.87 78.33 12.31 85.63 13 93 C5.41 93 -2.18 93 -10 93 C-10.66 90.03 -11.32 87.06 -12 84 C-13.13 84.91 -14.27 85.82 -15.44 86.75 C-26.02 94.7 -37.07 96.13 -50 95 C-57.64 93.31 -64.13 89.29 -68.5 82.75 C-73.33 74.38 -74.4 65.96 -72.47 56.36 C-69.48 46.8 -63.15 39.61 -54.38 34.81 C-41.14 28.74 -28.28 27.82 -14 28 C-15.23 20.45 -15.23 20.45 -19 14 C-26.67 8.76 -35.43 9.02 -44.29 10.58 C-49.61 11.82 -54.13 13.5 -59 16 C-59.99 15.67 -60.98 15.34 -62 15 C-63.17 12.16 -63.17 12.16 -64.19 8.62 C-64.53 7.46 -64.88 6.3 -65.23 5.1 C-66 2 -66 2 -66 -1 C-46 -10.43 -18.7 -14.73 0 0 Z M-43.63 51.49 C-47.36 55.77 -48.3 59.3 -48.22 64.94 C-47.78 69.1 -46.06 72.04 -43 74.81 C-38.5 77.48 -34.08 77.58 -29 77 C-22.97 75.19 -18.21 71.42 -15 66 C-13.17 60.89 -12.78 56.46 -12.88 51.06 C-12.88 50.38 -12.89 49.69 -12.9 48.99 C-12.93 47.33 -12.96 45.66 -13 44 C-23.11 43.61 -35.78 44.32 -43.63 51.49 Z " fill="#FDFDFD" transform="translate(2269,989)"/>
<path d="M0 0 C1.15 -0.02 2.3 -0.04 3.49 -0.06 C13.16 -0.11 23 0.3 30.94 6.25 C29.29 12.19 27.64 18.13 25.94 24.25 C23.65 23.59 21.36 22.93 19 22.25 C4.45 18.43 -10.77 18.77 -24.23 26.11 C-33.87 32.12 -39.36 41.3 -42.06 52.25 C-45.34 68.8 -42.29 83.9 -33.31 98 C-24.34 106.97 -13.17 110.7 -0.69 111.29 C8.35 111.19 17.18 109.36 25.94 107.25 C26.45 109.29 26.94 111.33 27.44 113.38 C27.72 114.51 27.99 115.65 28.28 116.82 C28.9 120.06 29.06 122.96 28.94 126.25 C26.92 126.9 24.9 127.55 22.88 128.19 C21.19 128.73 21.19 128.73 19.46 129.28 C0.45 134.52 -22.62 132.4 -40.06 123.25 C-43.3 121.15 -46.18 118.81 -49.06 116.25 C-49.74 115.7 -50.42 115.15 -51.11 114.59 C-55.74 110.5 -58.6 105.94 -61.38 100.5 C-61.7 99.87 -62.03 99.24 -62.36 98.59 C-67.23 88.5 -68.56 78.34 -68.44 67.25 C-68.45 66.16 -68.46 65.08 -68.47 63.96 C-68.41 46.04 -62.09 30.73 -50 17.62 C-36.16 4.33 -18.64 0.08 0 0 Z " fill="#FDFDFD" transform="translate(2176.0625,751.75)"/>
<path d="M0 0 C11.65 8.52 14.72 17.09 17 31 C17.36 35.84 17.35 40.64 17.29 45.49 C17.29 46.8 17.28 48.12 17.28 49.47 C17.27 52.9 17.24 56.34 17.21 59.78 C17.17 63.3 17.16 66.83 17.15 70.36 C17.11 77.24 17.06 84.12 17 91 C9.08 91 1.16 91 -7 91 C-7.01 89.22 -7.03 87.45 -7.04 85.62 C-7.1 79.73 -7.16 73.84 -7.24 67.95 C-7.28 64.38 -7.32 60.81 -7.35 57.24 C-7.37 53.79 -7.41 50.34 -7.46 46.89 C-7.49 44.94 -7.5 43 -7.51 41.05 C-7.62 34.31 -8.17 29.14 -11 23 C-11.49 21.51 -11.49 21.51 -12 20 C-14.42 18.83 -14.42 18.83 -17 18 C-17.66 17.67 -18.32 17.34 -19 17 C-25.35 16.17 -30.05 16.76 -35.31 20.5 C-38.69 23.5 -40.59 26.76 -42 31 C-42.12 32.95 -42.18 34.9 -42.21 36.85 C-42.23 38.05 -42.25 39.25 -42.27 40.49 C-42.28 41.78 -42.3 43.08 -42.32 44.42 C-42.34 45.76 -42.36 47.1 -42.38 48.44 C-42.43 51.97 -42.48 55.49 -42.53 59.02 C-42.58 62.62 -42.64 66.22 -42.69 69.82 C-42.8 76.88 -42.9 83.94 -43 91 C-50.92 91 -58.84 91 -67 91 C-67 60.64 -67 30.28 -67 -1 C-60.4 -1 -53.8 -1 -47 -1 C-46.34 2.96 -45.68 6.92 -45 11 C-44.26 9.97 -43.51 8.94 -42.75 7.88 C-33.21 -3.36 -12.95 -7.4 0 0 Z " fill="#FEFEFE" transform="translate(2431,790)"/>
<path d="M0 0 C9.38 7.71 15.11 17.12 16.81 29.31 C16.95 32.56 16.95 35.81 16.94 39.06 C16.94 39.94 16.95 40.81 16.95 41.71 C16.95 42.55 16.95 43.38 16.95 44.23 C16.94 44.99 16.94 45.75 16.94 46.53 C16.81 48.31 16.81 48.31 15.81 49.31 C13.91 49.41 12 49.43 10.1 49.43 C8.88 49.43 7.66 49.43 6.4 49.43 C5.06 49.42 3.71 49.42 2.37 49.41 C1 49.41 -0.36 49.41 -1.73 49.41 C-5.33 49.4 -8.93 49.39 -12.53 49.38 C-16.21 49.37 -19.88 49.37 -23.55 49.36 C-30.76 49.35 -37.98 49.33 -45.19 49.31 C-44.73 50.91 -44.26 52.51 -43.79 54.11 C-43.53 55 -43.27 55.88 -43 56.8 C-40.85 63.43 -37.33 66.2 -31.41 69.33 C-19.6 74.55 -3.13 71.63 8.81 68.31 C9.32 70.39 9.82 72.48 10.31 74.56 C10.59 75.72 10.87 76.88 11.16 78.08 C11.81 81.31 11.81 81.31 11.81 85.31 C9.63 85.96 7.44 86.61 5.25 87.25 C4.03 87.61 2.81 87.97 1.56 88.34 C-13.85 92.34 -32.79 92.53 -47.02 84.77 C-57.19 78.12 -63.87 69.66 -66.58 57.81 C-69.87 41.75 -67.89 25.42 -58.79 11.52 C-52.6 3.01 -43.97 -2.52 -33.77 -5.36 C-21.37 -6.92 -11.1 -5.88 0 0 Z M-40.19 18.31 C-43.67 23.19 -44.29 26 -45.19 32.31 C-31.99 32.31 -18.79 32.31 -5.19 32.31 C-6 22.19 -6 22.19 -11.19 14.31 C-15.97 10.55 -20.87 9.72 -26.86 9.99 C-32.74 10.8 -36.41 13.93 -40.19 18.31 Z " fill="#FDFDFD" transform="translate(1783.1875,792.6875)"/>
<path d="M0 0 C4.64 3.96 7.51 8.4 10.12 13.88 C10.54 14.71 10.95 15.55 11.38 16.41 C15.81 27.13 14.12 35.32 14.12 47.88 C-6.34 47.88 -26.8 47.88 -47.88 47.88 C-43.29 60.92 -43.29 60.92 -32.84 68.11 C-20.95 72.72 -5.77 70.13 6.12 66.88 C6.63 68.77 7.13 70.67 7.62 72.56 C7.9 73.62 8.18 74.67 8.47 75.76 C9.06 78.59 9.25 81 9.12 83.88 C6.92 84.53 4.71 85.17 2.5 85.81 C0.66 86.35 0.66 86.35 -1.23 86.9 C-16.3 90.92 -34.58 90.82 -48.62 83.62 C-60.3 76.54 -66.08 67.76 -69.43 54.7 C-72.06 37.87 -69.38 21.7 -59.35 7.76 C-45.4 -9.6 -18.05 -12.71 0 0 Z M-44.65 19.42 C-46.46 22.8 -46.46 22.8 -47.88 30.88 C-34.68 30.88 -21.47 30.88 -7.88 30.88 C-7.88 23.13 -9.06 17.74 -14.6 12.12 C-19.18 8.81 -23.61 8.1 -29.2 8.4 C-36.18 9.64 -40.43 14 -44.65 19.42 Z " fill="#FDFDFD" transform="translate(2332.875,794.125)"/>
<path d="M0 0 C0.79 -0.01 1.58 -0.02 2.4 -0.03 C13.23 0.03 21.93 2.67 30.26 9.81 C39.89 19.91 39.59 34.26 39.75 47.28 C39.77 48.63 39.8 49.99 39.82 51.35 C39.87 54.9 39.92 58.46 39.97 62.01 C40.02 65.64 40.08 69.27 40.13 72.91 C40.24 80.02 40.34 87.14 40.44 94.25 C33.51 94.25 26.58 94.25 19.44 94.25 C18.78 91.28 18.12 88.31 17.44 85.25 C15.98 86.61 15.98 86.61 14.5 88 C5.29 95.92 -4.81 96.94 -16.56 96.25 C-24.33 95 -30.32 90.73 -34.91 84.38 C-39.51 76.7 -40.04 67.24 -37.91 58.61 C-36.98 56.32 -35.91 54.33 -34.56 52.25 C-34.12 51.56 -33.68 50.88 -33.23 50.17 C-25.75 40.25 -13.3 36.42 -1.5 34.67 C4.17 34.06 9.75 33.99 15.44 34.25 C14.85 29.03 14.34 25.29 10.81 21.25 C3.11 16.68 -3.91 16.73 -12.56 18.25 C-15.76 19.18 -18.86 20.23 -21.97 21.41 C-24.56 22.25 -24.56 22.25 -28.56 22.25 C-29.07 20.69 -29.57 19.13 -30.06 17.56 C-30.34 16.69 -30.62 15.82 -30.91 14.93 C-31.56 12.26 -31.68 9.99 -31.56 7.25 C-20.75 2.38 -11.8 0.11 0 0 Z M-11.56 56.25 C-14.88 60.09 -16.23 63.07 -15.95 68.22 C-15.25 71.88 -13.74 74.22 -11.56 77.25 C-6.95 80.22 -1.85 79.96 3.44 79.25 C9.11 77.06 12.53 73.6 15.44 68.25 C16.69 64.49 16.54 60.98 16.5 57.06 C16.5 56.31 16.49 55.56 16.49 54.79 C16.47 52.94 16.46 51.1 16.44 49.25 C6.75 48.67 -3.99 49.62 -11.56 56.25 Z " fill="#FDFDFD" transform="translate(2632.5625,786.75)"/>
<path d="M0 0 C7.23 6.08 10.82 14.76 11.79 24.05 C11.92 27.07 11.97 30.08 11.98 33.11 C11.99 34.22 12.01 35.32 12.02 36.46 C12.07 39.98 12.1 43.49 12.12 47 C12.17 51.62 12.23 56.24 12.29 60.86 C12.31 62.5 12.31 62.5 12.33 64.18 C12.43 71.91 12.81 79.54 13.5 87.25 C6.57 87.25 -0.36 87.25 -7.5 87.25 C-8.49 84.28 -9.48 81.31 -10.5 78.25 C-11.43 79.33 -11.43 79.33 -12.38 80.44 C-18.96 87.06 -27.59 89.39 -36.62 89.56 C-45.25 89.57 -51.94 87.93 -58.38 82 C-64.19 75.54 -66.61 68.94 -66.5 60.25 C-65.62 49.9 -61.07 42.72 -53.21 36.07 C-41.04 27.88 -25.71 26.84 -11.5 27.25 C-12.74 19.38 -12.74 19.38 -17.5 13.25 C-26.91 8.69 -36.38 10.05 -46 13.25 C-47.44 13.78 -47.44 13.78 -48.91 14.31 C-51.1 15.1 -53.23 15.74 -55.5 16.25 C-56.23 14.17 -56.93 12.09 -57.62 10 C-58.02 8.84 -58.41 7.68 -58.82 6.48 C-59.5 3.25 -59.5 3.25 -59.07 1 C-56.66 -1.69 -53.61 -2.43 -50.25 -3.44 C-49.59 -3.65 -48.94 -3.86 -48.26 -4.08 C-32.99 -8.89 -13.65 -9.27 0 0 Z M-40.07 50.63 C-43.12 54.09 -42.77 57.35 -42.71 61.77 C-42.34 66.14 -40.64 68.25 -37.44 71.06 C-32.43 73.09 -27.37 73.16 -22.21 71.52 C-17.94 69.56 -14.82 67.45 -12.5 63.25 C-10.55 56.31 -10.22 49.41 -10.5 42.25 C-21.74 41.65 -31.69 42.56 -40.07 50.63 Z " fill="#FDFDFD" transform="translate(1962.5,793.75)"/>
<path d="M0 0 C8.91 0 17.82 0 27 0 C28.83 4.28 30.47 8.18 31.85 12.56 C32.18 13.6 32.51 14.64 32.85 15.72 C33.2 16.83 33.55 17.93 33.91 19.07 C34.46 20.81 34.46 20.81 35.02 22.59 C35.79 25.04 36.56 27.49 37.32 29.94 C38.49 33.66 39.67 37.38 40.84 41.09 C41.59 43.48 42.34 45.87 43.09 48.26 C43.44 49.36 43.79 50.46 44.15 51.59 C46.12 57.92 47.87 64.26 49.38 70.73 C49.78 72.95 49.78 72.95 51 74 C51.33 72.75 51.66 71.5 52 70.22 C56.25 54.53 61.03 39.02 65.88 23.5 C66.22 22.4 66.56 21.3 66.91 20.17 C67.89 17.02 68.88 13.87 69.87 10.72 C70.17 9.75 70.47 8.79 70.78 7.79 C71.06 6.91 71.33 6.03 71.62 5.12 C71.86 4.35 72.11 3.57 72.36 2.77 C73 1 73 1 74 0 C76 -0.09 78 -0.11 80 -0.1 C81.22 -0.09 82.43 -0.09 83.69 -0.09 C84.96 -0.08 86.24 -0.07 87.56 -0.06 C88.85 -0.06 90.13 -0.05 91.45 -0.05 C94.63 -0.04 97.82 -0.02 101 0 C99.02 6.08 96.89 12.09 94.62 18.07 C94.3 18.93 93.97 19.79 93.64 20.68 C92.57 23.49 91.51 26.31 90.44 29.12 C89.69 31.1 88.95 33.07 88.2 35.04 C79.86 57.05 71.44 79.03 63 101 C54.42 101 45.84 101 37 101 C31.25 87.2 31.25 87.2 28.83 80.7 C28.41 79.58 28.41 79.58 27.98 78.43 C27.07 76 26.16 73.56 25.25 71.12 C24.61 69.4 23.96 67.67 23.32 65.95 C21.94 62.27 20.57 58.58 19.2 54.9 C17.68 50.83 16.16 46.76 14.64 42.69 C12.66 37.39 10.69 32.09 8.71 26.78 C7.95 24.72 7.18 22.66 6.41 20.6 C5.33 17.72 4.26 14.84 3.19 11.95 C2.87 11.09 2.54 10.22 2.21 9.33 C1.77 8.14 1.77 8.14 1.32 6.93 C1.07 6.24 0.81 5.55 0.54 4.84 C0 3 0 3 0 0 Z " fill="#FDFDFD" transform="translate(1909,580)"/>
<path d="M0 0 C0.1 6.42 -0.25 12.63 -1 19 C-2.09 18.97 -3.17 18.93 -4.29 18.89 C-5.73 18.87 -7.18 18.84 -8.62 18.81 C-9.69 18.77 -9.69 18.77 -10.79 18.74 C-15.6 18.67 -18.84 19.31 -23 22 C-27.85 29.01 -28.11 36.71 -29 45 C-21.74 45 -14.48 45 -7 45 C-7 51.27 -7 57.54 -7 64 C-14.26 64 -21.52 64 -29 64 C-29 90.73 -29 117.46 -29 145 C-37.25 145 -45.5 145 -54 145 C-54 118.27 -54 91.54 -54 64 C-58.29 64 -62.58 64 -67 64 C-67 57.73 -67 51.46 -67 45 C-62.71 45 -58.42 45 -54 45 C-54.06 43.29 -54.12 41.58 -54.19 39.81 C-54.16 29.24 -51.88 19.83 -46 11 C-45.44 10.11 -44.89 9.23 -44.31 8.31 C-33.17 -2.83 -14.46 -6.57 0 0 Z " fill="#FEFEFE" transform="translate(1842,937)"/>
<path d="M0 0 C1.1 0 1.1 0 2.22 0.01 C10.82 0.17 18.88 1.98 26.81 5.31 C26.13 11.43 24.91 17.51 22.81 23.31 C21.82 23.81 21.82 23.81 20.81 24.31 C19.16 23.75 17.54 23.11 15.94 22.44 C8.57 19.67 0.84 17.95 -6.81 20.56 C-10.37 22.06 -10.37 22.06 -12.19 25.31 C-12.62 29.25 -12.72 31.48 -10.56 34.86 C-7.79 37.72 -5.51 38.76 -1.81 40.19 C-0.56 40.69 0.69 41.2 1.93 41.71 C2.57 41.98 3.21 42.24 3.87 42.5 C14.34 46.86 24.16 51.17 29.25 61.88 C32.36 70.72 32.13 80.63 28.13 89.13 C23.14 97.39 15.47 101.45 6.51 104.4 C-10.06 108.48 -25.62 105.43 -41.19 99.31 C-40.54 96.71 -39.9 94.1 -39.25 91.5 C-38.98 90.39 -38.98 90.39 -38.7 89.26 C-37.95 86.24 -37.17 83.27 -36.19 80.31 C-35.67 80.49 -35.14 80.68 -34.61 80.86 C-32.14 81.71 -29.67 82.51 -27.19 83.31 C-26.32 83.6 -25.45 83.88 -24.56 84.18 C-16.66 86.59 -8 88.11 -0.06 85 C3.02 83.47 3.02 83.47 4.81 80.31 C5.09 78.13 5.09 78.13 5 75.81 C4.99 74.65 4.99 74.65 4.98 73.47 C4.89 71.13 4.89 71.13 3.81 68.31 C2.01 67.17 2.01 67.17 -0.19 66.31 C-0.92 66.01 -1.64 65.7 -2.39 65.39 C-3.58 64.91 -3.58 64.91 -4.79 64.43 C-30.79 53.83 -30.79 53.83 -36.38 42.29 C-39.35 34.99 -38.92 27.26 -36.41 19.83 C-32.24 11.26 -25.07 5.45 -16.19 2.31 C-10.67 0.71 -5.73 -0.04 0 0 Z " fill="#FDFDFD" transform="translate(2232.1875,577.6875)"/>
<path d="M0 0 C-0.62 6.58 -2.15 12.67 -4 19 C-5.14 18.6 -5.14 18.6 -6.31 18.19 C-19.46 13.55 -19.46 13.55 -32.88 15.38 C-36 16.8 -36 16.8 -38 19 C-38.43 21.07 -38.43 21.07 -38.44 23.38 C-38.48 24.15 -38.52 24.92 -38.56 25.71 C-37.7 29.22 -36.02 30.07 -33 32 C-29.99 33.41 -26.91 34.61 -23.81 35.81 C-12.26 40.52 -2.64 45.7 3.13 57.26 C5.48 64.64 5.26 74.41 2.06 81.5 C-3.92 91.45 -12.31 95.73 -23.21 98.58 C-37.32 100.71 -53.26 99.92 -66 93 C-65.38 86.42 -63.85 80.33 -62 74 C-60.76 74.43 -59.53 74.87 -58.25 75.31 C-42.84 80.61 -42.84 80.61 -27.06 78.75 C-23.17 76.63 -23.17 76.63 -21 73 C-20.57 69.7 -20.8 67.11 -22 64 C-26.76 58.78 -33.97 56.77 -40.4 54.32 C-49.52 50.75 -57.1 45.65 -62 37 C-65.25 28.57 -64.54 20.22 -61 12 C-55.18 3.34 -47.73 -1.6 -37.75 -4.31 C-25.14 -6.62 -11.77 -5.04 0 0 Z " fill="#FDFDFD" transform="translate(2677,985)"/>
<path d="M0 0 C-1.11 6.41 -2.34 12.71 -4 19 C-10.63 18.11 -10.63 18.11 -12.79 17.48 C-20.94 15.71 -31.62 15.82 -39 20 C-46.37 25.1 -50.49 30.71 -52.58 39.41 C-54.24 49.62 -53.24 59.67 -47.31 68.31 C-42.71 73.96 -36.96 77.07 -30 79 C-20.9 79.79 -12.62 79.01 -4 76 C-2.45 80.28 -1.52 84.37 -0.88 88.88 C-0.71 90.03 -0.54 91.18 -0.37 92.37 C-0.25 93.24 -0.12 94.1 0 95 C-14.81 102.08 -34.48 102.61 -49.96 97.32 C-61.62 92.26 -70.63 84.46 -75.97 72.79 C-81.58 57.64 -81.85 41.36 -75.93 26.28 C-69.54 12.61 -59.93 4.4 -45.92 -1 C-30.89 -6.14 -14.93 -4.98 0 0 Z " fill="#FDFDFD" transform="translate(2498,984)"/>
<path d="M0 0 C0 8.25 0 16.5 0 25 C7.92 25 15.84 25 24 25 C24 30.94 24 36.88 24 43 C16.08 43 8.16 43 0 43 C0.07 49.81 0.16 56.63 0.26 63.44 C0.3 65.76 0.32 68.07 0.35 70.39 C0.38 73.73 0.43 77.06 0.49 80.4 C0.49 81.43 0.5 82.45 0.51 83.51 C0.64 90.13 0.97 97.39 5.42 102.69 C10.06 106.54 17.4 105.06 23 105 C23 111.27 23 117.54 23 124 C10.39 126.62 -0.68 127.55 -12.31 121.19 C-20.02 114.91 -22.47 108.3 -23.53 98.56 C-24.09 92.73 -24.13 86.94 -24.1 81.09 C-24.1 79.99 -24.09 78.89 -24.09 77.77 C-24.09 74.3 -24.08 70.84 -24.06 67.38 C-24.06 65.01 -24.05 62.65 -24.05 60.29 C-24.04 54.52 -24.02 48.76 -24 43 C-28.62 43 -33.24 43 -38 43 C-38 37.06 -38 31.12 -38 25 C-33.38 25 -28.76 25 -24 25 C-24 18.73 -24 12.46 -24 6 C-20.75 4.99 -17.5 3.99 -14.25 3 C-13.33 2.71 -12.41 2.43 -11.46 2.13 C-10.57 1.86 -9.68 1.59 -8.77 1.31 C-7.95 1.06 -7.13 0.81 -6.29 0.55 C-4 0 -4 0 0 0 Z " fill="#FDFDFD" transform="translate(2332,958)"/>
<path d="M0 0 C8.58 0 17.16 0 26 0 C26 45.54 26 91.08 26 138 C17.42 138 8.84 138 0 138 C0 92.46 0 46.92 0 0 Z " fill="#FEFEFE" transform="translate(1617,944)"/>
<path d="M0 0 C1.11 0 1.11 0 2.23 0.01 C9.93 0.15 16.85 1.72 23.69 5.31 C22.6 11.07 21.39 16.7 19.69 22.31 C18.98 22.02 18.28 21.74 17.55 21.44 C9.73 18.5 2.04 16.89 -6.31 18.31 C-9.67 20.48 -11.05 21.47 -12.25 25.31 C-12.32 28.57 -12.1 29.65 -10.31 32.31 C-7.88 33.93 -7.88 33.93 -4.94 35.25 C-3.86 35.77 -2.78 36.29 -1.67 36.82 C1.46 38.21 4.61 39.42 7.81 40.62 C15.9 43.96 22.66 49.13 26.31 57.25 C28.95 65.4 28.33 72.78 25.14 80.7 C20.73 88.64 13.18 92.82 4.69 95.31 C-7.96 98.57 -22.23 96.76 -34.31 92.31 C-35.3 91.65 -36.29 90.99 -37.31 90.31 C-36.9 84.12 -35.71 79.05 -33.31 73.31 C-32.48 73.6 -32.48 73.6 -31.62 73.9 C-20.58 77.67 -8.62 81.29 2.69 76.31 C3.9 72.67 4.61 69.07 3.69 65.31 C-0.2 60.29 -4.82 58.6 -10.56 56.44 C-20.82 52.33 -28.41 47.9 -34.31 38.31 C-36.82 30.8 -35.89 22.69 -32.64 15.57 C-28 7.68 -21.15 3.72 -12.58 1.23 C-8.36 0.21 -4.33 -0.03 0 0 Z " fill="#FDFDFD" transform="translate(2029.3125,786.6875)"/>
<path d="M0 0 C-0.55 6.05 -1.9 11.31 -4 17 C-5.07 16.57 -5.07 16.57 -6.17 16.12 C-13.75 13.3 -20.9 11.79 -29 13 C-32.71 14.78 -32.71 14.78 -35 18 C-35.58 21.37 -35.58 21.37 -35 25 C-30.49 29.59 -25.63 31.61 -19.69 33.88 C-9.74 37.9 -1.34 41.8 3.19 52.12 C5.42 60.03 5.23 68.73 1.31 76.04 C-4.26 84.37 -11.72 88.05 -21.3 90.62 C-34.56 92.5 -49.23 91.86 -61 85 C-59.07 73.48 -59.07 73.48 -57 68 C-56.16 68.29 -56.16 68.29 -55.31 68.59 C-44.86 72.15 -34.24 75.45 -23.31 71.75 C-20.84 69.88 -19.77 69 -19 66 C-19.08 62.28 -19.61 60.49 -21.95 57.58 C-25.89 54.24 -30 52.58 -34.75 50.62 C-44.76 46.3 -53.31 42.35 -58 32 C-60.72 24.99 -58.85 17.62 -56 11 C-51.93 3.3 -45.03 -1.12 -37 -4 C-25.81 -6.84 -9.76 -6.51 0 0 Z " fill="#FDFDFD" transform="translate(2750,792)"/>
<path d="M0 0 C0.49 0.5 0.49 0.5 1 1 C0.83 6.82 -0.47 12.41 -2 18 C-8.48 17.11 -8.48 17.11 -11.42 16.48 C-20.19 14.84 -28.03 16 -36 20 C-41.13 24.02 -45.88 30.43 -47 37 C-47.61 46 -48.16 55.16 -43 63 C-37.22 69.6 -30.29 73.25 -21.54 74.01 C-16.6 73.99 -11.82 72.98 -7 72 C-5.58 71.72 -5.58 71.72 -4.14 71.43 C-3.08 71.22 -3.08 71.22 -2 71 C-1.49 73.06 -0.99 75.12 -0.5 77.19 C-0.22 78.34 0.06 79.48 0.34 80.67 C0.91 83.57 1.13 86.06 1 89 C-13.87 93.6 -30.13 95.95 -45 90 C-45.85 89.67 -46.69 89.34 -47.57 89 C-57.85 84.47 -64 77.07 -68.81 67.09 C-73.76 54.24 -74 38.71 -69.26 25.76 C-67.28 21.42 -65.01 17.69 -62 14 C-61.45 13.31 -60.9 12.63 -60.33 11.92 C-45.81 -4.31 -19.75 -7.12 0 0 Z " fill="#FDFDFD" transform="translate(2537,790)"/>
<path d="M0 0 C0 8.25 0 16.5 0 25 C-3.96 25 -7.92 25 -12 25 C-18.71 26.63 -22.2 29.25 -26 35 C-29.14 41.16 -30.09 46.87 -30.21 53.73 C-30.23 54.83 -30.25 55.93 -30.27 57.07 C-30.28 58.24 -30.3 59.41 -30.32 60.62 C-30.34 61.83 -30.36 63.04 -30.38 64.29 C-30.44 68.15 -30.5 72.01 -30.56 75.88 C-30.61 78.5 -30.65 81.12 -30.69 83.74 C-30.8 90.16 -30.9 96.58 -31 103 C-39.25 103 -47.5 103 -56 103 C-56.33 69.67 -56.66 36.34 -57 2 C-49.74 2 -42.48 2 -35 2 C-34.34 7.61 -33.68 13.22 -33 19 C-32.18 17.66 -31.35 16.32 -30.5 14.94 C-22.31 2.72 -14.75 0 0 0 Z " fill="#FEFEFE" transform="translate(2182,578)"/>
<path d="M0 0 C7.92 0 15.84 0 24 0 C24 44.22 24 88.44 24 134 C16.08 134 8.16 134 0 134 C0 89.78 0 45.56 0 0 Z " fill="#FEFEFE" transform="translate(1856,747)"/>
<path d="M0 0 C1 1 1 1 1.11 3.22 C1.11 4.18 1.1 5.14 1.1 6.13 C1.09 7.16 1.09 8.2 1.09 9.26 C1.08 10.9 1.08 10.9 1.06 12.56 C1.06 13.65 1.05 14.75 1.05 15.87 C1.04 18.58 1.02 21.29 1 24 C-0.41 24.06 -0.41 24.06 -1.85 24.11 C-3.72 24.21 -3.72 24.21 -5.62 24.31 C-7.47 24.4 -7.47 24.4 -9.35 24.49 C-15.74 25.38 -19.88 28.12 -24 33 C-27.92 39.36 -29.09 45.27 -29.21 52.73 C-29.23 53.83 -29.25 54.93 -29.27 56.07 C-29.28 57.24 -29.3 58.41 -29.32 59.62 C-29.34 60.83 -29.36 62.04 -29.38 63.29 C-29.44 67.15 -29.5 71.01 -29.56 74.88 C-29.61 77.5 -29.65 80.12 -29.69 82.74 C-29.8 89.16 -29.9 95.58 -30 102 C-38.25 102 -46.5 102 -55 102 C-55.33 69 -55.66 36 -56 2 C-48.74 2 -41.48 2 -34 2 C-33.34 7.61 -32.68 13.22 -32 19 C-31.17 17.47 -30.35 15.95 -29.5 14.38 C-25.32 7.44 -19.85 3.06 -12.16 0.46 C-8.15 -0.4 -4.07 -0.41 0 0 Z " fill="#FEFEFE" transform="translate(2015,980)"/>
<path d="M0 0 C8.58 0 17.16 0 26 0 C26 33.33 26 66.66 26 101 C17.42 101 8.84 101 0 101 C0 67.67 0 34.34 0 0 Z " fill="#FEFEFE" transform="translate(2282,580)"/>
<path d="M0 0 C8.58 0 17.16 0 26 0 C26 33.33 26 66.66 26 101 C17.42 101 8.84 101 0 101 C0 67.67 0 34.34 0 0 Z " fill="#FEFEFE" transform="translate(1869,580)"/>
<path d="M0 0 C8.25 0 16.5 0 25 0 C25 33 25 66 25 100 C16.75 100 8.5 100 0 100 C0 67 0 34 0 0 Z " fill="#FEFEFE" transform="translate(2374,982)"/>
<path d="M0 0 C7.59 0 15.18 0 23 0 C23 30.36 23 60.72 23 92 C15.41 92 7.82 92 0 92 C0 61.64 0 31.28 0 0 Z " fill="#FEFEFE" transform="translate(2554,789)"/>
<path d="M0 0 C7.59 0 15.18 0 23 0 C23 30.36 23 60.72 23 92 C15.41 92 7.82 92 0 92 C0 61.64 0 31.28 0 0 Z " fill="#FEFEFE" transform="translate(2222,789)"/>
<path d="M0 0 C2.52 -0.34 2.52 -0.34 5.66 -0.29 C6.79 -0.28 7.91 -0.27 9.06 -0.26 C10.24 -0.24 11.41 -0.21 12.62 -0.19 C13.81 -0.17 14.99 -0.16 16.21 -0.15 C19.14 -0.11 22.07 -0.06 25 0 C23.31 2.92 21.62 5.63 19.4 8.16 C18.91 8.72 18.43 9.28 17.93 9.86 C17.41 10.44 16.9 11.03 16.38 11.62 C15.3 12.86 14.23 14.1 13.16 15.33 C12.63 15.95 12.1 16.56 11.55 17.19 C8.51 20.73 5.58 24.36 2.64 27.99 C1 30 1 30 0 31 C-2.86 31.07 -5.7 31.09 -8.56 31.06 C-9.37 31.06 -10.18 31.05 -11.01 31.05 C-13 31.04 -15 31.02 -17 31 C-15.75 26.9 -14.23 23.39 -12.03 19.71 C-11.46 18.75 -10.89 17.79 -10.3 16.8 C-9.41 15.32 -9.41 15.32 -8.5 13.81 C-7.91 12.82 -7.31 11.82 -6.7 10.79 C-4.52 7.15 -2.35 3.53 0 0 Z " fill="#FBFBFB" transform="translate(2246,939)"/>
<path d="M0 0 C3.67 2.3 5.31 3.55 6.69 7.69 C7.82 18.03 7.82 18.03 4.56 22.25 C0.48 25.71 -2.55 26.53 -7.81 27 C-13.12 26.53 -16.07 25.03 -19.69 21.12 C-21.87 16.51 -22.11 12.71 -21.31 7.69 C-19.52 3.89 -18.02 2.17 -14.56 -0.19 C-9.26 -2.02 -5.23 -2.07 0 0 Z " fill="#FCFCFC" transform="translate(2302.3125,539.3125)"/>
<path d="M0 0 C4.06 2.38 5.83 4.5 7.31 8.94 C7.99 12.92 7.5 16.31 6.31 20.19 C3.58 23.94 0.68 25.51 -3.69 26.94 C-8.93 27.57 -12.25 26.8 -16.69 23.94 C-20.52 20.42 -21.44 17.18 -21.79 12.15 C-21.58 7.43 -19.56 4.74 -16.19 1.62 C-10.91 -1.93 -5.98 -1.72 0 0 Z " fill="#FCFCFC" transform="translate(1888.6875,539.0625)"/>
<path d="M0 0 C3.63 3.45 5.45 6.62 5.66 11.71 C5.32 16.71 4.37 19.95 0.56 23.44 C-3.77 26.04 -8.53 25.97 -13.44 25.44 C-17.71 24.15 -19.69 22.53 -21.88 18.75 C-23.88 14.21 -23.62 11.23 -22.44 6.44 C-21.02 3.09 -19.85 1.73 -16.88 -0.38 C-10.96 -2.42 -5.74 -2.61 0 0 Z " fill="#FBFBFB" transform="translate(2395.4375,942.5625)"/>
<path d="M0 0 C3.59 1.35 4.66 2.52 6.88 5.62 C8.35 10.06 8.22 13.51 7 18 C4.63 21.97 2.48 23.85 -2 25 C-7.22 25.47 -10.6 24.9 -15 22 C-18.41 18.25 -18.56 14.32 -18.43 9.45 C-17.73 5.45 -15.94 3.73 -13 1 C-9.07 -0.96 -4.29 -0.34 0 0 Z " fill="#FCFCFC" transform="translate(2239,751)"/>
<path d="M0 0 C3.67 2.67 5.12 5.87 5.9 10.17 C6.19 14.86 4.59 17.51 1.59 20.97 C-2.48 24.44 -5.76 24.51 -10.98 24.16 C-15.07 22.58 -17.94 21.12 -19.98 17.16 C-21.35 11.16 -21.2 7.64 -17.98 2.16 C-13.51 -2.17 -5.59 -2.39 0 0 Z " fill="#FCFCFC" transform="translate(2572.9765625,751.84375)"/>
</svg>
