<svg xmlns="http://www.w3.org/2000/svg" width="225" height="47" viewBox="0 0 225 47" fill="none"><path d="M72.0949 25.7049L68.574 16.1479H67.2467C67.0311 16.1479 66.8417 16.2762 66.7595 16.4817L63.3739 25.7059H72.0949V25.7049ZM77.4303 33.1867H75.2097C74.9661 33.1867 74.7766 33.0333 74.7225 32.8528L72.9079 27.9084H62.5629L60.7483 32.8528C60.6942 33.0333 60.4767 33.1867 60.2611 33.1867H58.0405L64.6481 15.3799C64.974 14.5338 65.8131 13.9453 66.7885 13.9453H70.0116C70.147 13.9453 70.2813 14.0225 70.3354 14.1238L77.4313 33.1867H77.4303Z" fill="#212952"></path><path d="M92.6227 14.2521C92.7029 14.0987 92.8943 13.9453 93.0828 13.9453H95.4387L88.397 32.8539C88.3429 33.0343 88.1253 33.1877 87.9369 33.1877H85.7985C85.608 33.1877 85.3925 33.0343 85.3383 32.8539L78.2966 13.9453H80.6526C80.842 13.9453 81.0586 14.0987 81.1127 14.2521L86.8812 29.9325L92.6227 14.2521Z" fill="#212952"></path><path d="M110.01 25.7049L106.489 16.1479H105.161C104.946 16.1479 104.756 16.2762 104.674 16.4817L101.29 25.7059H110.01V25.7049ZM115.345 33.1867H113.124C112.881 33.1867 112.691 33.0333 112.637 32.8528L110.823 27.9084H100.478L98.6631 32.8528C98.609 33.0333 98.3915 33.1867 98.1759 33.1867H95.9553L102.563 15.3799C102.889 14.5338 103.728 13.9453 104.703 13.9453H107.926C108.062 13.9453 108.196 14.0225 108.25 14.1238L115.346 33.1867H115.345Z" fill="#212952"></path><path d="M132.543 29.7019C132.271 27.7029 132.271 26.0898 132.137 24.2703V14.2771C132.137 14.0987 132.299 13.9453 132.489 13.9453H134.683V33.1867H132.326C132.137 33.1867 131.893 33.0333 131.813 32.8799L122.551 16.5579C122.415 16.3273 122.09 16.1479 121.819 16.1479H121.36V32.8539C121.36 33.0343 121.197 33.1877 121.008 33.1877H118.813V14.2781C118.813 14.0997 118.976 13.9463 119.165 13.9463H122.253C123.12 13.9463 124.149 14.5358 124.555 15.2526L130.08 25.1174L132.544 29.7039L132.543 29.7019Z" fill="#212952"></path><path d="M140.139 28.9337V18.1987C140.139 15.7897 142.197 13.8428 144.743 13.8428H154.031V15.7125C154.031 15.8909 153.868 16.0443 153.652 16.0443H144.742C143.605 16.0443 142.683 16.9165 142.683 17.9922V29.1382C142.683 30.2139 143.605 31.0851 144.742 31.0851H150.347C151.484 31.0851 152.649 30.2139 152.649 29.1382V24.5006H147.721C147.532 24.5006 147.369 24.3472 147.369 24.1667V22.297H154.599C154.789 22.297 154.951 22.4504 154.951 22.6309V29.1894C154.951 31.9052 152.893 33.2897 150.347 33.2897H144.742C142.196 33.2897 140.138 31.3418 140.138 28.9337" fill="#212952"></path><path d="M164.902 16.1479H173.676C173.866 16.1479 174.029 15.9945 174.029 15.814V13.9443H164.902C162.356 13.9443 160.298 15.8922 160.298 18.3003V28.8308C160.298 31.2398 162.356 33.1877 164.902 33.1877H174.029V31.316C174.029 31.1376 173.866 30.9842 173.676 30.9842H164.902C163.765 30.9842 162.843 30.113 162.843 29.0363V24.6553H172.727C172.918 24.6553 173.08 24.5019 173.08 24.3214V22.4517H162.842V18.0958C162.842 17.0201 163.764 16.1489 164.901 16.1489" fill="#212952"></path><path d="M192.402 29.7019C192.131 27.7029 192.131 26.0898 191.996 24.2703V14.2771C191.996 14.0987 192.159 13.9453 192.348 13.9453H194.542V33.1867H192.186C191.996 33.1867 191.753 33.0333 191.671 32.8799L182.408 16.5579C182.275 16.3273 181.949 16.1479 181.677 16.1479H181.217V32.8539C181.217 33.0343 181.056 33.1877 180.866 33.1877H178.672V14.2781C178.672 14.0997 178.834 13.9463 179.024 13.9463H182.112C182.977 13.9463 184.007 14.5358 184.413 15.2526L189.938 25.1174L192.402 29.7039V29.7019Z" fill="#212952"></path><path d="M200.54 32.8529V13.9443H202.733C202.924 13.9443 203.085 14.0977 203.085 14.2762V33.1857H200.891C200.702 33.1857 200.54 33.0323 200.54 32.8519" fill="#212952"></path><path d="M211.437 17.9922V29.1383C211.437 30.214 212.359 31.0852 213.495 31.0852H219.617C220.754 31.0852 221.675 30.214 221.675 29.1383V17.9922C221.675 16.9165 220.754 16.0453 219.617 16.0453H213.495C212.359 16.0453 211.437 16.9165 211.437 17.9922ZM213.495 33.2887C210.95 33.2887 208.892 31.3418 208.892 28.9327V18.1977C208.892 15.7887 210.95 13.8418 213.495 13.8418H219.617C222.134 13.8418 224.22 15.7887 224.22 18.1977V28.9327C224.22 31.3418 222.134 33.2887 219.617 33.2887H213.495Z" fill="#212952"></path><path d="M0.614502 40.9999L8.26073 45.417L9.61513 46.1979C10.6517 46.7974 11.8929 46.9258 13.0307 46.5538L26.3352 42.1989L39.6396 46.5538C40.7765 46.9258 42.0196 46.7974 43.0552 46.1979L52.0478 41.0069L40.6762 37.8439L26.3292 33.8579L12.0613 37.8179V37.8249L0.615505 41.0019L0.614502 40.9999Z" fill="#079DA3"></path><path d="M0.614746 40.9998L12.0605 37.8228V37.8158L26.3354 9.32216L30.7656 0.481934H25.6116C23.3259 0.481934 21.2296 1.74812 20.1709 3.77221L0.61575 40.9978L0.614746 40.9998Z" fill="#055D81"></path><path d="M40.6755 37.8424L52.0481 41.0063L30.7636 0.482422L26.3354 9.32165L40.6755 37.8424Z" fill="#212952"></path></svg>