<?xml version="1.0" standalone="no"?>
<!DOCTYPE svg PUBLIC "-//W3C//DTD SVG 20010904//EN"
 "http://www.w3.org/TR/2001/REC-SVG-20010904/DTD/svg10.dtd">
<svg version="1.0" xmlns="http://www.w3.org/2000/svg"
 width="176.000000pt" height="176.000000pt" viewBox="0 0 176.000000 176.000000"
 preserveAspectRatio="xMidYMid meet">

<g transform="translate(0.000000,176.000000) scale(0.100000,-0.100000)"
fill="#000000" stroke="none">
<path d="M732 1476 c-165 -42 -332 -179 -402 -331 -47 -101 -63 -167 -64 -269
0 -103 16 -170 67 -275 57 -118 163 -225 276 -280 204 -99 434 -87 613 32 174
116 289 326 288 530 -1 152 -77 324 -194 434 -129 124 -231 165 -411 169 -76
2 -139 -2 -173 -10z m272 -61 c72 -17 156 -57 219 -104 47 -35 137 -135 137
-152 0 -5 -17 3 -37 17 -61 42 -127 72 -200 93 -37 10 -102 37 -143 59 -79 43
-171 72 -229 72 -45 0 -32 12 22 21 71 11 169 9 231 -6z m-149 -98 l40 -14
-95 -7 c-110 -9 -225 -42 -293 -86 -73 -46 -82 -42 -41 20 28 42 72 74 133 97
45 17 199 11 256 -10z m183 -102 c40 -21 134 -113 180 -175 72 -100 132 -250
132 -331 0 -30 -5 -37 -58 -78 -96 -75 -319 -129 -470 -115 -64 6 -79 11 -120
44 -148 117 -256 291 -277 448 -7 51 -6 54 29 86 61 58 209 119 330 136 81 12
221 3 254 -15z m234 -84 c78 -55 124 -107 148 -169 23 -59 25 -99 9 -156 -12
-45 -22 -37 -34 29 -10 59 -93 211 -147 271 -71 78 -63 86 24 25z m-902 -184
c1 -71 84 -230 168 -320 25 -26 42 -50 39 -54 -9 -9 -112 63 -160 112 -69 71
-98 175 -74 268 9 31 27 27 27 -6z m110 -389 c36 -24 99 -54 140 -66 41 -13
118 -45 170 -72 62 -31 121 -52 168 -60 110 -20 88 -40 -44 -40 -87 0 -173 15
-239 43 -91 37 -208 132 -259 207 -17 26 -21 45 -8 36 4 -2 36 -24 72 -48z
m852 0 c-3 -12 -27 -44 -53 -70 -62 -62 -128 -82 -248 -76 -47 3 -99 11 -115
19 -28 13 -24 14 81 26 121 13 191 35 273 87 67 41 70 42 62 14z"/>
<path d="M757 1002 c-24 -26 -21 -34 18 -62 19 -14 35 -29 35 -33 0 -5 -37 -7
-82 -6 l-83 2 -3 -31 -3 -32 88 0 88 -1 -37 -34 c-45 -42 -47 -52 -12 -67 25
-12 29 -9 74 39 l47 51 49 -49 c54 -54 63 -58 88 -30 17 18 16 20 -18 48 -20
15 -36 31 -36 36 0 4 38 7 85 7 l85 0 0 29 c0 16 -6 31 -12 34 -7 2 -49 2 -93
0 l-80 -4 38 33 c42 37 45 48 18 72 -18 16 -21 15 -71 -38 l-53 -54 -50 54
c-27 30 -52 54 -56 54 -5 0 -15 -8 -24 -18z"/>
</g>
</svg>
