<?xml version="1.0" encoding="UTF-8" standalone="no"?>
<!DOCTYPE svg PUBLIC "-//W3C//DTD SVG 1.1//EN" "http://www.w3.org/Graphics/SVG/1.1/DTD/svg11.dtd">
<svg width="100%" height="100%" viewBox="0 0 888 1349" version="1.1" xmlns="http://www.w3.org/2000/svg" xmlns:xlink="http://www.w3.org/1999/xlink" xml:space="preserve" xmlns:serif="http://www.serif.com/" style="fill-rule:evenodd;clip-rule:evenodd;stroke-linejoin:round;stroke-miterlimit:2;">
    <g transform="matrix(1,0,0,1,-903.505,-2375.09)">
        <g transform="matrix(2.2866,0,0,2.2866,112.294,1814.81)">
            <g transform="matrix(1,0,0,1,0,-175.986)">
                <rect x="526.001" y="602.57" width="207.978" height="50.846"/>
            </g>
            <g transform="matrix(1,0,0,1,0,-175.986)">
                <rect x="526.001" y="602.57" width="207.978" height="50.846"/>
            </g>
            <g transform="matrix(1,0,0,1,437.519,404.655)">
                <path d="M0,5.104L0,72.775L50.833,72.775L50.833,8.926L50.846,8.926L50.846,5.104C50.846,-6.988 60.684,-16.826 72.776,-16.826L296.459,-16.826L296.459,-67.671L72.776,-67.671C32.647,-67.671 0,-35.024 0,5.104" style="fill-rule:nonzero;"/>
            </g>
            <g transform="matrix(1,0,0,1,510.565,540)">
                <path d="M0,-294.972C-22.191,-294.972 -43.731,-290.62 -64.024,-282.038C-83.611,-273.753 -101.196,-261.899 -116.292,-246.803C-131.387,-231.707 -143.242,-214.122 -151.527,-194.534C-160.109,-174.243 -164.461,-152.702 -164.461,-130.512L-164.461,0L-113.615,0L-113.615,-130.512C-113.615,-193.159 -62.648,-244.126 0,-244.126L223.413,-244.126L223.413,-294.972L0,-294.972Z" style="fill-rule:nonzero;"/>
            </g>
            <g transform="matrix(-1,0,0,1,900.006,175.986)">
                <rect x="346.021" y="426.584" width="207.964" height="50.846"/>
            </g>
            <g transform="matrix(0,-1,-1,0,564.92,346.104)">
                <path d="M-218.817,-168.975L-167.97,-168.975L-168.976,218.817L-219.821,218.817L-218.817,-168.975Z" style="fill-rule:nonzero;"/>
            </g>
            <g transform="matrix(1,0,0,1,683.05,704.461)">
                <path d="M0,-33.95C0,28.697 -50.968,79.665 -113.615,79.665L-337.029,79.665L-337.029,130.511L-113.615,130.511C-91.424,130.511 -69.884,126.159 -49.592,117.576C-30.005,109.292 -12.419,97.438 2.677,82.342C17.772,67.246 29.627,49.66 37.911,30.073C46.494,9.781 50.846,-11.759 50.846,-33.95L50.846,-164.461L0,-164.461L0,-33.95Z" style="fill-rule:nonzero;"/>
            </g>
            <g transform="matrix(1,0,0,1,642.481,675.345)">
                <path d="M0,-5.104L0,-72.775L-50.846,-72.775L-50.846,-5.104C-50.846,6.988 -60.684,16.826 -72.775,16.826L-296.459,16.826L-296.459,67.671L-72.775,67.671C-32.647,67.671 0,35.025 0,-5.104" style="fill-rule:nonzero;"/>
            </g>
        </g>
    </g>
</svg>
