<svg xmlns="http://www.w3.org/2000/svg" width="750" height="750"><path fill="#4A02D1" d="M136.075 315.819c.148-.029.295-.069.445-.087 19.407-2.347 38.626 5.059 53.355 17.332 15.34 12.782 25.449 30.997 27.163 50.984 2.049 23.889-7.115 43.509-22.182 61.354-14.733 17.45-39.71 29.81-62.328 31.654-27.358 2.23-53.807-5.775-74.67-23.737-4.16-3.581-18.696-17.839-18.721-23.275-.007-1.345.516-2.147 1.452-3.042 2.021-1.934 10.388-7.442 13.013-7.232 4.082.327 9.783 9.786 12.59 12.9 3.065 3.744 8.022 7.21 11.979 9.947a79.9 79.9 0 0 0 59.272 12.418c17.958-3.308 36.939-14.679 47.34-29.858 9.304-13.579 13.369-28.79 10.312-45.147a54.98 54.98 0 0 0-23.401-35.231c-10.405-7.03-23.77-10.251-36.188-7.822-10.897 2.131-19.092 8.863-20.41 20.389-.634 5.54.343 12.2-3.009 16.995-1.344 1.923-3.139 3.151-5.472 3.516-2.903.454-6.87-.076-9.243-1.907-2.561-1.976-3.66-5.117-3.971-8.239-1.25-12.521 2.472-26.117 10.419-35.876 7.849-9.64 20.112-14.755 32.255-16.036"/><path fill="#4A02D1" d="M132.457 262.368c12.537-.679 26.162 1.628 37.985 5.745 17.083 5.948 31.749 16.765 43.334 30.545 2.141 2.547 4.946 5.498 6.271 8.544.35.805.379 1.33.05 2.125-1.604 3.868-9.667 7.797-13.446 9.17-.662.241-2.123.693-2.725.232-3.389-2.598-5.861-6.78-8.727-9.951-7.242-8.012-16.475-14.336-26.298-18.768-19.69-8.883-43.769-9.216-63.882-1.48-17.834 6.859-33.837 21.333-41.522 38.89-6.27 14.327-7.577 30.648-1.71 45.384 4.033 10.125 12.14 19.854 22.32 24.194 10.667 4.548 21.975 4.161 32.642-.091 9.513-4.477 18.551-13.426 20.604-24.097.715-3.715.752-8.466 2.964-11.617 1.633-2.326 4.222-3.784 7.012-4.199 2.356-.35 5.061-.07 6.98 1.466 2.448 1.959 4.431 5.145 4.684 8.283.237 2.946-.623 5.912-1.299 8.757-2.5 10.519-5.814 18.416-13.005 26.617-10.536 12.015-26.072 18.284-41.805 19.207-15.422.904-31.31-5.203-42.743-15.395a70.72 70.72 0 0 1-23.112-48.141c-1.23-22.072 7.412-45.612 22.237-62.001 19.901-21.998 43.796-31.954 73.191-33.419"/><path fill="#4A02D1" d="M613.375 347.695c7.651-.899 17.683.454 23.907 5.338 3.283 2.576 5.481 5.971 6.636 9.964 1.481 5.124 1.076 10.832 1.068 16.113l-.055 23.106c-.01 4.474-.261 9.138.238 13.583q.024.204.05.408c-4.473-.292-9.022-.11-13.503-.072l-3.248-9.388c-4.473 5.49-9.354 9.09-16.46 10.222-7.421 1.183-14.185.28-20.342-4.165-.091-.083-.185-.164-.274-.25-4.412-4.246-6.124-9.244-6.293-15.236-.155-5.529.778-10.923 4.844-15.023 8.546-8.62 25.341-8.001 36.634-8.037-.098-2.313.073-4.784-.746-6.981-.875-2.349-2.347-4.176-4.696-5.155-6.922-2.885-17.569 1.601-24.051 4.277-1.629-4.407-3.879-8.602-5.949-12.815 7.248-3.352 14.236-5.426 22.24-5.889m-7.962 53.585c1.844 1.287 3.332 2.101 5.578 2.364 4.279-.02 8.418-.359 11.66-3.529 4.007-3.919 3.777-9.708 3.943-14.883-2.305.055-4.619.071-6.923.176-4.889.372-10.315.705-13.719 4.776-1.66 1.986-2.121 4.362-1.864 6.889.154 1.517.706 2.832 1.325 4.207"/><path fill="#4A02D1" d="m347.503 348.993 20.039-.022c-2.619 5.636-4.525 11.895-6.711 17.728l-13.101 34.947c-3.995 10.86-9.622 30.821-18.587 37.931-8.363 6.633-17.647 6.469-27.684 5.235-.279-4.962-.043-9.999-.154-14.975 4.38.701 9.106 1.386 13.265-.607 5.507-2.64 7.569-8.449 9.365-13.83-9.604-21.508-17.447-44.565-26.692-66.342a621 621 0 0 1 20.419-.01c2.453 6.543 4.539 13.271 6.768 19.896 3.317 9.856 6.852 19.287 8.129 29.672 1.224-8.79 4.117-16.907 6.886-25.289z"/><path fill="#4A02D1" d="M263.056 327.173c10.212-.869 19.687 2.35 29.031 6.02-1.677 5.07-4.013 9.938-5.841 14.964-6.435-3.126-14.046-5.376-21.241-5.321-2.768.021-5.677.535-7.64 2.652-1.565 1.688-2.993 4.109-2.825 6.493.536 7.598 15.208 12.486 21.098 15.611 3.028 1.607 5.988 3.502 8.616 5.708 4.864 4.084 7.77 9.418 8.306 15.798.544 6.467-1.206 13.756-5.523 18.717-6.169 7.09-16.059 8.993-24.963 9.512-9.21 1.069-18.163-2.28-26.788-4.853-.461-5.918-.147-12.065-.149-18.006 4.149 1.798 8.434 3.522 12.748 4.878 6.097 1.915 15.722 4.06 21.652.769 3.122-1.733 4.093-4.211 4.929-7.464-.453-1.494-.874-2.999-1.792-4.288-5.208-7.315-19.291-10.662-26.756-16.636-5.307-4.247-8.852-9.867-9.546-16.706-.657-6.475.726-13.3 4.915-18.399 5.558-6.764 13.429-8.688 21.769-9.449"/><path fill="#4A02D1" d="M414.031 347.7q.232-.03.466-.055c5.624-.578 12.632 1.654 16.966 5.228 3.302 2.723 5.215 6.372 6.267 10.456 1.37 5.319 1.091 10.928 1.086 16.373l-.04 21.891c-.009 4.63-.235 9.41.265 14.013q.026.235.056.469c-6.316-.014-12.73-.254-19.029.196l.096-27.764c.008-5.395.447-11.279-.503-16.594-.441-2.469-1.216-5.061-3.072-6.842-2.094-2.009-4.893-2.588-7.708-2.497-4.522.147-7.162 1.721-10.139 4.931-1.547 2.538-2.312 5.39-2.754 8.305-1.036 6.825-.54 14.12-.532 21.022.007 6.353-.292 12.881.227 19.211q-9.606-.02-19.211.11c.067-22.374.21-44.769-.032-67.141q7.255-.094 14.511.015a538 538 0 0 1 2.636 9.243c.885-1.195 1.763-2.435 2.763-3.537 4.653-5.126 11.066-6.669 17.681-7.033"/><path fill="#4A02D1" d="M521.407 328.171c6.396.27 12.825.088 19.225.026-.366 24.125.074 48.274-.105 72.404 11.774-.74 23.709.331 35.516-.298q-.105 7.798.03 15.595c-.65.486-49.902.165-54.615.269-.61-29.295.196-58.684-.051-87.996"/><path fill="#4A02D1" d="m680.327 334.528 4.097-.052c.12 4.822.192 9.751-.105 14.565 6.241-.149 12.503-.052 18.747-.058a188 188 0 0 0 .02 14.008c-6.212-.269-12.493-.1-18.713-.114q.105 10.302.068 20.604c-.037 4.197-.621 9.096.147 13.174.354 1.88 1.133 3.718 2.79 4.8 4.047 2.642 12.137.054 16.528-1.021-.255 4.56-.116 9.185-.109 13.753-1.335.666-2.798 1.093-4.207 1.574-3.888.899-7.763 1.516-11.759 1.629-5.843.164-12.205-.862-16.546-5.121-2.511-2.464-3.978-5.685-4.798-9.062-2.038-8.388-1.021-30.428-.993-40.339-2.859-.032-5.688.052-8.543.199l.056-8.219c3.161-2.103 6.53-3.934 9.735-5.982 2.315-4.491 3.585-9.594 5.612-14.25z"/><path fill="#4A02D1" d="M485.115 347.7c7.104-1.073 15.444 1.894 21.967 4.425-1.679 4.923-3.6 9.776-5.359 14.673a47 47 0 0 0-1.74-.726c-5.977-2.333-13.678-5.053-19.932-2.134-3.213 1.5-5.345 4.817-6.466 8.065-2.299 6.662-2.438 16.584.68 23.012 1.537 3.17 4.151 5.604 7.549 6.633 7.88 2.384 16.307-1.413 23.035-5.163.108 2.891.069 5.8.095 8.693q.006 3.684-.084 7.367c-4.936 2.708-9.576 4.235-15.209 4.671-9.221.714-19.513-.35-26.768-6.66-6.649-5.782-9.159-14.891-9.688-23.393-.649-10.417.899-22.111 8.153-30.168 6.161-6.843 14.909-8.901 23.767-9.295"/></svg>